<svg xmlns="http://www.w3.org/2000/svg" xmlns:xlink="http://www.w3.org/1999/xlink" width="318.515" height="240.251" viewBox="0 0 318.515 240.251">
  <defs>
    <linearGradient id="linear-gradient" x1="0.877" y1="1" x2="0.877" gradientUnits="objectBoundingBox">
      <stop offset="0" stop-color="gray" stop-opacity="0.251"/>
      <stop offset="0.54" stop-color="gray" stop-opacity="0.122"/>
      <stop offset="1" stop-color="gray" stop-opacity="0.102"/>
    </linearGradient>
    <linearGradient id="linear-gradient-2" x1="0.5" y1="1" x2="0.5" y2="0" xlink:href="#linear-gradient"/>
  </defs>
  <g id="Group_89" data-name="Group 89" transform="translate(-28.546 -86.829)">
    <g id="undraw_work_chat_erdt" transform="translate(39.381 101.009)">
      <path id="Path_475" data-name="Path 475" d="M257.238,76.4C243.57,88,225.843,87.249,210.308,81.212S180.5,64.43,165.367,56.791a126.174,126.174,0,0,0-39.483-12.479c-19.291-2.677-40.833.591-54.273,19.338-14.967,20.886-13.818,58.558,2.364,77.718,8.236,9.752,19.019,14.539,28.422,22.163s18.112,20.26,17.311,34.959c-.742,13.593-9.362,24.045-18.283,30.6-6.894,5.062-15.384,10.591-16.215,21.079-.8,10.145,6.336,18.1,13.153,22.618,22.24,14.749,49.645,14.607,71.808-.372,7.9-5.346,15.159-12.456,23.448-16.616,21.764-10.934,45.747.071,68.794,4.1a114.474,114.474,0,0,0,58.51-5.165c11.412-4.087,22.869-10.343,30.886-21.974,5.783-8.392,9.385-19.016,12.766-29.506q5.408-16.776,10.4-33.794c1.995-6.811,3.96-13.753,4.477-21.037.934-13.2-3-26.256-8.363-37.4-12.727-26.457-34.163-45.059-57.379-49.784s-47.775,4.5-65.78,24.7" transform="translate(-71.911 -57.674)" fill="#fff" opacity="0.14"/>
      <ellipse id="Ellipse_61" data-name="Ellipse 61" cx="62.202" cy="2.839" rx="62.202" ry="2.839" transform="translate(72.687 144.038)" fill="#fff" opacity="0.1"/>
      <path id="Path_476" data-name="Path 476" d="M393.613,234.465A56.393,56.393,0,1,1,450,178.073,56.456,56.456,0,0,1,393.613,234.465Zm0-112.237a55.844,55.844,0,1,0,55.845,55.844A55.908,55.908,0,0,0,393.613,122.228Z" transform="translate(-260.812 -99.312)" fill="#fff"/>
      <path id="Path_477" data-name="Path 477" d="M427.13,255.334A43.737,43.737,0,1,1,470.867,211.6,43.79,43.79,0,0,1,427.13,255.334Zm0-86.926A43.189,43.189,0,1,0,470.319,211.6,43.239,43.239,0,0,0,427.13,168.408Z" transform="translate(-294.329 -132.837)" fill="#fff"/>
      <path id="Path_478" data-name="Path 478" d="M463.145,277.749A30.145,30.145,0,1,1,493.289,247.6,30.145,30.145,0,0,1,463.145,277.749Zm0-59.741a29.6,29.6,0,1,0,29.6,29.6A29.6,29.6,0,0,0,463.145,218.008Z" transform="translate(-330.344 -168.844)" fill="#fff"/>
      <ellipse id="Ellipse_62" data-name="Ellipse 62" cx="3.911" cy="1.293" rx="3.911" ry="1.293" transform="translate(265.377 110.13)" fill="#fff" opacity="0.1"/>
      <path id="Path_697" data-name="Path 697" d="M23.031,0C35.75,0,46.061,1.692,46.061,3.779S35.75,7.558,23.031,7.558,0,5.866,0,3.779,10.311,0,23.031,0Z" transform="translate(26.628 175.788)" fill="#0f2337" opacity="0.1"/>
      <g id="Group_25" data-name="Group 25" transform="translate(16.097 74.856)" opacity="0.1">
        <path id="Path_479" data-name="Path 479" d="M191.074,313.21H120.812a3.683,3.683,0,0,0-3.672,3.672v44.395a3.683,3.683,0,0,0,3.672,3.672H175.93s1.428,7.58-3.264,8.4c0,0,10.507.754,8.671-8.4h9.737a3.683,3.683,0,0,0,3.672-3.672V316.882A3.683,3.683,0,0,0,191.074,313.21Z" transform="translate(-117.14 -313.21)"/>
        <g id="Group_24" data-name="Group 24" transform="translate(10.342 11.784)" opacity="0.2">
          <rect id="Rectangle_82" data-name="Rectangle 82" width="56.919" height="3.469" rx="1.735"/>
          <rect id="Rectangle_83" data-name="Rectangle 83" width="56.919" height="3.469" rx="1.735" transform="translate(0 15.505)"/>
          <rect id="Rectangle_84" data-name="Rectangle 84" width="47.733" height="3.469" rx="1.735" transform="translate(0 23.255)"/>
          <rect id="Rectangle_85" data-name="Rectangle 85" width="24.68" height="3.469" rx="1.735" transform="translate(0 7.753)"/>
        </g>
      </g>
      <path id="Path_480" data-name="Path 480" d="M193.307,312.09H123.042a3.683,3.683,0,0,0-3.672,3.672v44.395a3.683,3.683,0,0,0,3.672,3.672H178.16s1.43,7.58-3.264,8.394c0,0,10.507.754,8.671-8.394h9.74a3.68,3.68,0,0,0,3.669-3.672V315.762A3.68,3.68,0,0,0,193.307,312.09Z" transform="translate(-102.662 -237.541)" fill="#fff"/>
      <g id="Group_26" data-name="Group 26" transform="translate(27.053 86.332)" opacity="0.2">
        <rect id="Rectangle_86" data-name="Rectangle 86" width="56.919" height="3.469" rx="1.735" fill="#22b473"/>
        <rect id="Rectangle_87" data-name="Rectangle 87" width="56.919" height="3.469" rx="1.735" transform="translate(0 15.505)" fill="#22b473"/>
        <rect id="Rectangle_88" data-name="Rectangle 88" width="47.733" height="3.469" rx="1.735" transform="translate(0 23.258)" fill="#22b473"/>
        <rect id="Rectangle_89" data-name="Rectangle 89" width="24.68" height="3.469" rx="1.735" transform="translate(0 7.753)" fill="#22b473"/>
      </g>
      <path id="Path_481" data-name="Path 481" d="M256.686,297.476l-3.894,8.282a7.092,7.092,0,0,1-.945,1.842c-.37.288-2.006,5.207-2.006,5.207l-4.174,6.451h0l-.274.438-1.644-.452-1.148-4.294.071-1.247v-.156a25.723,25.723,0,0,1,3.157-2.908s.449.052,1.313-2.042,1.644-2.549,1.644-2.549l.449-1.518,4.84-7.7s4.056-5.818,5.16-3.236S256.686,297.476,256.686,297.476Z" transform="translate(-192.122 -223.632)" fill="#ffd2c6"/>
      <path id="Path_482" data-name="Path 482" d="M205.59,517.861a.932.932,0,0,1-.132.4c-.449.655-2.99,14.056-2.99,14.056a7.563,7.563,0,0,1-.74,3.527,50.741,50.741,0,0,0-1.189,5.081s-.2,9.18-.734,10.614.17,4.508.17,4.508a6.9,6.9,0,0,0,1.3,3.669c.038.049.069.1.1.14.164.236.274.37.274.37a2.134,2.134,0,0,0,.573.71c.036.03.074.058.115.088a6.525,6.525,0,0,0,2.3.97l.079.016c.329.074.548.1.548.1l.2,1.1-2.17.449-4.138.274s-4.878.37-3.771-1.8a3.44,3.44,0,0,0,.2-.46h0c.041-.1.079-.214.112-.323a11.249,11.249,0,0,0,.216-4.626l-.954-7.385c-1.554-6.884,1.228-14.549,1.228-14.549a3.548,3.548,0,0,1,.291-2.17c.534-1.557,0-4.957,0-4.957s-.274-4.385-.655-6.558a13.251,13.251,0,0,1-.148-2.76,13.784,13.784,0,0,1,.148-1.617l9.345-1.239A7.21,7.21,0,0,1,205.59,517.861Z" transform="translate(-157.195 -385.194)" fill="#ffd2c6"/>
      <path id="Path_483" data-name="Path 483" d="M207.366,679.872l-2.17.449-4.138.274s-4.878.37-3.771-1.8a3.429,3.429,0,0,0,.2-.46h0c.041-.1.079-.214.112-.323a7.5,7.5,0,0,1,2.466.5,2.252,2.252,0,0,0,2.436-.863l.674-1.288.1-.186c.164.236.274.37.274.37a2.192,2.192,0,0,0,.688.795l-.115.241-.655,1.37s.839.085,1.987.274a.888.888,0,0,0,1.08-.592l.079.016c.329.074.548.1.548.1Z" transform="translate(-159.108 -501.848)" opacity="0.1"/>
      <path id="Path_484" data-name="Path 484" d="M208.437,681.787c-.164.737-4.733.965-4.733.965s-2.543-.247-3.256.348-2.812.452-2.894.452-1.187-.044-1.62-2.028c-.419-1.935.564-2.272.614-2.288h0a7.439,7.439,0,0,1,2.584.5,2.252,2.252,0,0,0,2.436-.861l.773-1.477c.164.236.274.37.274.37a2.166,2.166,0,0,0,.688.8l-.77,1.619s.839.085,1.987.274a.949.949,0,0,0,1.159-.9.938.938,0,0,0,0-.123s.715.206,1.595.452A1.644,1.644,0,0,1,208.437,681.787Z" transform="translate(-158.17 -502.741)" fill="#626696"/>
      <path id="Path_485" data-name="Path 485" d="M246.15,524.829c-.11.655-.222,2.351-.222,2.351.384,1.42-.6,4.793-.6,4.793l-.491,1.918c.219,2.466-1.351,8.471-1.351,8.471s-1.052,5.574-1.6,7.98a6.635,6.635,0,0,0,.274,4.017c.027.066.044.1.044.1a.457.457,0,0,0,.033.134c.014.044.036.132.058.195a2.959,2.959,0,0,0,.548.915,2.768,2.768,0,0,0,.293.3l.016.017a5.93,5.93,0,0,0,1.743,1.071h0l.274.11a8.2,8.2,0,0,0,.869.274h0a.866.866,0,0,0,.1.022l-.222,1.288-2.894-.74-3.878-1.258-1.918-1.1s.022-.1.06-.3v-.033c.016-.085.033-.186.058-.3a39.243,39.243,0,0,0,.7-9.893c-.463-4.316,1.335-10.274,1.773-11.693a7.089,7.089,0,0,0,.329-2.513c-.712-1.041-.877-5.19-.877-5.19s-1.31-2.68-2.4-5.522a14.531,14.531,0,0,1-.781-2.872,10.042,10.042,0,0,1-.159-2.1s8.8-8.032,9.767-.255c.033.274.063.515.093.762C246.633,522.886,246.254,524.2,246.15,524.829Z" transform="translate(-187.275 -382.394)" fill="#ffd2c6"/>
      <path id="Path_486" data-name="Path 486" d="M249.632,671l-.222,1.288-2.894-.74-3.878-1.258-1.918-1.1s.022-.1.06-.3v-.033c.016-.085.033-.186.058-.3l.274-.027h.022a3.652,3.652,0,0,1,1.625.219c.63.238,1.458.51,1.628.395a2.07,2.07,0,0,1,.929-.164l.4-.882.058-.134a2.925,2.925,0,0,0,.548.915,3.092,3.092,0,0,0,.31.318l-.017.312-.022.441a5.635,5.635,0,0,0,1.392.644.806.806,0,0,0,.389,0h0l.274.11a8.222,8.222,0,0,0,.869.274h0A.894.894,0,0,0,249.632,671Z" transform="translate(-190.757 -495.888)" opacity="0.1"/>
      <path id="Path_487" data-name="Path 487" d="M247.454,674.619c-.808-.233-2.757-.6-3.072-.315s-3.014,0-3.014,0a1.644,1.644,0,0,1-1.395-.822c-.548-.874-.107-3.7-.107-3.7l.2-.019.334-.033h.022a3.606,3.606,0,0,1,1.625.219,3.892,3.892,0,0,0,1.628.395,2.033,2.033,0,0,1,.929-.165l.46-1.017a2.96,2.96,0,0,0,.548.915,3.086,3.086,0,0,0,.31.318l-.038.754a5.673,5.673,0,0,0,1.392.641.548.548,0,0,0,.669-.211.416.416,0,0,0,.049-.112h0a4.708,4.708,0,0,0,1.143.381h0a2.092,2.092,0,0,1,2.231,1.606C251.778,674.707,248.245,674.849,247.454,674.619Z" transform="translate(-190.014 -496.759)" fill="#626696"/>
      <path id="Path_488" data-name="Path 488" d="M208.749,517.84c-.181.052-.345.1-.5.151a6.916,6.916,0,0,1-1.209.255,50.362,50.362,0,0,1-8.2.06,13.782,13.782,0,0,1,.148-1.617l9.345-1.239A7.321,7.321,0,0,1,208.749,517.84Z" transform="translate(-160.354 -385.172)" opacity="0.1"/>
      <path id="Path_489" data-name="Path 489" d="M214.713,481.814s-3.431.532-6.221,1.143c-.932.2-1.792.414-2.428.622a7.457,7.457,0,0,1-1.209.255,54.342,54.342,0,0,1-8.627.033c-1.515-4.916,1.842-11.107,1.842-11.107a6.232,6.232,0,0,1,.7-2.006l.014-.049.477-1.754h12.746l.156.754.323,1.535,2,9.5Z" transform="translate(-158.173 -351.415)" fill="#626696"/>
      <path id="Path_490" data-name="Path 490" d="M245.789,515.767l-.077.033-1.491.66c-1.614.745-6.445.885-8.134.9a10.046,10.046,0,0,1-.159-2.1s8.8-8.032,9.767-.255C245.728,515.282,245.758,515.52,245.789,515.767Z" transform="translate(-187.275 -382.387)" opacity="0.1"/>
      <path id="Path_491" data-name="Path 491" d="M224.992,484.051l-.312.137-1.491.663c-1.644.756-6.629.891-8.221.9h-.419a1.92,1.92,0,0,1-1.474-.9c0-.1-.077-.584-.143-1-.055-.334-.1-.622-.1-.622a38.279,38.279,0,0,1-4.957-2.568c-1.252-.852-.937-6.909-.693-9.953.085-1.05.159-1.74.159-1.74l12.9.754,1.809.1,1.036.23.274.058s.74,5.41,1.1,5.859.126,1.968.082,2.831a5.259,5.259,0,0,1-.121,1.1,6.776,6.776,0,0,1,.406,2.368A4.722,4.722,0,0,0,224.992,484.051Z" transform="translate(-166.244 -351.429)" fill="#626696"/>
      <circle id="Ellipse_64" data-name="Ellipse 64" cx="5.286" cy="5.286" r="5.286" transform="translate(39.654 77.125)" fill="#ffd2c6"/>
      <path id="Path_492" data-name="Path 492" d="M201.494,348.78s.367,5.007-.655,6.155a45.758,45.758,0,0,1-3.689,3.319l.822,3.4,4.631.534,5.41-5.78-1.23-1.515s-.943-3.2-.164-4.8S201.494,348.78,201.494,348.78Z" transform="translate(-159.127 -264.163)" fill="#ffd2c6"/>
      <path id="Path_493" data-name="Path 493" d="M245.667,373h0l-.274.438-1.644-.452-1.148-4.294.071-1.247.337-.485s1.8.044,1.724,1.683A14.373,14.373,0,0,0,245.667,373Z" transform="translate(-192.122 -277.375)" opacity="0.1"/>
      <path id="Path_494" data-name="Path 494" d="M223.09,470.753s-1.3.29-2.8.485-3.217.293-3.924-.118c-1.187-.7-7.616-.5-9.46-.43a2.114,2.114,0,0,0-.318.014l.477-1.754h12.746l.156.754,1.809.1,1.036.23C222.986,470.463,223.09,470.753,223.09,470.753Z" transform="translate(-165.98 -351.415)" opacity="0.1"/>
      <path id="Path_495" data-name="Path 495" d="M199.524,368.15s1.8.041,1.721,1.68a15.121,15.121,0,0,0,.984,4.467l-.411.943s-.573,2.294-.123,2.869,2.091.573,1.148,5.286c0,0-.2,3.524.288,4.672s.491,3.891,1.228,5.04a27.7,27.7,0,0,1,1.724,3.812s-5.33,1.187-6.722.367-9.959-.4-9.959-.4.041-1.436,0-1.6a1.37,1.37,0,0,1,.206-1.047c.274-.389.737-1.044.491-1.617s.617-1.419.164-2.307-1-1.066-.891-1.551a2.1,2.1,0,0,0-.5-1.551c-.326-.408-2.543-4.741-2.543-4.741l-.367-2.031s-2.853-2.091-2.8-3.075a5.753,5.753,0,0,1,1.08-2.346l2.74-2.694s1.515,1.644,2.99,1.066a27.242,27.242,0,0,0,4.656-3.319s1.135-.614,1.217-1.063.778-.041.778-.041,1.025-.562,1.23-.364a3.557,3.557,0,0,0,1.1.364Z" transform="translate(-148.969 -278.238)" fill="#ffcde5"/>
      <path id="Path_496" data-name="Path 496" d="M151.457,399.3l-.874.682a11.671,11.671,0,0,0-1.1,4.467,61.209,61.209,0,0,1-1.1,6.922l-1.721,3.077a77.742,77.742,0,0,0-3.2,7.514,19.607,19.607,0,0,1-2.05,4.242s-5.7,5.119-1.721,6.029,4.1-4.075,4.1-4.075a5.383,5.383,0,0,0,1.08-1.721c.151-.7,5.19-9.611,5.19-9.611s1.765-2.4,1.395-3.667c0,0,2.294-5.4,2.294-6.75a23.977,23.977,0,0,0-.367-3.357l.367-2.828Z" transform="translate(-116.394 -300.852)" fill="#ffd2c6"/>
      <path id="Path_497" data-name="Path 497" d="M216.46,440.53a40.636,40.636,0,0,1-4.8,2.212c-.778.11,3.4-.438,3.4-.438Z" transform="translate(-169.593 -330.783)" opacity="0.1"/>
      <path id="Path_498" data-name="Path 498" d="M221.053,446.51s-5.327,1.8-7.673,1.474C213.391,447.984,219.209,449.091,221.053,446.51Z" transform="translate(-170.909 -335.125)" opacity="0.1"/>
      <path id="Path_499" data-name="Path 499" d="M222.384,448.66s-4.8,3.014-7.624,2.524c0,0,6.6,1.313,7.624.617l-2.951-.822S222.713,449.246,222.384,448.66Z" transform="translate(-171.911 -336.685)" opacity="0.1"/>
      <path id="Path_500" data-name="Path 500" d="M183.033,306.519a4.993,4.993,0,0,0-4.034.762c-.822.647-1.37,1.644-2.294,2.116a13.489,13.489,0,0,1-1.5.529,4.324,4.324,0,0,0-2.639,4.659c.145.822.526,1.562.712,2.362a9.23,9.23,0,0,1-.323,4.352,45.791,45.791,0,0,1-4.563,11.3,1.184,1.184,0,0,0-.227.759,1.1,1.1,0,0,0,.274.485c1.894,2.192,4.977,2.94,7.87,3.039a5.961,5.961,0,0,0,3.119-.518,4.714,4.714,0,0,0,1.521-1.395,7.4,7.4,0,0,0,1.42-4.771c-.079-1.37-.548-2.765-.195-4.094a1.1,1.1,0,0,1,.247-.5c.312-.318.822-.236,1.272-.288a2.806,2.806,0,0,0,2.124-2.609,29.756,29.756,0,0,0-.164-3.623,7.588,7.588,0,0,1,1.428-4.461,4.811,4.811,0,0,0,1.047-1.784,2.991,2.991,0,0,0-.765-2.192c-.671-1.063-1-2.3-2.022-3.116A5.459,5.459,0,0,0,183.033,306.519Z" transform="translate(-138.085 -233.409)" opacity="0.1"/>
      <path id="Path_501" data-name="Path 501" d="M181.868,305.319a4.985,4.985,0,0,0-4.034.765c-.822.644-1.37,1.644-2.294,2.116a13.256,13.256,0,0,1-1.5.526,4.327,4.327,0,0,0-2.642,4.659c.145.822.526,1.562.715,2.365a9.255,9.255,0,0,1-.323,4.349,45.817,45.817,0,0,1-4.555,11.3,1.159,1.159,0,0,0-.225.756,1.055,1.055,0,0,0,.274.485c1.9,2.192,4.977,2.94,7.871,3.039a5.959,5.959,0,0,0,3.119-.515,4.723,4.723,0,0,0,1.521-1.4A7.4,7.4,0,0,0,181.21,329c-.079-1.37-.548-2.765-.192-4.1a1.1,1.1,0,0,1,.244-.5c.312-.318.822-.236,1.274-.274a2.8,2.8,0,0,0,2.121-2.612,29.21,29.21,0,0,0-.164-3.623,7.588,7.588,0,0,1,1.425-4.475,4.793,4.793,0,0,0,1.044-1.787,2.993,2.993,0,0,0-.762-2.192c-.671-1.063-1-2.3-2.025-3.113A5.43,5.43,0,0,0,181.868,305.319Z" transform="translate(-137.249 -232.538)" fill="#985c7e"/>
      <path id="Path_502" data-name="Path 502" d="M214.76,492.62s1.052,4.916,2.8,6.256Z" transform="translate(-171.911 -368.598)" opacity="0.1"/>
      <g id="Group_27" data-name="Group 27" transform="translate(29.758 77.651)" opacity="0.1">
        <path id="Path_503" data-name="Path 503" d="M183.684,337.553c-.055-.192-.118-.384-.184-.573C183.555,337.172,183.618,337.364,183.684,337.553Z" transform="translate(-178.975 -333.261)"/>
        <path id="Path_504" data-name="Path 504" d="M186.649,323.41a1.78,1.78,0,0,1-.022.463,4.859,4.859,0,0,1-1.047,1.787,7.566,7.566,0,0,0-1.428,4.459,30.9,30.9,0,0,1,.162,3.623,2.809,2.809,0,0,1-2.121,2.612c-.444.052-.962-.033-1.272.274a1.1,1.1,0,0,0-.247.5c-.348,1.332.115,2.724.192,4.1a7.4,7.4,0,0,1-1.409,4.76,4.752,4.752,0,0,1-1.521,1.4,6.128,6.128,0,0,1-3.121.515c-2.845-.1-5.87-.822-7.772-2.935a.751.751,0,0,0-.047.395,1.055,1.055,0,0,0,.274.485c1.9,2.192,4.977,2.94,7.87,3.039a5.959,5.959,0,0,0,3.119-.515,4.751,4.751,0,0,0,1.521-1.4,7.4,7.4,0,0,0,1.411-4.76c-.079-1.37-.548-2.765-.192-4.1a1.1,1.1,0,0,1,.244-.5c.312-.318.822-.236,1.274-.274a2.8,2.8,0,0,0,2.121-2.612,29.222,29.222,0,0,0-.164-3.623,7.588,7.588,0,0,1,1.425-4.459,4.792,4.792,0,0,0,1.044-1.787,2.03,2.03,0,0,0-.3-1.447Z" transform="translate(-166.989 -323.41)"/>
      </g>
      <path id="Path_505" data-name="Path 505" d="M557.7,807.434s-10.427-.63-9.2,6.676a1.782,1.782,0,0,0,.926,1.877s.019-.548,1.069-.356a4.791,4.791,0,0,0,1.132.055,2.364,2.364,0,0,0,1.387-.573h0s2.93-1.211,4.07-6c0,0,.844-1.044.822-1.313l-1.759.751a3.153,3.153,0,0,1,.126,2.324s-.055-2.277-.395-2.222c-.069,0-.912.439-.912.439s1.033,2.211.252,3.818c0,0,.3-2.724-.575-3.656l-1.239.721s1.208,2.286.389,4.149c0,0,.211-2.858-.649-3.971l-1.124.874s1.137,2.25.444,3.8c0,0-.09-3.327-.688-3.563a6.748,6.748,0,0,0-1.129,1.219s.776,1.644.293,2.5c0,0-.3-2.217-.548-2.225a7.379,7.379,0,0,0-1.08,2.466,5.339,5.339,0,0,1,.841-2.617,2.935,2.935,0,0,0-1.5.776s.151-1.039,1.737-1.129a7.5,7.5,0,0,1,1.025-1.181,6.429,6.429,0,0,0-2.535.293,2.864,2.864,0,0,1,2.826-.548l1.1-.9a9.453,9.453,0,0,0-2.96.03s1.014-.869,3.258-.236l1.206-.723a10.956,10.956,0,0,0-2.825-.244,4.328,4.328,0,0,1,3.179.052l.863-.389s-1.3-.255-1.677-.293-.4-.145-.4-.145a4.485,4.485,0,0,1,2.436.274A11.117,11.117,0,0,0,557.7,807.434Z" transform="translate(-414.121 -597.13)" fill="#f2f2f2"/>
      <ellipse id="Ellipse_65" data-name="Ellipse 65" cx="7.38" cy="1.247" rx="7.38" ry="1.247" transform="translate(129.016 218.249)" fill="#fff" opacity="0.1"/>
      <path id="Path_506" data-name="Path 506" d="M855.815,774.834s-10.414-.628-9.2,6.678a1.782,1.782,0,0,0,.926,1.877s.019-.548,1.069-.359a4.824,4.824,0,0,0,1.135.055,2.341,2.341,0,0,0,1.384-.573h0s2.932-1.209,4.069-6c0,0,.844-1.047.822-1.315l-1.77.767a3.162,3.162,0,0,1,.129,2.324s-.058-2.28-.395-2.225c-.069,0-.915.438-.915.438s1.033,2.212.255,3.82c0,0,.3-2.724-.578-3.659l-1.239.723s1.209,2.283.389,4.146c0,0,.211-2.858-.65-3.971l-1.121.869s1.135,2.253.441,3.8c0,0-.09-3.33-.685-3.579a6.866,6.866,0,0,0-1.132,1.222s.778,1.644.3,2.494c0,0-.3-2.214-.548-2.225a7.376,7.376,0,0,0-1.08,2.466,5.331,5.331,0,0,1,.844-2.617,2.949,2.949,0,0,0-1.5.776s.154-1.036,1.74-1.129a7.486,7.486,0,0,1,1.025-1.181,6.443,6.443,0,0,0-2.538.293,2.846,2.846,0,0,1,2.825-.534l1.1-.9a9.458,9.458,0,0,0-2.96.03s1.014-.866,3.258-.236l1.206-.721a10.852,10.852,0,0,0-2.828-.244,4.341,4.341,0,0,1,3.182.049l.863-.386s-1.3-.255-1.68-.3-.4-.145-.4-.145a4.494,4.494,0,0,1,2.439.274A11.137,11.137,0,0,0,855.815,774.834Z" transform="translate(-630.541 -573.464)" fill="#fff"/>
      <ellipse id="Ellipse_66" data-name="Ellipse 66" cx="7.38" cy="1.247" rx="7.38" ry="1.247" transform="translate(210.711 209.315)" fill="#fff" opacity="0.1"/>
      <ellipse id="Ellipse_67" data-name="Ellipse 67" cx="21.252" cy="3.486" rx="21.252" ry="3.486" transform="translate(211.89 117.165)" fill="#0f2337" opacity="0.1"/>
      <path id="Path_507" data-name="Path 507" d="M852.205,126.7a11.408,11.408,0,0,0,0-5.826v-2.74a9.6,9.6,0,0,0-3.426-8.821l-2.932-2.584a11.077,11.077,0,0,0-2.118-1.5,2.149,2.149,0,0,0-.274-.041l-.088-.049a8.828,8.828,0,0,1-.641-1.351,1.252,1.252,0,0,0,1.044-.356,1.373,1.373,0,0,0,.247-.411h0c.17-.381.2-.841.343-1.247a2.909,2.909,0,0,1,.548-.9c-.03.049-.06.1-.088.145.414-.515.956-.959,1.343-1.5a3.294,3.294,0,0,0,.214-.334l-.058.069a7.531,7.531,0,0,0,.86-2.927,2.641,2.641,0,0,0,.016-1.047,3.492,3.492,0,0,0-.293-.663c-.636-1.315-.622-2.965-1.644-4.015a4.915,4.915,0,0,0-3.014-1.162,7.779,7.779,0,0,1-3.176-.784,3.434,3.434,0,0,0-.86-.474.71.71,0,0,0-.847.315.549.549,0,0,1-.112.227.364.364,0,0,1-.326.019l-1.453-.389.016.074h-.036l.052.23a.128.128,0,0,1,.137.079l-.233.359a3.6,3.6,0,0,1-1.313-.274.6.6,0,0,0,0,.071h-.019c-.027.411.438.677.581,1.063a.805.805,0,0,1,0,.521,1.183,1.183,0,0,1-.274.417c-.518.51-1.176.408-1.77.732a.377.377,0,0,0-.216.238.183.183,0,0,0-.019.132.307.307,0,0,0,.121.151,2.739,2.739,0,0,0,.565.351l-.17.164a6.506,6.506,0,0,0,2.247,10.608c.022.112.038.227.055.351v.033l.016.156-1.959.822a1.559,1.559,0,0,1-1.4-.9c-.455-.943-2.063,0-2.063,0s-4.914-.37-6.73.534c0,0-2.932-1.23-3.343-1.313s-1.033-.411-1.324-.329-.661-.548-.866-.493-.274-.408-.948-.573-.91.041-1.644-.7-6.772-3.65-6.772-3.65l-2.724-2.217-2.891-2.3-.052.1c-.016-.069-.036-.14-.055-.214a27.388,27.388,0,0,0-1.071-3.371c-.186-.444-.274-1.006-.518-.71-.153.178-.417-.211-.822-.474a.682.682,0,0,0-1.02.3h0c-2.25,3.527-3.056,3.782-1.751,5.073,1.159,1.151,1.932,2.168,2.88,2.466l.112.036a.159.159,0,0,1-.063,0l5.481,6.563s3.963,3.447,6.689,4.555,2.518,1.436,2.518,1.436,8.257,4.185,9.537,4.111,1.033,8.575.5,9.97-1.4,11.488-1.4,11.488-.822,2.132.041,3.609a22.775,22.775,0,0,1,.019,3.505,12.028,12.028,0,0,0-2,5.152,2.968,2.968,0,0,1-.033.312.711.711,0,0,1-.194.159s.071-.016.183-.055a10.408,10.408,0,0,1-.548,2.466,10.047,10.047,0,0,0-.674,3.563v6.52l-.545,4.042s-.66,3.061,0,3.774a1.734,1.734,0,0,1,.362,1.258,2.33,2.33,0,0,0,.422,1.466,1.112,1.112,0,0,1,.274.943c-.219.71.323,8.257.323,8.257a8.39,8.39,0,0,1-.378,2.192c-.219.112.367,2.39.367,2.39s-2.231,1.861-1.663,2.847l.57.874-.151.148-.093.093a.869.869,0,0,0-.567-.107,21.279,21.279,0,0,1-2.244,2,24.327,24.327,0,0,1-3.743,1.779l-2.159.175h-.041s-1.033-.1-.455,1.5,5.755,1.1,5.755,1.1l3.014-.477a58.007,58.007,0,0,0,6.936-.315c.647-.145.8-.488.759-.839h0l-.016-.016a2.153,2.153,0,0,0-.441-.907.428.428,0,0,0-.038-.047l.1-1.1c2.288-1.318-.647-3.913-.647-3.913a26.16,26.16,0,0,1,1.521-2.9c.518-.7.515-11.159.515-11.159s.274-3.776-.441-4.659a1.576,1.576,0,0,1,.77-1.422c.51-.348,2.05-5.141,3.258-9.12l.762,4.689s-.164,2.242.332,2.9a1.115,1.115,0,0,1,.2.871,3.878,3.878,0,0,0,.112,1.9,1.227,1.227,0,0,0,.4.674c.441.219.469,1,.633,1.165s1.184-.233,1.239.367a13.44,13.44,0,0,1,0,1.587l.332,9.737a6.369,6.369,0,0,0-.66,2.954,3.821,3.821,0,0,1-.4,1.743.891.891,0,0,0,.082,1.047l.1.11-.408.315a.891.891,0,0,0-.252,1.1.88.88,0,0,0-.255.945,1.087,1.087,0,0,0,.071.153,1.543,1.543,0,0,0-.822.406,6.743,6.743,0,0,1-1.453,1.463,27.388,27.388,0,0,0-2.318,1.984,3.326,3.326,0,0,1-1.354,1.1,2.193,2.193,0,0,1-.408.121c-1.1.222-.743,1.357.137,1.535s3.8,1.08,6.07.548a2.121,2.121,0,0,0,1.663-.23,22.9,22.9,0,0,1,3.242-1.1s1.239,0,1.4-.493a1.889,1.889,0,0,0,.071-.48l.036-.033-.033-.03a6.464,6.464,0,0,0-.085-1.1c-.03-.186-.066-.356-.1-.491-.107-.411-.3-.94-.386-1.165a.4.4,0,0,0,.038-.058c.471-.8-.312-2.74-.312-2.74a5.236,5.236,0,0,1,.935-1.1c.441-.326,1.6-8.86,1.6-8.86a7.682,7.682,0,0,1,.548-3.173c.6-.981-.822-6.947-.822-6.947s-.606-1.37-.384-1.861a6.516,6.516,0,0,0-.222-2.3v-2.154a2.359,2.359,0,0,0-.126-.756,3.6,3.6,0,0,1-.148-2.192c.386-.984,1.266-7.057,1.266-7.057a8.132,8.132,0,0,1,.318-4.809,4.59,4.59,0,0,1,.274-.5c.745-1.173.523-3.256.156-4.933-.057-.26-.118-.51-.178-.748-.027-.1-.055-.2-.079-.293l.118-.049a3.7,3.7,0,0,1,.036-.433,3.014,3.014,0,0,0,1.987-1.37,22.169,22.169,0,0,1,4.749-4.02,4.118,4.118,0,0,0,2.4-2.913c-.332-.576.589-2.913.589-2.913ZM843.436,105.224Zm1.515,25.253-2.384,2.765a.053.053,0,0,1,0-.016c-.619-.861.578-2.79.578-2.79l1.97-4.415a2.67,2.67,0,0,1-.258,1.3c-.548.74.989,1.97.989,1.97-.825-.008-.907,1.181-.907,1.181Z" transform="translate(-594.32 -74.791)" fill="url(#linear-gradient)"/>
      <path id="Path_508" data-name="Path 508" d="M804.594,96.638l-1.3,2.524a5.028,5.028,0,0,1-1.211-.252,4.6,4.6,0,0,1-2.844-2.466,3.577,3.577,0,0,1,1.658-4.719c.9-.488,1.727-1.05,2.4.548a27.786,27.786,0,0,1,1.058,3.349C804.5,96.229,804.594,96.638,804.594,96.638Z" transform="translate(-595.955 -77.196)" fill="#cc818c"/>
      <path id="Path_509" data-name="Path 509" d="M943.471,137.549l-2.077,3.1s-9.827,4.686-7.947-.822a12.417,12.417,0,0,0,.776-5.429v-.033a4.286,4.286,0,0,0-.77-2.192s9.578-4.9,8.153-1.548a4.659,4.659,0,0,0-.34,2.206,7.516,7.516,0,0,0,1.033,3.061A10.141,10.141,0,0,0,943.471,137.549Z" transform="translate(-693.473 -104.954)" fill="#cc818c"/>
      <path id="Path_510" data-name="Path 510" d="M901.774,306.035s1.414,5.925.822,6.9a7.786,7.786,0,0,0-.548,3.152s-1.143,8.482-1.578,8.808a5.206,5.206,0,0,0-.924,1.1s.776,1.918.31,2.713a.644.644,0,0,1-.31.274c-.729.307-3.42-1.055-4.952-1.891a.843.843,0,0,1-.406-.485.863.863,0,0,1,.249-.937.893.893,0,0,1,.249-1.1l.4-.312-.093-.11a.891.891,0,0,1-.082-1.041,3.842,3.842,0,0,0,.392-1.729,6.319,6.319,0,0,1,.652-2.935l-.326-9.676a13.9,13.9,0,0,0,0-1.576c-.055-.6-1.061-.2-1.222-.367s-.192-.937-.625-1.156a1.217,1.217,0,0,1-.395-.669,3.9,3.9,0,0,1-.112-1.888,1.113,1.113,0,0,0-.2-.866c-.491-.652-.326-2.88-.326-2.88L892,294.706c-1.195,3.954-2.716,8.717-3.217,9.063a1.568,1.568,0,0,0-.762,1.414c.707.869.436,4.62.436,4.62s0,10.381-.51,11.088a27.027,27.027,0,0,0-1.5,2.88s2.913,2.592.622,3.9l-.025.014c-2.338,1.3-7.174-2.335-7.174-2.335l.5-.5.148-.148-.548-.871c-.562-.978,1.644-2.825,1.644-2.825s-.586-2.283-.37-2.392a8.339,8.339,0,0,0,.37-2.176s-.534-7.5-.318-8.2a1.1,1.1,0,0,0-.258-.937,2.34,2.34,0,0,1-.417-1.455,1.732,1.732,0,0,0-.356-1.25c-.652-.707,0-3.752,0-3.752l.548-4.023V290.4a10.139,10.139,0,0,1,.658-3.6,10.85,10.85,0,0,0,.592-2.894,12.149,12.149,0,0,1,2.031-5.207c.395-.6.688-.965.688-.965l17.393-.682s.274.776.548,1.853c.06.236.12.482.175.743.364,1.672.584,3.741-.154,4.908a3.863,3.863,0,0,0-.274.491,8.12,8.12,0,0,0-.315,4.779s-.869,6.029-1.25,7.013a3.52,3.52,0,0,0,.148,2.165,2.407,2.407,0,0,1,.123.751v2.14a6.576,6.576,0,0,1,.219,2.283C901.185,304.675,901.774,306.035,901.774,306.035Z" transform="translate(-654.752 -212.111)" fill="#0f2337"/>
      <path id="Path_511" data-name="Path 511" d="M957.885,292a4.487,4.487,0,0,0-.274.491l-.978-.055c.093-.5-.573-5.231-.573-5.231l1.973-.112C958.4,288.773,958.622,290.844,957.885,292Z" transform="translate(-710.063 -219.392)" opacity="0.1"/>
      <path id="Path_512" data-name="Path 512" d="M958.475,291.448a3.85,3.85,0,0,0-.274.491l-.981-.055c.1-.5-.57-5.234-.57-5.234l1.97-.11C958.993,288.212,959.212,290.281,958.475,291.448Z" transform="translate(-710.491 -218.993)" fill="#444053"/>
      <path id="Path_513" data-name="Path 513" d="M958.475,291.448a3.85,3.85,0,0,0-.274.491l-.981-.055c.1-.5-.57-5.234-.57-5.234l1.97-.11C958.993,288.212,959.212,290.281,958.475,291.448Z" transform="translate(-710.491 -218.993)" opacity="0.05"/>
      <path id="Path_514" data-name="Path 514" d="M937.787,459.876a.644.644,0,0,1-.31.274c-.729.307-3.42-1.055-4.952-1.891a.844.844,0,0,1-.406-.485c.871-.159,1.444.822,1.444.822a1.285,1.285,0,0,1,1.792.436c.748,1.1,2.351.636,2.351.636S937.741,459.741,937.787,459.876Z" transform="translate(-692.684 -343.289)" opacity="0.1"/>
      <path id="Path_515" data-name="Path 515" d="M920.012,463.63c-.164.488-1.387.488-1.387.488a26.034,26.034,0,0,0-3.168,1.115,2.166,2.166,0,0,1-1.644.23c-2.244.518-5.125-.378-5.993-.548s-1.211-1.3-.137-1.521a2.156,2.156,0,0,0,.4-.123,3.272,3.272,0,0,0,1.337-1.1,27.73,27.73,0,0,1,2.288-1.973,6.623,6.623,0,0,0,1.436-1.452c1.277-1.129,2.192.422,2.192.422a1.285,1.285,0,0,1,1.792.436c.748,1.1,2.351.636,2.351.636s.274.734.422,1.263c.033.134.068.3.1.491A4.288,4.288,0,0,1,920.012,463.63Z" transform="translate(-674.456 -343.711)" fill="#ff748f"/>
      <circle id="Ellipse_68" data-name="Ellipse 68" cx="0.151" cy="0.151" r="0.151" transform="translate(241.667 116.181)" fill="#575988"/>
      <circle id="Ellipse_69" data-name="Ellipse 69" cx="0.151" cy="0.151" r="0.151" transform="translate(240.39 117.376)" fill="#575988"/>
      <circle id="Ellipse_70" data-name="Ellipse 70" cx="0.151" cy="0.151" r="0.151" transform="translate(239.091 118.45)" fill="#575988"/>
      <circle id="Ellipse_71" data-name="Ellipse 71" cx="0.151" cy="0.151" r="0.151" transform="translate(239.763 117.971)" fill="#575988"/>
      <circle id="Ellipse_72" data-name="Ellipse 72" cx="0.151" cy="0.151" r="0.151" transform="translate(241.056 116.74)" fill="#575988"/>
      <path id="Path_516" data-name="Path 516" d="M920.012,473.323c-.164.488-1.387.488-1.387.488a26.061,26.061,0,0,0-3.168,1.115,2.166,2.166,0,0,1-1.644.23c-2.244.518-5.125-.378-5.993-.548s-1.211-1.3-.137-1.521a2.153,2.153,0,0,0,.4-.123,10.418,10.418,0,0,0,2.94.548c2.214.093,3.968,0,3.968,0l2.242-.721a3.747,3.747,0,0,1,1.387-.5,3.564,3.564,0,0,0,1.37-.6A4.286,4.286,0,0,1,920.012,473.323Z" transform="translate(-674.456 -353.404)" fill="#dce6f2"/>
      <path id="Path_517" data-name="Path 517" d="M933.1,477.379a1.847,1.847,0,0,1-.373-.038l.033-.159a2.354,2.354,0,0,0,1.343-.186,6.435,6.435,0,0,0,.595-.274,6.913,6.913,0,0,1,.707-.31l.222-.077c.123-.041.247-.082.365-.134.069-.027.134-.06.2-.09a2.234,2.234,0,0,1,.5-.192,2.363,2.363,0,0,1,.274-.036,2.323,2.323,0,0,0,.247-.03,2.144,2.144,0,0,0,.471-.175,2.288,2.288,0,0,1,.507-.186l.121-.022a.577.577,0,0,0,.351-.129l.118.112a.732.732,0,0,1-.444.178l-.112.019a2.139,2.139,0,0,0-.471.175,2.29,2.29,0,0,1-.507.186,1.8,1.8,0,0,1-.274.033,2.412,2.412,0,0,0-.255.033,2.069,2.069,0,0,0-.466.181l-.206.093c-.126.052-.252.1-.378.137l-.217.077c-.236.088-.469.2-.7.3s-.4.189-.6.274A2.9,2.9,0,0,1,933.1,477.379Z" transform="translate(-693.126 -356.054)" fill="#575988" opacity="0.5"/>
      <path id="Path_518" data-name="Path 518" d="M936,379.373a3.953,3.953,0,0,1,3.058-1.617,10.468,10.468,0,0,0,2.757-.217,6.844,6.844,0,0,1-2.091.822A35.327,35.327,0,0,0,936,379.373Z" transform="translate(-695.5 -285.055)" opacity="0.1"/>
      <path id="Path_519" data-name="Path 519" d="M938.38,383.457a4.542,4.542,0,0,1,1.6-.734c.584-.027,1.1-.082,1.1-.082a3.1,3.1,0,0,1-.9.436C939.684,383.213,938.38,383.457,938.38,383.457Z" transform="translate(-697.228 -288.758)" opacity="0.1"/>
      <path id="Path_520" data-name="Path 520" d="M939.17,387.4s1.537.123,1.551.532" transform="translate(-697.802 -292.213)" opacity="0.1"/>
      <path id="Path_521" data-name="Path 521" d="M887,296.165a6.124,6.124,0,0,0,1.546-2,1.4,1.4,0,0,1,.6-.877s.885.353.1,1.436A4.39,4.39,0,0,1,887,296.165Z" transform="translate(-659.928 -223.893)" opacity="0.1"/>
      <path id="Path_522" data-name="Path 522" d="M942.223,130.569c-.313.74-.589.795-.529,1.513a5.446,5.446,0,0,1-1.244.978c-.973.578-2.031,1.707-3.242,1.707a6.426,6.426,0,0,1-2.368-.447,4.285,4.285,0,0,0-.77-2.192S943.642,127.218,942.223,130.569Z" transform="translate(-694.099 -104.915)" opacity="0.1"/>
      <path id="Path_523" data-name="Path 523" d="M934.832,106.981a6.481,6.481,0,1,1-6.481-6.481A6.481,6.481,0,0,1,934.832,106.981Z" transform="translate(-685.242 -83.936)" fill="#cc818c"/>
      <path id="Path_524" data-name="Path 524" d="M943.471,150.651l-2.077,3.1s-9.827,4.686-7.947-.822a12.417,12.417,0,0,0,.776-5.429h.016a5.144,5.144,0,0,1,.195,1.25c.03.844.052,1.918,2.151,2.269a5.863,5.863,0,0,0,5.708-2.031A10.131,10.131,0,0,0,943.471,150.651Z" transform="translate(-693.473 -118.056)" opacity="0.1"/>
      <path id="Path_525" data-name="Path 525" d="M812.793,108.234l-1.3,2.524a5.029,5.029,0,0,1-1.211-.252l-.112-.134c.532.2,2.324-3.182,2.324-3.182l.058.047C812.7,107.826,812.793,108.234,812.793,108.234Z" transform="translate(-604.153 -88.793)" opacity="0.1"/>
      <path id="Path_526" data-name="Path 526" d="M913.654,278.937c-4.2,1.822-18.714.274-18.714.274a1.835,1.835,0,0,0,.074-.474c.395-.6.688-.965.688-.965l17.394-.682S913.378,277.86,913.654,278.937Z" transform="translate(-665.692 -212.133)" opacity="0.1"/>
      <path id="Path_527" data-name="Path 527" d="M845.413,118.823l-1.935.822a1.546,1.546,0,0,1-1.387-.9c-.447-.937-2.036,0-2.036,0s-4.853-.367-6.646.532c0,0-2.894-1.225-3.288-1.3s-1.02-.408-1.3-.326-.652-.532-.855-.491-.288-.408-.94-.57-.9.041-1.631-.693-6.684-3.628-6.684-3.628l-2.691-2.192-2.853-2.283s-1.795,3.382-2.324,3.179l5.421,6.522s3.913,3.426,6.6,4.524,2.486,1.428,2.486,1.428,8.155,4.157,9.419,4.078,1.019,8.52.488,9.907-1.384,11.414-1.384,11.414-.822,2.118.038,3.587a20.178,20.178,0,0,1,0,3.546s14.609,1.562,18.753-.274c0,0,.611-6.766,0-7.624s.573-2.771.573-2.771l2.59-5.843,6.352-6.4a9.584,9.584,0,0,0-3.382-8.769l-2.9-2.568a10.738,10.738,0,0,0-2.091-1.488c-.471-.088-.3,0-.3,0a5.863,5.863,0,0,1-5.755,2.1c-2.1-.354-2.121-1.422-2.151-2.269a5.146,5.146,0,0,0-.192-1.241Z" transform="translate(-604.64 -89.228)" fill="#67647e"/>
      <path id="Path_528" data-name="Path 528" d="M937.542,228.13s-8.969.367-10.762,3.182a8.9,8.9,0,0,1,4.4-.776C933.258,230.857,937.542,228.13,937.542,228.13Z" transform="translate(-688.807 -176.59)" opacity="0.1"/>
      <path id="Path_529" data-name="Path 529" d="M929.9,258.606s4.24.274,5.138-.611.9-1.425.9-1.425Z" transform="translate(-691.072 -197.236)" opacity="0.1"/>
      <path id="Path_530" data-name="Path 530" d="M965.5,196.6s-3.587,4.239.776,6.073Z" transform="translate(-715.905 -153.701)" opacity="0.1"/>
      <path id="Path_531" data-name="Path 531" d="M891.67,166.7s1.3,2.661,1.957,2.839Z" transform="translate(-663.319 -131.994)" opacity="0.1"/>
      <path id="Path_532" data-name="Path 532" d="M875.61,162.53a48.828,48.828,0,0,0,3.872,3.22S876.1,162.53,875.61,162.53Z" transform="translate(-651.66 -128.967)" opacity="0.1"/>
      <path id="Path_533" data-name="Path 533" d="M918.325,152.27s-3.14,4.686-1.1,7.542A10.017,10.017,0,0,1,918.325,152.27Z" transform="translate(-681.371 -121.519)" opacity="0.1"/>
      <path id="Path_534" data-name="Path 534" d="M925,274.929l-.959.9-.134.126-1.11,1.05c-.082.06-.159.121-.239.175-4.522,3.242-5.429-1.683-5.429-1.683s-2,1.3-2.283.244,4.659-2.568,5.38-2.486a.959.959,0,0,0,.2,0,3.1,3.1,0,0,0,1.014-.359c.074-.038.148-.077.219-.118a8.153,8.153,0,0,0,.732-.46Z" transform="translate(-680.137 -208.67)" fill="#cc818c"/>
      <path id="Path_535" data-name="Path 535" d="M940.325,106.979a6.481,6.481,0,0,1-3.169,5.572,3.771,3.771,0,0,1-.235-.472c-.233-.548-.375-1.121-.608-1.663a5.189,5.189,0,0,0-1.1-1.587.693.693,0,0,0-.274-.2.787.787,0,0,0-.595.164,2.69,2.69,0,0,1-.9.4.962.962,0,0,1-.907-.274,1.359,1.359,0,0,1-.143-1.132,14.058,14.058,0,0,0,.422-2.529,2.5,2.5,0,0,0-1.069-2.209,9.52,9.52,0,0,0-2.206-.48,2.372,2.372,0,0,1-.332-.115,6.484,6.484,0,0,1,11.123,4.527Z" transform="translate(-690.571 -83.934)" opacity="0.1"/>
      <path id="Path_536" data-name="Path 536" d="M927,94.736c-.118.063-.247.175-.211.307a.3.3,0,0,0,.118.151,2.806,2.806,0,0,0,1.025.526,9.009,9.009,0,0,1,2.209.48,2.49,2.49,0,0,1,1.069,2.206,14.775,14.775,0,0,1-.425,2.529,1.37,1.37,0,0,0,.145,1.135.967.967,0,0,0,.907.274,2.671,2.671,0,0,0,.9-.395.781.781,0,0,1,.595-.164.723.723,0,0,1,.29.2,5.146,5.146,0,0,1,1.1,1.589c.236.548.378,1.118.608,1.663a2.682,2.682,0,0,0,1.1,1.354,1.37,1.37,0,0,0,1.644-.173c.378-.417.367-1.047.548-1.581.323-.924,1.228-1.5,1.792-2.3a7.074,7.074,0,0,0,.984-3.113,2.619,2.619,0,0,0,.016-1.041,3.773,3.773,0,0,0-.288-.658c-.63-1.3-.616-2.946-1.622-3.99a4.849,4.849,0,0,0-2.982-1.151,7.663,7.663,0,0,1-3.138-.781,3.454,3.454,0,0,0-.85-.471.7.7,0,0,0-.836.312.548.548,0,0,1-.112.227.356.356,0,0,1-.318.019l-1.436-.386.164.723a3.584,3.584,0,0,1-1.524-.274c-.027.408.433.674.575,1.055a.976.976,0,0,1-.274.995C928.244,94.517,927.591,94.415,927,94.736Z" transform="translate(-688.813 -77.249)" fill="#585268"/>
      <path id="Path_537" data-name="Path 537" d="M887.127,453.543l-.058.652-.025.014c-2.338,1.3-7.174-2.335-7.174-2.335l.5-.5a.877.877,0,0,1,.219.68l.989.055,1.181,1.277a22.216,22.216,0,0,0,4.064.162Z" transform="translate(-654.752 -338.653)" opacity="0.1"/>
      <path id="Path_538" data-name="Path 538" d="M863.289,457.049a57.02,57.02,0,0,1-6.851.312l-2.976.474s-5.122.491-5.692-1.1.447-1.494.447-1.494h.038l2.132-.173a24,24,0,0,0,3.7-1.768,21.34,21.34,0,0,0,2.214-1.984s.891-.173.874.858l.989.055,1.181,1.274a22.165,22.165,0,0,0,4.064.164h.3l-.137,1.576.038.049C863.8,455.541,864.648,456.744,863.289,457.049Z" transform="translate(-631.323 -338.609)" fill="#ff748f"/>
      <circle id="Ellipse_73" data-name="Ellipse 73" cx="0.151" cy="0.151" r="0.151" transform="translate(226.296 114.329)" fill="#575988"/>
      <circle id="Ellipse_74" data-name="Ellipse 74" cx="0.151" cy="0.151" r="0.151" transform="translate(222.465 115.992)" fill="#575988"/>
      <circle id="Ellipse_75" data-name="Ellipse 75" cx="0.151" cy="0.151" r="0.151" transform="translate(220.492 116.592)" fill="#575988"/>
      <circle id="Ellipse_76" data-name="Ellipse 76" cx="0.151" cy="0.151" r="0.151" transform="translate(223.471 115.674)" fill="#575988"/>
      <circle id="Ellipse_77" data-name="Ellipse 77" cx="0.151" cy="0.151" r="0.151" transform="translate(221.476 116.294)" fill="#575988"/>
      <circle id="Ellipse_78" data-name="Ellipse 78" cx="0.151" cy="0.151" r="0.151" transform="translate(224.487 115.203)" fill="#575988"/>
      <circle id="Ellipse_79" data-name="Ellipse 79" cx="0.151" cy="0.151" r="0.151" transform="translate(225.493 114.767)" fill="#575988"/>
      <path id="Path_539" data-name="Path 539" d="M863.289,467.47a57.02,57.02,0,0,1-6.851.312l-2.976.474s-5.122.49-5.692-1.1.447-1.493.447-1.493h.038a2.74,2.74,0,0,0,2.269.926l3.683.151,3.818-.274s3.562-.11,4.157-.23a8.635,8.635,0,0,0,1.425-.523C863.8,465.963,864.648,467.166,863.289,467.47Z" transform="translate(-631.323 -349.031)" fill="#dce6f2"/>
      <path id="Path_540" data-name="Path 540" d="M868.4,470.151a2.4,2.4,0,0,1-.6-.074l.055-.148a2.957,2.957,0,0,0,1.518-.069c.181-.047.359-.1.548-.153a6.215,6.215,0,0,1,2.645-.3h.118a25.034,25.034,0,0,0,4.892-.219,1.82,1.82,0,0,0,1.047-.419l.118.115a1.985,1.985,0,0,1-1.137.466,25.4,25.4,0,0,1-4.933.219h-.115a8,8,0,0,0-1.62.047,8.416,8.416,0,0,0-.973.244c-.181.055-.362.11-.548.156a4.072,4.072,0,0,1-1.011.134Z" transform="translate(-645.99 -351.284)" fill="#575988" opacity="0.5"/>
      <path id="Path_541" data-name="Path 541" d="M943.073,274.929l-.959.9-2.384-3.05a8.136,8.136,0,0,0,.732-.46Z" transform="translate(-698.208 -208.67)" opacity="0.1"/>
      <path id="Path_542" data-name="Path 542" d="M953.438,190.5l1.875,2.609v2.74a11.413,11.413,0,0,1,0,5.791l.1,2.527s-.91,2.324-.584,2.894a4.1,4.1,0,0,1-2.365,2.9,22.2,22.2,0,0,0-4.689,3.974,3.191,3.191,0,0,1-3.464,1.387l-2.406,1.019-2.771-3.546,3.749-2.039s1.3-1.754,2.08-1.672l3.179-3.7s.082-1.181.9-1.181c0,0-1.507-1.222-.978-1.957s.082-4,.082-4Z" transform="translate(-697.772 -149.272)" fill="#67647e"/>
      <path id="Path_543" data-name="Path 543" d="M978.55,233.691s4.281-.079,4.809,1.019S979.854,233.08,978.55,233.691Z" transform="translate(-726.39 -180.561)" opacity="0.1"/>
      <path id="Path_544" data-name="Path 544" d="M938.722,277.267a1.12,1.12,0,0,1-.017.214,1.441,1.441,0,0,1-1.348,1.225h-.077a1.439,1.439,0,0,1-1.439-1.439,1.474,1.474,0,0,1,.08-.469,2.481,2.481,0,0,1-.7-2.02,3.1,3.1,0,0,0,1.014-.359,6.742,6.742,0,0,0,.71,1.45,1.366,1.366,0,0,1,.334-.041,1.439,1.439,0,0,1,1.441,1.439Z" transform="translate(-694.934 -210.195)" opacity="0.1"/>
      <path id="Path_545" data-name="Path 545" d="M936.8,273.26s-.965.217-.965.392-.216,1.768.841,2.42.954-.91.954-.91S936.714,273.762,936.8,273.26Z" transform="translate(-695.365 -209.352)" fill="#575988"/>
      <circle id="Ellipse_80" data-name="Ellipse 80" cx="1.441" cy="1.441" r="1.441" transform="translate(241.07 65.631)" fill="#e4aab4"/>
      <circle id="Ellipse_81" data-name="Ellipse 81" cx="1.236" cy="1.236" r="1.236" transform="translate(241.275 65.837)" fill="#dce6f2"/>
      <path id="Path_546" data-name="Path 546" d="M922.8,286.84a7.139,7.139,0,0,0,6.958.926v1.222s-2.609,1.792-4.974.707S922.8,286.84,922.8,286.84Z" transform="translate(-685.901 -219.211)" opacity="0.1"/>
      <path id="Path_547" data-name="Path 547" d="M922.8,285.65a7.132,7.132,0,0,0,6.958.918v1.222s-2.609,1.792-4.974.707S922.8,285.65,922.8,285.65Z" transform="translate(-685.901 -218.347)" opacity="0.1"/>
      <path id="Path_548" data-name="Path 548" d="M922.8,285.65a7.132,7.132,0,0,0,6.958.918v1.222s-2.609,1.792-4.974.707S922.8,285.65,922.8,285.65Z" transform="translate(-685.901 -218.347)" fill="#444053"/>
      <path id="Path_549" data-name="Path 549" d="M923.1,285.65a7.139,7.139,0,0,0,6.958.926V287.8s-2.617,1.784-4.974.707S923.1,285.65,923.1,285.65Z" transform="translate(-686.122 -218.347)" opacity="0.05"/>
      <path id="Path_550" data-name="Path 550" d="M888,451.32s4.078.748,4.675.91-.164.449-.164.449S888.775,452.013,888,451.32Z" transform="translate(-660.654 -338.616)" opacity="0.1"/>
      <path id="Path_551" data-name="Path 551" d="M887.61,437.966c.066,0,2.771-.762,3.354-2.066" transform="translate(-660.371 -327.422)" opacity="0.1"/>
      <path id="Path_552" data-name="Path 552" d="M902,386.506s1.1,1.442,1.8,1.4S902.644,386.451,902,386.506Z" transform="translate(-670.818 -291.563)" opacity="0.1"/>
      <path id="Path_553" data-name="Path 553" d="M904.22,395.24s.46,1.02,1.14.693" transform="translate(-672.429 -297.905)" opacity="0.1"/>
      <path id="Path_554" data-name="Path 554" d="M913.59,313.54l2.891,7.624s.408-4.905-.455-6.374a2.546,2.546,0,0,0-2.436-1.25Z" transform="translate(-679.232 -238.586)" opacity="0.05"/>
      <g id="Group_28" data-name="Group 28" transform="translate(237.946 14.311)" opacity="0.1">
        <path id="Path_555" data-name="Path 555" d="M938.261,92.513l-.025-.11-.466-.123.052.227a3.335,3.335,0,0,0,.439.005Z" transform="translate(-934.731 -92.28)"/>
        <path id="Path_556" data-name="Path 556" d="M933.365,95.573l.049-.044a.973.973,0,0,0,.274-.992,1.342,1.342,0,0,0-.23-.37,3.563,3.563,0,0,1-.671-.2c-.027.408.433.671.576,1.055A.822.822,0,0,1,933.365,95.573Z" transform="translate(-931.113 -93.507)"/>
        <path id="Path_557" data-name="Path 557" d="M936.634,115.27a2.694,2.694,0,0,1-1.1-1.354c-.233-.548-.373-1.124-.608-1.663a5.11,5.11,0,0,0-1.1-1.587.692.692,0,0,0-.288-.2.778.778,0,0,0-.595.164,2.741,2.741,0,0,1-.9.4.978.978,0,0,1-.907-.274,1.36,1.36,0,0,1-.143-1.132,14.088,14.088,0,0,0,.425-2.532,2.448,2.448,0,0,0-1.071-2.192,9.419,9.419,0,0,0-2.192-.48,2.784,2.784,0,0,1-1.025-.526l-.058-.052a1.756,1.756,0,0,0-.178.085c-.118.063-.244.175-.211.3a.327.327,0,0,0,.121.153,2.824,2.824,0,0,0,1.025.523,9.118,9.118,0,0,1,2.206.482,2.481,2.481,0,0,1,1.072,2.192,14.737,14.737,0,0,1-.425,2.529,1.364,1.364,0,0,0,.142,1.132.965.965,0,0,0,.907.274,2.738,2.738,0,0,0,.9-.395.792.792,0,0,1,.595-.167.719.719,0,0,1,.274.2,5.172,5.172,0,0,1,1.1,1.587c.236.548.375,1.121.608,1.663a2.688,2.688,0,0,0,1.1,1.37,1.387,1.387,0,0,0,1.644-.173,1.3,1.3,0,0,0,.244-.408,1.4,1.4,0,0,1-1.562.077Z" transform="translate(-926.681 -100.672)"/>
        <path id="Path_558" data-name="Path 558" d="M971.54,133.151c.408-.515.943-.954,1.326-1.5a3.8,3.8,0,0,0,.211-.334A13.578,13.578,0,0,0,971.54,133.151Z" transform="translate(-959.247 -120.621)"/>
      </g>
      <g id="Group_30" data-name="Group 30" transform="translate(157.826 19.14)" opacity="0.1">
        <path id="Path_559" data-name="Path 559" d="M702.548,109.9H637.71a3.4,3.4,0,0,0-3.39,3.387v40.967a3.4,3.4,0,0,0,3.39,3.387h50.862s1.318,7-3.015,7.747c0,0,9.7.7,8-7.747h8.986a3.4,3.4,0,0,0,3.387-3.387V113.287A3.4,3.4,0,0,0,702.548,109.9Z" transform="translate(-634.32 -109.9)"/>
        <g id="Group_29" data-name="Group 29" transform="translate(9.545 10.874)" opacity="0.2">
          <rect id="Rectangle_90" data-name="Rectangle 90" width="52.523" height="3.201" rx="1.6"/>
          <rect id="Rectangle_91" data-name="Rectangle 91" width="43.34" height="3.201" rx="1.6" transform="translate(0 14.305)"/>
          <rect id="Rectangle_92" data-name="Rectangle 92" width="31.2" height="3.201" rx="1.6" transform="translate(0 7.153)"/>
        </g>
      </g>
      <path id="Path_560" data-name="Path 560" d="M705.638,107.83H640.8a3.4,3.4,0,0,0-3.39,3.39v40.967a3.4,3.4,0,0,0,3.39,3.387h50.862s1.318,7-3.014,7.747c0,0,9.7.7,8-7.747h8.986a3.4,3.4,0,0,0,3.387-3.387V111.22A3.4,3.4,0,0,0,705.638,107.83Z" transform="translate(-478.737 -89.257)" fill="#fff"/>
      <g id="Group_31" data-name="Group 31" transform="translate(168.218 29.447)" opacity="0.2">
        <rect id="Rectangle_93" data-name="Rectangle 93" width="52.523" height="3.201" rx="1.6" fill="#22b473"/>
        <rect id="Rectangle_94" data-name="Rectangle 94" width="43.34" height="3.201" rx="1.6" transform="translate(0 14.308)" fill="#22b473"/>
        <rect id="Rectangle_95" data-name="Rectangle 95" width="31.2" height="3.201" rx="1.6" transform="translate(0 7.155)" fill="#22b473"/>
      </g>
      <path id="Path_561" data-name="Path 561" d="M135.066,596.48s.976,1.277-.452,3.206-2.606,3.563-2.129,4.76c0,0,2.154-3.582,3.908-3.631S137,598.634,135.066,596.48Z" transform="translate(-112.105 -443.996)" fill="#fff"/>
      <path id="Path_562" data-name="Path 562" d="M135.214,596.48a1.611,1.611,0,0,1,.2.4c1.713,2.011,2.623,3.886.978,3.935-1.532.044-3.368,2.781-3.809,3.475a.5.5,0,0,0,.052.156s2.154-3.582,3.908-3.631S137.143,598.634,135.214,596.48Z" transform="translate(-112.252 -443.996)" opacity="0.1"/>
      <path id="Path_563" data-name="Path 563" d="M148.215,601.649c0,.449-.049.822-.112.822s-.112-.365-.112-.822.063-.238.126-.238S148.215,601.2,148.215,601.649Z" transform="translate(-123.439 -447.538)" fill="#ffd037"/>
      <path id="Path_564" data-name="Path 564" d="M149.045,603.568c-.395.216-.74.345-.77.29s.274-.274.66-.488.241-.058.274,0S149.439,603.354,149.045,603.568Z" transform="translate(-123.644 -448.919)" fill="#ffd037"/>
      <path id="Path_565" data-name="Path 565" d="M117.544,596.48s-.976,1.277.452,3.206,2.606,3.563,2.129,4.76c0,0-2.154-3.582-3.908-3.631S115.615,598.634,117.544,596.48Z" transform="translate(-99.745 -443.996)" fill="#fff"/>
      <path id="Path_566" data-name="Path 566" d="M117.544,596.48a1.61,1.61,0,0,0-.2.4c-1.713,2.011-2.623,3.886-.978,3.935,1.532.044,3.368,2.781,3.809,3.475-.014.052-.033.1-.052.156,0,0-2.154-3.582-3.908-3.631S115.615,598.634,117.544,596.48Z" transform="translate(-99.745 -443.996)" opacity="0.1"/>
      <path id="Path_567" data-name="Path 567" d="M116.73,601.649c0,.449.049.822.112.822s.112-.365.112-.822-.063-.238-.126-.238S116.73,601.2,116.73,601.649Z" transform="translate(-100.745 -447.538)" fill="#ffd037"/>
      <path id="Path_568" data-name="Path 568" d="M113.8,603.568c.395.216.74.345.77.29s-.274-.274-.66-.488-.241-.058-.274,0S113.407,603.354,113.8,603.568Z" transform="translate(-98.444 -448.919)" fill="#ffd037"/>
      <ellipse id="Ellipse_82" data-name="Ellipse 82" cx="10.216" cy="1.568" rx="10.216" ry="1.568" transform="translate(10.164 167.09)" fill="#fff" opacity="0.1"/>
      <path id="Path_569" data-name="Path 569" d="M124.1,617.695l-.049.4-.069.565-.03.236-.069.562-.027.236-.068.565-.784,6.41c-.069.573-1,1.02-2.132,1.02H116.8c-1.129,0-2.061-.447-2.132-1.02l-.784-6.407-.069-.564-.027-.236-.069-.562-.03-.236-.069-.565-.049-.4c-.038-.323.469-.6,1.1-.6h8.306C123.624,617.1,124.131,617.371,124.1,617.695Z" transform="translate(-98.453 -458.966)" fill="#65617d"/>
      <path id="Path_570" data-name="Path 570" d="M63.116,577.23l-.069.564H52.769l-.069-.564Z" transform="translate(-37.529 -418.103)" fill="#9d9cb5"/>
      <path id="Path_571" data-name="Path 571" d="M63.275,580.15l-.068.562H53.121l-.071-.562Z" transform="translate(-37.783 -420.223)" fill="#9d9cb5"/>
      <path id="Path_572" data-name="Path 572" d="M63.437,583.06l-.069.565h-9.89l-.069-.565Z" transform="translate(-38.045 -422.336)" fill="#9d9cb5"/>
      <ellipse id="Ellipse_83" data-name="Ellipse 83" cx="23.031" cy="3.779" rx="23.031" ry="3.779" transform="translate(154.672 213.477)" fill="#0f2337" opacity="0.1"/>
      <g id="Group_33" data-name="Group 33" transform="translate(130.444 101.205)" opacity="0.1">
        <path id="Path_573" data-name="Path 573" d="M608.334,409.36H538.072a3.683,3.683,0,0,0-3.672,3.672v44.4a3.683,3.683,0,0,0,3.672,3.672H593.19s1.428,7.58-3.264,8.394c0,0,10.5.754,8.668-8.394h9.74a3.683,3.683,0,0,0,3.672-3.672v-44.4A3.683,3.683,0,0,0,608.334,409.36Z" transform="translate(-534.4 -409.36)"/>
        <g id="Group_32" data-name="Group 32" transform="translate(10.342 19.537)" opacity="0.2">
          <rect id="Rectangle_96" data-name="Rectangle 96" width="56.919" height="3.469" rx="1.735" transform="translate(0 7.753)"/>
          <rect id="Rectangle_97" data-name="Rectangle 97" width="24.68" height="3.469" rx="1.735"/>
        </g>
      </g>
      <path id="Path_574" data-name="Path 574" d="M606.108,407.13H535.832a3.683,3.683,0,0,0-3.672,3.672V455.2a3.683,3.683,0,0,0,3.672,3.672H590.95s1.428,7.58-3.264,8.4c0,0,10.507.754,8.671-8.4h9.75a3.683,3.683,0,0,0,3.672-3.672V410.8a3.683,3.683,0,0,0-3.672-3.672Z" transform="translate(-402.33 -306.536)" fill="#fff"/>
      <g id="Group_34" data-name="Group 34" transform="translate(140.175 120.13)" opacity="0.2">
        <rect id="Rectangle_98" data-name="Rectangle 98" width="56.919" height="3.469" rx="1.735" transform="translate(0 7.753)" fill="#22b473"/>
        <rect id="Rectangle_99" data-name="Rectangle 99" width="24.68" height="3.469" rx="1.735" fill="#22b473"/>
      </g>
      <path id="Path_575" data-name="Path 575" d="M601.19,503.054c-.332-1.406-.548-2.642-.548-2.642a5.446,5.446,0,0,0-.611-2.683v-.384h0v-2.831a9.5,9.5,0,0,1,.715-1.483c.51-.891,0-4.152,0-4.152s-1.891-4.6-1.431-7.514-3.883-12.954-3.883-12.954a12.746,12.746,0,0,1,.408-2.867,2.222,2.222,0,0,0,.055-.6.713.713,0,0,0,0-.074v.025a22.39,22.39,0,0,0-1.587-5.53l.206-6.87A20.2,20.2,0,0,0,593.9,443c-.548-1.9-.907-3.417-1.132-4.587-.025-.134-.049-.274-.071-.384,3.261-.5,5.755-.91,5.755-.91s-1.885-7.912-3.162-9.282-2.3-5.755-2.3-5.755-.666-5.588.408-7.218a10.832,10.832,0,0,0,1.225-4.448s2.466-1.781,2.76-2.571a13.6,13.6,0,0,0,.822-3.51c0-.94-.307-1.781-.206-2.275s-.715-2.373-.307-3.264a2.4,2.4,0,0,0,.164-.858v-.025h0a12.116,12.116,0,0,0-.216-2.318,6.575,6.575,0,0,0-2.425-1.3l-.055-.214-.137-.548c-.082-.055-.162-.1-.241-.145v-.2l-.025-.8.387-1.8c.754-3.141-3.437-3.609-3.437-3.609a2.192,2.192,0,0,0-1.186-1.039c-.844-.3-.14,4.722.255,5.042a18.215,18.215,0,0,1,1.644,2.587h0l.071.129a1.532,1.532,0,0,0-.192.2l.159,1.1.025.167a4.562,4.562,0,0,0-.669,1.14,2.435,2.435,0,0,1,.614,1.781,5.415,5.415,0,0,0,.252,2.173c-.044-.052-.584-.636-1.121-.493s-2.044.595-2.044.595-1.124.2-1.019.444-.767,1.335-.767,1.335l-3.014-2.861c-.027-.085-.06-.17-.088-.26a7.177,7.177,0,0,1-.274-1.252,7.149,7.149,0,0,0,.965-.307,2.087,2.087,0,0,0,.822-.534,3.253,3.253,0,0,0,.485-1.3,18.826,18.826,0,0,1,1.121-2.5,8.112,8.112,0,0,0,.6-4.486,2.961,2.961,0,0,0-.463-1.313c-.493-.68-1.387-.954-2.039-1.5s-1.069-1.37-1.825-1.773a3.633,3.633,0,0,0-2.294-.2,12.356,12.356,0,0,0-4.278,1.557,2.2,2.2,0,0,1-1.43.471,1.929,1.929,0,0,1-1.033-.759.05.05,0,0,1,.014-.041l-.033-.038a5.309,5.309,0,0,0-.447,2.239,3.172,3.172,0,0,0,.014.362v.23h0a.551.551,0,0,1-.022.162,1.18,1.18,0,0,1-.274.408,2.143,2.143,0,0,0-.247.334,1.1,1.1,0,0,1,.041-.123,1.794,1.794,0,0,0-.312.954.942.942,0,0,0,.225.68,3.3,3.3,0,0,0,.493.4,5.755,5.755,0,0,0,2.74,5.985c.036.085.071.173.1.26a7.206,7.206,0,0,1,.548,3.289,1.188,1.188,0,0,1-.038.241c-.016.079-.074.082-.107.126h0s-4.985.049-6.16-1.014-2.963,2.6-2.963,2.6-1.787.345-2.143,0-2.453-.049-2.453-.049a4.508,4.508,0,0,0-3.1-1.135,9.22,9.22,0,0,0-2.286-1.271h0l-.055-.019h0a2.569,2.569,0,0,0-1.124-.143,23.058,23.058,0,0,1-3.168-3.113c-.715-1.085-4.111-5.122-4.135-5.141V391.1l-.038-.589a1.959,1.959,0,0,1-.3.027c-.019-.058-.041-.126-.068-.2a11.372,11.372,0,0,0-.724-1.663s0-.74.217-.926a12.686,12.686,0,0,0-.09-2.9s-2.209-5.166-4.187-1.31c0,0-3.741,2.5-.6,5.4,0,0,1.252.606,1.428,1.1.118.312.548,1.184.822,1.762l.129.26-.036.03.047.485.019.186c-.592.337-.992.669-.9.921a5.574,5.574,0,0,1,.359,1.335s4.324,5.426,4.886,7.755c0,0,11.644,6.92,15.475,7.413l-.663,3.461a27.7,27.7,0,0,0-.153,2.817c.049.743-.46,4.111-.46,4.111s-.663,4.933-1.225,5.634-.447,3.653-.447,3.653a24.99,24.99,0,0,1-.767,4.2,11.013,11.013,0,0,0-.154,4.2s-1.94,4.448,2.708,1.433c0,0,2.283-.143,4.911-.233v.274c0,.337,0,.7-.016,1.1-.036,2.549-.049,6.059.066,8.717.206,4.694,1.644,13.99,1.644,13.99V468.2a6.416,6.416,0,0,0-.134,1.335,8.7,8.7,0,0,0,1.258,4.675l.359,3.113a12.184,12.184,0,0,1,.855,3.289,1.906,1.906,0,0,1-.036.3,2.126,2.126,0,0,0-.041.477,26.9,26.9,0,0,0,.806,4.8s.049,3.412.548,3.609c.436.17-.584,1.968-.888,2.483a.183.183,0,0,0-.019-.1l-.063.1a2.388,2.388,0,0,0-.159.861,1.241,1.241,0,0,0,.567,1.2c.97.592,1.491,1.1.666,1.285a8.839,8.839,0,0,0-.9.189l-.044-.115a.548.548,0,0,0-.334.6,2.489,2.489,0,0,0,.3,1.156,13.184,13.184,0,0,0,1.37,2.521l.395-.044a2.112,2.112,0,0,1-.228.422,1.627,1.627,0,0,1-.578.512,1.742,1.742,0,0,1-.7.238,1.975,1.975,0,0,0-1.447.7,1.509,1.509,0,0,0,.178,2.346l3.653,1.261s6.281.822,5.95-.595-.548-2.644-.548-2.644a5.569,5.569,0,0,0-.51-2.5,3.364,3.364,0,0,0-.222-.367l.222-.025s.46-3.116,1.071-3.708c.143-.137.175-.241.14-.323.063-.17-.1-.274-.3-.326l-.044.123a2.987,2.987,0,0,0-.611-.068s-.2-1.631.46-2.223a.631.631,0,0,0,.129-.485,2.721,2.721,0,0,0-.069-.666l-.025.038a24.129,24.129,0,0,0-1.466-3.837,4.673,4.673,0,0,1,.359-2.077c.411-.595-.052-8.057-.052-8.057a24.391,24.391,0,0,0-.307-5.289,5.927,5.927,0,0,1,.562-3.658v-.11l.014-.025s-.025-.222-.06-.567v.033c-.1-.954-.3-2.686-.441-3.486-.206-1.137.049-6.577.049-6.577l.921-2.324,1.644,4.007,1.737,5.338a4.542,4.542,0,0,1,.88,2.269,1.108,1.108,0,0,1,0,.167,3.249,3.249,0,0,0-.019.359,3.162,3.162,0,0,0,.529,1.9s.46,2.521,1.176,3.165a2.851,2.851,0,0,1,.715,1.877,31.425,31.425,0,0,0,1.277,4.3,6.451,6.451,0,0,1,.359,2.486h0v.134s.121,1.307.115,2.406v.392a.118.118,0,0,1,0-.03,4.015,4.015,0,0,1-.107.891.092.092,0,0,1-.016.052l.016-.186a9.422,9.422,0,0,0-.274,2.28,5.838,5.838,0,0,0,.973,3.784c1.37,1.584,2.247,1.387,2.247,1.387s-.663,1.976-1.483,2.37a.459.459,0,0,0-.085.058.855.855,0,0,0-.022-.115.959.959,0,0,0-.239.737,5.254,5.254,0,0,0,1.011,2.93,1.6,1.6,0,0,0,.691.4l-.129.079a2.81,2.81,0,0,1-.274.134,1.321,1.321,0,0,1-.417.107,1.956,1.956,0,0,0-1.447.7,1.506,1.506,0,0,0,.178,2.343l3.653,1.261S601.521,504.466,601.19,503.054Z" transform="translate(-410.234 -288.368)" fill="url(#linear-gradient-2)"/>
      <path id="Path_576" data-name="Path 576" d="M656.6,813.623l-3.535-1.261a1.537,1.537,0,0,1-.173-2.346,1.89,1.89,0,0,1,1.4-.7,1.646,1.646,0,0,0,.677-.238,1.587,1.587,0,0,0,.548-.513,2.585,2.585,0,0,0,.4-1.37s3.883-1.137,4.933,0a2.928,2.928,0,0,1,.471.688,5.755,5.755,0,0,1,.493,2.5s.2,1.236.518,2.644S656.6,813.623,656.6,813.623Z" transform="translate(-489.636 -596.596)" fill="#2d293d"/>
      <path id="Path_577" data-name="Path 577" d="M719.734,807.267l-3.535-1.261a1.532,1.532,0,0,1-.173-2.343,1.871,1.871,0,0,1,1.4-.7,1.243,1.243,0,0,0,.4-.107,2.078,2.078,0,0,0,.274-.134,2.244,2.244,0,0,0,.962-1.877s3.88-1.137,4.933,0a2.641,2.641,0,0,1,.37.5,5.591,5.591,0,0,1,.595,2.686s.2,1.236.518,2.644S719.734,807.267,719.734,807.267Z" transform="translate(-535.471 -591.987)" fill="#2d293d"/>
      <path id="Path_578" data-name="Path 578" d="M669.087,807.2a2.926,2.926,0,0,1,.471.688h0l-5.818.674a2.584,2.584,0,0,0,.4-1.37S668.026,806.058,669.087,807.2Z" transform="translate(-497.851 -596.598)" opacity="0.1"/>
      <path id="Path_579" data-name="Path 579" d="M730.389,801.34v1.1c-.9,1.491-5.278,1.165-6.55.417a2.075,2.075,0,0,0,.274-.134,2.244,2.244,0,0,0,.962-1.877s3.88-1.137,4.933,0A2.645,2.645,0,0,1,730.389,801.34Z" transform="translate(-541.481 -591.987)" opacity="0.1"/>
      <path id="Path_580" data-name="Path 580" d="M671.976,633.793a10.085,10.085,0,0,0-.693,1.483v3.905c-.987,1.644-6.128,1.1-6.821.2s-1.433-3.212-.641-3.606,1.433-2.373,1.433-2.373-.841.2-2.176-1.384-.94-5.092-.69-5.933a17.414,17.414,0,0,0,0-3.658,7.3,7.3,0,0,0-.348-2.62,32.261,32.261,0,0,1-1.236-4.3,2.922,2.922,0,0,0-.691-1.88c-.691-.644-1.137-3.162-1.137-3.162a3.246,3.246,0,0,1-.5-2.124,4.294,4.294,0,0,0-.839-2.57l-1.68-5.339-1.584-4-.882,2.321s-.249,5.437-.049,6.577.493,4.152.493,4.152a6.118,6.118,0,0,0-.548,3.659,25.484,25.484,0,0,1,.3,5.289s.444,7.465.049,8.057a4.848,4.848,0,0,0-.345,2.077s2.025,4.349,1.37,4.933-.447,2.225-.447,2.225,1.37,0,.792.592-1.011,3.716-1.011,3.716l-5.977.691a12.411,12.411,0,0,1-1.34-2.521c-.792-1.831.148-1.644.945-1.828s.29-.693-.647-1.285-.4-1.918-.4-1.918,1.433-2.423.94-2.623-.548-3.606-.548-3.606-.989-4.056-.743-5.141-.792-3.708-.792-3.708l-.345-3.116a8.57,8.57,0,0,1-1.1-5.881v-4.8s-1.37-9.293-1.581-13.99c-.126-3.014-.09-7.111-.049-9.674.025-1.436.049-2.387.049-2.387L663.87,576a17.625,17.625,0,0,0,.386,3.171c.216,1.173.548,2.691,1.1,4.59a20.841,20.841,0,0,1,.592,9.49l-.2,6.873s1.88,4.6,1.483,6.18a13.153,13.153,0,0,0-.395,2.866s4.2,10.036,3.757,12.951,1.37,7.514,1.37,7.514S672.469,632.9,671.976,633.793Z" transform="translate(-482.374 -429.129)" fill="#0f2337"/>
      <path id="Path_581" data-name="Path 581" d="M705.71,690.616l6.5-.866S708.53,693.507,705.71,690.616Z" transform="translate(-528.32 -511.706)" opacity="0.05"/>
      <path id="Path_582" data-name="Path 582" d="M722.857,666.57s.222,2.3-1.187,3.165C721.673,669.735,724.194,669.338,722.857,666.57Z" transform="translate(-539.906 -494.879)" opacity="0.1"/>
      <path id="Path_583" data-name="Path 583" d="M704.231,639.88s-5.434,4.472-7.4,4.111S704.231,639.88,704.231,639.88Z" transform="translate(-521.678 -475.503)" opacity="0.1"/>
      <path id="Path_584" data-name="Path 584" d="M665.044,700.58s-4.127.937-4.25,2.6S665.044,700.58,665.044,700.58Z" transform="translate(-495.71 -519.568)" opacity="0.1"/>
      <path id="Path_585" data-name="Path 585" d="M667.773,775.8s-5.832,1.1-4.176,1.828a29.391,29.391,0,0,0,4.385,1.335S669.85,779.061,667.773,775.8Z" transform="translate(-497.532 -574.175)" opacity="0.05"/>
      <g id="Group_35" data-name="Group 35" transform="translate(160.042 148.96)" opacity="0.05">
        <path id="Path_586" data-name="Path 586" d="M658.092,784.527a1.162,1.162,0,0,1-.532-.847l-.06.1s-.548,1.335.395,1.918c.11.069.211.137.3.2.175-.033.362-.057.548-.1C659.536,785.612,659.032,785.119,658.092,784.527Z" transform="translate(-653.248 -728.855)"/>
        <path id="Path_587" data-name="Path 587" d="M686.767,782.627c.162-.148.156-.529.057-1.017a2.757,2.757,0,0,0-.332,1.433A1.2,1.2,0,0,1,686.767,782.627Z" transform="translate(-674.409 -727.352)"/>
        <path id="Path_588" data-name="Path 588" d="M683.185,695.58a6.651,6.651,0,0,0-.395,1.817,7.148,7.148,0,0,1,.452-1.25S683.22,695.925,683.185,695.58Z" transform="translate(-671.722 -664.898)"/>
        <path id="Path_589" data-name="Path 589" d="M732.717,684.658a2.272,2.272,0,0,0,.055-.548c-.074.367-.126.71-.162,1.011A2.664,2.664,0,0,1,732.717,684.658Z" transform="translate(-707.889 -656.571)"/>
        <path id="Path_590" data-name="Path 590" d="M683.376,756.806a3.147,3.147,0,0,0,.148-1.1,3.72,3.72,0,0,0-.274,1.387A1.336,1.336,0,0,1,683.376,756.806Z" transform="translate(-672.056 -708.55)"/>
        <path id="Path_591" data-name="Path 591" d="M665.683,793.72a19.457,19.457,0,0,0-.68,3.036l-5.977.693a12.524,12.524,0,0,1-1.34-2.521c-.069-.162-.123-.3-.167-.436-.359.164-.5.548-.03,1.622a12.648,12.648,0,0,0,1.337,2.521l5.985-.693s.444-3.113,1.036-3.708C666.135,793.945,665.949,793.8,665.683,793.72Z" transform="translate(-653.138 -736.143)"/>
        <path id="Path_592" data-name="Path 592" d="M647.05,632.32s.049,3.412.548,3.609h0c.249-.565.417-1.1.195-1.189-.5-.2-.548-3.609-.548-3.609s-.987-4.053-.74-5.141-.792-3.708-.792-3.708l-.345-3.113a8.559,8.559,0,0,1-1.1-5.884v-4.8s-1.37-9.293-1.581-13.976c-.126-3.015-.09-7.125-.049-9.674,0-.463.014-.874.022-1.22l-.17.016s-.027.951-.049,2.39c-.044,2.56-.079,6.665.049,9.671.2,4.7,1.581,13.99,1.581,13.99v4.8a8.558,8.558,0,0,0,1.1,5.884l.348,3.094s1.039,2.62.792,3.708S647.05,632.32,647.05,632.32Z" transform="translate(-642.403 -583.62)"/>
        <path id="Path_593" data-name="Path 593" d="M720.454,796.238a5.755,5.755,0,0,1-.945-2.348c-.611.548.09,2.688.748,3.535.691.888,5.832,1.433,6.821-.2v-.943C725.74,797.612,721.117,797.08,720.454,796.238Z" transform="translate(-698.208 -736.267)"/>
        <path id="Path_594" data-name="Path 594" d="M749.163,781.964a9.592,9.592,0,0,0-.693,1.483v.688c.112-.255.274-.592.5-.992a2.961,2.961,0,0,0,.216-1.222A.158.158,0,0,0,749.163,781.964Z" transform="translate(-719.403 -727.577)"/>
        <path id="Path_595" data-name="Path 595" d="M717.193,765.61a9.558,9.558,0,0,0,.488-1.176s-.841.2-2.176-1.37c-.973-1.151-1.028-3.324-.888-4.744-.249.839-.644,4.349.691,5.93A3.545,3.545,0,0,0,717.193,765.61Z" transform="translate(-694.643 -710.445)"/>
        <path id="Path_596" data-name="Path 596" d="M692.158,672.891a26.366,26.366,0,0,1,.1,2.93,4.294,4.294,0,0,1,.1-.46,17.388,17.388,0,0,0,0-3.656,7.346,7.346,0,0,0-.345-2.62,32.561,32.561,0,0,1-1.236-4.3,2.912,2.912,0,0,0-.691-1.877c-.691-.641-1.137-3.165-1.137-3.165a3.236,3.236,0,0,1-.5-2.124,4.314,4.314,0,0,0-.839-2.571l-1.683-5.341-1.581-4-.891,2.324s0,.293-.03.751l.723-1.888,1.581,4,1.688,5.341a4.309,4.309,0,0,1,.841,2.571,3.236,3.236,0,0,0,.5,2.124s.444,2.521,1.135,3.165a2.926,2.926,0,0,1,.693,1.877,32.7,32.7,0,0,0,1.236,4.3A7.279,7.279,0,0,1,692.158,672.891Z" transform="translate(-672.187 -628.687)"/>
      </g>
      <path id="Path_597" data-name="Path 597" d="M717.563,400.662l-.373,1.8.022.8.016.595-2.063.211-.23-.427h0a18.875,18.875,0,0,0-1.6-2.587c-.381-.321-1.06-5.338-.244-5.042a2.16,2.16,0,0,1,1.148,1.041S718.292,397.535,717.563,400.662Z" transform="translate(-533.399 -298.459)" fill="#ffcdd3"/>
      <path id="Path_598" data-name="Path 598" d="M723.134,422.508l-2.064.211-.23-.427h0a1.822,1.822,0,0,1,2.277-.375Z" transform="translate(-539.303 -317.094)" opacity="0.1"/>
      <path id="Path_599" data-name="Path 599" d="M723.342,423.959l-2.721.63-.055-.406-.156-1.1a1.871,1.871,0,0,1,2.634-.359l.134.548Z" transform="translate(-538.991 -317.57)" fill="#dce6f2"/>
      <path id="Path_600" data-name="Path 600" d="M552.912,390.764l-2.9,1.557-.274-.548c-.274-.578-.688-1.45-.8-1.762-.173-.48-1.384-1.1-1.384-1.1-3.039-2.9.581-5.4.581-5.4,1.918-3.856,4.053,1.31,4.053,1.31a13.18,13.18,0,0,1,.088,2.9c-.208.184-.211.926-.211.926a11.25,11.25,0,0,1,.7,1.664C552.865,390.595,552.912,390.764,552.912,390.764Z" transform="translate(-412.621 -288.354)" fill="#ffcdd3"/>
      <path id="Path_601" data-name="Path 601" d="M561.916,412.543l-2.9,1.557-.274-.548c.408-.34,1.864-1.518,2.34-1.466a3.654,3.654,0,0,0,.688.019C561.87,412.373,561.916,412.543,561.916,412.543Z" transform="translate(-421.626 -310.133)" opacity="0.1"/>
      <path id="Path_602" data-name="Path 602" d="M562.474,413.983l-3.261,1.609-.066-.7-.047-.485s1.891-1.62,2.45-1.559a2.954,2.954,0,0,0,.852,0l.036.586Z" transform="translate(-421.887 -310.685)" fill="#dce6f2"/>
      <path id="Path_603" data-name="Path 603" d="M670.049,427.558s-14.228,1.606-11.567.743a3.568,3.568,0,0,0,2.74-3.086,7.412,7.412,0,0,0-.532-3.289,14.17,14.17,0,0,0-1.271-2.57s10.877-5.982,8.7-.548a8.714,8.714,0,0,0-.617,2.576,7.2,7.2,0,0,0,.274,2.606A7.747,7.747,0,0,0,670.049,427.558Z" transform="translate(-493.793 -313.358)" fill="#ffcdd3"/>
      <path id="Path_604" data-name="Path 604" d="M671.481,418.8a8.713,8.713,0,0,0-.617,2.576c-1.025.861-2.149.8-3.59.8-1.1,0-2.335.274-3.223-.274a14.15,14.15,0,0,0-1.272-2.571S673.657,413.357,671.481,418.8Z" transform="translate(-497.154 -313.347)" opacity="0.1"/>
      <circle id="Ellipse_84" data-name="Ellipse 84" cx="5.884" cy="5.884" r="5.884" transform="translate(164.042 97.442)" fill="#ffcdd3"/>
      <path id="Path_605" data-name="Path 605" d="M670.049,445.711s-14.228,1.606-11.567.743a3.568,3.568,0,0,0,2.74-3.086,7.761,7.761,0,0,1,3.045-1.614,4.251,4.251,0,0,1,2.579-.041,3.582,3.582,0,0,1,.937.433A7.748,7.748,0,0,0,670.049,445.711Z" transform="translate(-493.793 -331.511)" opacity="0.1"/>
      <path id="Path_606" data-name="Path 606" d="M723.756,426.257l-2.721.63-.055-.406a2.4,2.4,0,0,1,2.612-.893Z" transform="translate(-539.405 -319.867)" opacity="0.1"/>
      <path id="Path_607" data-name="Path 607" d="M562.6,415.541l-3.261,1.609-.066-.7a23.98,23.98,0,0,1,3.289-1.458Z" transform="translate(-422.01 -312.242)" opacity="0.1"/>
      <path id="Path_608" data-name="Path 608" d="M664.372,579.176c-5.508.871-13.351,2-14.6,1.625-1.03-.315-4.327-.274-7.2-.184.025-1.436.049-2.387.049-2.387L663.986,576A17.634,17.634,0,0,0,664.372,579.176Z" transform="translate(-482.49 -429.129)" opacity="0.1"/>
      <path id="Path_609" data-name="Path 609" d="M607.135,461.461s-18.142,3.116-20.09,2.521-11.943.049-11.943.049c-4.5,3.014-2.62-1.433-2.62-1.433a11.068,11.068,0,0,1,.148-4.2,25.6,25.6,0,0,0,.756-4.2s-.1-2.968.444-3.658,1.187-5.637,1.187-5.637.5-3.36.447-4.111a28.129,28.129,0,0,1,.148-2.817l.641-3.461c-3.708-.493-14.979-7.416-14.979-7.416-.548-2.321-4.744-7.761-4.744-7.761a5.645,5.645,0,0,0-.348-1.335c-.3-.789,4.154-2.37,4.154-2.37s3.31,4.053,4,5.141a22.584,22.584,0,0,0,3.064,3.113,2.411,2.411,0,0,1,1.1.143l.058.016h0a8.863,8.863,0,0,1,2.214,1.272,4.292,4.292,0,0,1,3.015,1.137s2.028-.3,2.373.049,2.077,0,2.077,0,1.729-3.659,2.866-2.6,5.96,1.014,5.96,1.014a7.129,7.129,0,0,1,3.187-1.784,4.269,4.269,0,0,1,2.579-.041,3.325,3.325,0,0,1,1.017.49l2.927,2.866s.841-1.1.743-1.335.989-.444.989-.444,1.433-.447,1.976-.595,1.041.441,1.1.493a5.8,5.8,0,0,1-.244-2.173,2.559,2.559,0,0,0-.595-1.781c1.732-4.25,5.637-.691,5.637-.691s.444,2.324.049,3.212.395,2.771.3,3.264.2,1.335.2,2.275a13.337,13.337,0,0,1-.792,3.508c-.3.789-2.669,2.571-2.669,2.571a11.158,11.158,0,0,1-1.187,4.45c-1.039,1.631-.425,7.218-.425,7.218s.989,4.36,2.234,5.755S607.135,461.461,607.135,461.461Z" transform="translate(-419.759 -312.707)" fill="#5b6d7e"/>
      <path id="Path_610" data-name="Path 610" d="M639.1,456.151s-.548-1.631-1.039-1.779a11.766,11.766,0,0,1-1.433-.644l.318-.608s1.855.51,2.154,1.052A4.244,4.244,0,0,1,639.1,456.151Z" transform="translate(-478.171 -339.923)" opacity="0.1"/>
      <path id="Path_611" data-name="Path 611" d="M597.47,447.581c-.1.493-4.5.94-4.5.94l2.225-2.231h0l.055.019h0a8.862,8.862,0,0,1,2.22,1.272Z" transform="translate(-446.475 -334.965)" opacity="0.1"/>
      <circle id="Ellipse_85" data-name="Ellipse 85" cx="0.395" cy="0.395" r="0.395" transform="translate(137.868 105.439)" fill="#575988"/>
      <circle id="Ellipse_86" data-name="Ellipse 86" cx="0.395" cy="0.395" r="0.395" transform="translate(138.375 106.231)" fill="#575988"/>
      <circle id="Ellipse_87" data-name="Ellipse 87" cx="0.395" cy="0.395" r="0.395" transform="translate(138.871 106.96)" fill="#575988"/>
      <circle id="Ellipse_88" data-name="Ellipse 88" cx="0.395" cy="0.395" r="0.395" transform="translate(139.389 107.752)" fill="#575988"/>
      <circle id="Ellipse_89" data-name="Ellipse 89" cx="0.321" cy="0.321" r="0.321" transform="translate(186.061 107.782)" fill="#575988"/>
      <circle id="Ellipse_90" data-name="Ellipse 90" cx="0.321" cy="0.321" r="0.321" transform="translate(186.11 108.511)" fill="#575988"/>
      <circle id="Ellipse_91" data-name="Ellipse 91" cx="0.321" cy="0.321" r="0.321" transform="translate(186.154 109.24)" fill="#575988"/>
      <path id="Path_612" data-name="Path 612" d="M645.74,513.059c-.047-.058,11.1,14.015,19.748,5.884C665.487,518.943,651.818,520.8,645.74,513.059Z" transform="translate(-484.784 -383.436)" opacity="0.1"/>
      <path id="Path_613" data-name="Path 613" d="M622.38,539.76s6.667.181,7.364,2.1v2a1.274,1.274,0,0,1-1.239,0c-.672-.365-4.705-2.411-6.125-1.428Z" transform="translate(-467.826 -402.82)" opacity="0.1"/>
      <path id="Path_614" data-name="Path 614" d="M622.83,539.76s6.377.173,7.043,2v1.9a1.222,1.222,0,0,1-1.187,0c-.641-.345-4.5-2.3-5.856-1.37Z" transform="translate(-468.152 -402.82)" fill="#656691"/>
      <path id="Path_615" data-name="Path 615" d="M635.66,486.92a21.542,21.542,0,0,0,2.584,4.437,17.4,17.4,0,0,0,4.05,3.911S635.77,487.838,635.66,486.92Z" transform="translate(-477.466 -364.46)" opacity="0.1"/>
      <path id="Path_616" data-name="Path 616" d="M627.7,458.65s1.113,4.8,3.979,6.434Z" transform="translate(-471.688 -343.938)" opacity="0.1"/>
      <path id="Path_617" data-name="Path 617" d="M621.208,460.416c-.027-.088-.987,3.8,3.7,5.949C624.916,466.366,622.916,465.689,621.208,460.416Z" transform="translate(-466.903 -345.219)" opacity="0.1"/>
      <path id="Path_618" data-name="Path 618" d="M727.715,448.662a33.593,33.593,0,0,1,2.96,2.223S729.124,448.563,727.715,448.662Z" transform="translate(-544.293 -336.684)" opacity="0.1"/>
      <path id="Path_619" data-name="Path 619" d="M659.734,401.393a1.252,1.252,0,0,0,.46.795,1.269,1.269,0,0,0,.548.123,11.906,11.906,0,0,0,5.319-.5,2.01,2.01,0,0,0,.822-.534,3.315,3.315,0,0,0,.471-1.3,17.085,17.085,0,0,1,1.1-2.5,8.383,8.383,0,0,0,.581-4.486,2.973,2.973,0,0,0-.447-1.313c-.477-.68-1.343-.954-1.973-1.494s-1.033-1.37-1.768-1.776a3.411,3.411,0,0,0-2.22-.2,11.709,11.709,0,0,0-4.171,1.557,2.072,2.072,0,0,1-1.37.471,1.914,1.914,0,0,1-1.019-.781,5.479,5.479,0,0,0-.438,2.562,1.141,1.141,0,0,1,0,.386,1.193,1.193,0,0,1-.274.408,1.477,1.477,0,0,0-.274,1.844c.189.227.482.351.669.581.332.414.219,1.006.211,1.537a.784.784,0,0,0,.132.521.759.759,0,0,0,.726.173,2.014,2.014,0,0,1,.773-.074,1.272,1.272,0,0,1,.671.518A9.511,9.511,0,0,1,659.734,401.393Z" transform="translate(-491.398 -292.734)" fill="#2d293d"/>
      <g id="Group_36" data-name="Group 36" transform="translate(163.435 96.664)" opacity="0.1">
        <path id="Path_620" data-name="Path 620" d="M667.026,413.846a1.99,1.99,0,0,1-.822.548,11.846,11.846,0,0,1-5.319.5,1.2,1.2,0,0,1-.548-.123,1.244,1.244,0,0,1-.46-.795,9.163,9.163,0,0,0-1.5-3.478,1.271,1.271,0,0,0-.671-.518,1.96,1.96,0,0,0-.773.074.765.765,0,0,1-.718-.173.791.791,0,0,1-.132-.523c0-.529.121-1.124-.211-1.535-.186-.233-.477-.354-.669-.581a1.162,1.162,0,0,1-.115-1.181,1.353,1.353,0,0,0-.082,1.576c.189.227.482.351.669.581.332.414.219,1.006.211,1.537a.784.784,0,0,0,.132.521.759.759,0,0,0,.726.173,2.013,2.013,0,0,1,.773-.074,1.272,1.272,0,0,1,.671.518,9.285,9.285,0,0,1,1.5,3.48.929.929,0,0,0,1.014.918,11.9,11.9,0,0,0,5.319-.5,2.012,2.012,0,0,0,.822-.534,1.571,1.571,0,0,0,.255-.477A.829.829,0,0,1,667.026,413.846Z" transform="translate(-654.786 -402.423)"/>
        <path id="Path_621" data-name="Path 621" d="M657.6,395.64a.822.822,0,0,0,.181-.3,1.144,1.144,0,0,0,0-.386,5.454,5.454,0,0,1,.274-2.129l-.033-.038a5.444,5.444,0,0,0-.438,2.562A1.687,1.687,0,0,1,657.6,395.64Z" transform="translate(-656.806 -392.79)"/>
      </g>
      <path id="Path_622" data-name="Path 622" d="M668.84,449.221s7.35.973,8.01-.132" transform="translate(-501.554 -336.997)" opacity="0.1"/>
      <path id="Path_623" data-name="Path 623" d="M721,438.47s4.08,0,4.979,1.537" transform="translate(-539.42 -329.288)" opacity="0.1"/>
      <path id="Path_624" data-name="Path 624" d="M1038.012,425s.51.666-.236,1.674-1.37,1.861-1.113,2.488c0,0,1.126-1.872,2.041-1.9S1039.021,426.113,1038.012,425Z" transform="translate(-768.535 -319.509)" fill="#fff"/>
      <path id="Path_625" data-name="Path 625" d="M1038.1,425a.909.909,0,0,1,.1.208c.893,1.052,1.37,2.031.51,2.055-.8.025-1.759,1.455-1.99,1.817a.242.242,0,0,0,.027.082c.011.027,1.126-1.872,2.042-1.9S1039.1,426.113,1038.1,425Z" transform="translate(-768.619 -319.509)" opacity="0.1"/>
      <path id="Path_626" data-name="Path 626" d="M1044.888,427.652c0,.236-.025.428-.058.428s-.06-.192-.06-.428.033-.123.066-.123S1044.888,427.419,1044.888,427.652Z" transform="translate(-774.463 -321.326)" fill="#ffd037"/>
      <path id="Path_627" data-name="Path 627" d="M1045.328,428.652c-.205.112-.386.181-.4.151s.137-.142.345-.255.123-.03.14,0S1045.536,428.54,1045.328,428.652Z" transform="translate(-774.576 -322.043)" fill="#ffd037"/>
      <path id="Path_628" data-name="Path 628" d="M1028.858,425s-.512.666.236,1.674,1.37,1.861,1.113,2.488c0,0-1.126-1.872-2.044-1.9S1027.85,426.113,1028.858,425Z" transform="translate(-762.078 -319.509)" fill="#fff"/>
      <path id="Path_629" data-name="Path 629" d="M1028.858,425a.831.831,0,0,0-.107.208c-.894,1.052-1.37,2.031-.51,2.055.8.025,1.762,1.455,1.992,1.817a.245.245,0,0,1-.027.082c-.011.027-1.126-1.872-2.044-1.9S1027.85,426.113,1028.858,425Z" transform="translate(-762.078 -319.509)" opacity="0.1"/>
      <path id="Path_630" data-name="Path 630" d="M1028.43,427.655c0,.236.027.428.06.428a.864.864,0,0,0,.058-.428c0-.233-.033-.123-.066-.123S1028.43,427.422,1028.43,427.655Z" transform="translate(-762.601 -321.328)" fill="#ffd037"/>
      <path id="Path_631" data-name="Path 631" d="M1026.906,428.652c.208.112.386.181.4.151s-.14-.142-.345-.255-.126-.03-.142,0S1026.7,428.54,1026.906,428.652Z" transform="translate(-761.403 -322.043)" fill="#ffd037"/>
      <path id="Path_632" data-name="Path 632" d="M1029,437.776a5.222,5.222,0,0,0,1.858-.351c.43-.307,2.192-.671,2.3-.181s2.146,2.444.548,2.466a13.414,13.414,0,0,1-4.176-.512C1029.1,438.935,1029,437.776,1029,437.776Z" transform="translate(-763.014 -328.224)" fill="#5b6d7e"/>
      <path id="Path_633" data-name="Path 633" d="M1033.73,441.577a14.11,14.11,0,0,1-4.174-.512c-.329-.2-.458-.915-.5-1.244H1029s.09,1.154.521,1.414a13.678,13.678,0,0,0,4.177.512c.466,0,.625-.17.616-.414C1034.253,441.481,1034.078,441.574,1033.73,441.577Z" transform="translate(-763.014 -330.268)" opacity="0.2"/>
    </g>
  </g>
</svg>
