<svg xmlns="http://www.w3.org/2000/svg" xmlns:xlink="http://www.w3.org/1999/xlink" width="326.706" height="268.701" viewBox="0 0 326.706 268.701">
  <defs>
    <linearGradient id="linear-gradient" x1="0.5" y1="1" x2="0.5" gradientUnits="objectBoundingBox">
      <stop offset="0" stop-color="gray" stop-opacity="0.251"/>
      <stop offset="0.54" stop-color="gray" stop-opacity="0.122"/>
      <stop offset="1" stop-color="gray" stop-opacity="0.102"/>
    </linearGradient>
    <linearGradient id="linear-gradient-2" x1="6.341" y1="1" x2="6.341" y2="0" xlink:href="#linear-gradient"/>
  </defs>
  <g id="Group_91" data-name="Group 91" transform="translate(-21.451 -69.344)">
    <path id="Path_475" data-name="Path 475" d="M196.162,207.348c-13.667-11.6-31.395-10.851-46.929-4.814s-29.8,16.782-44.941,24.421a126.174,126.174,0,0,1-39.483,12.479c-19.291,2.677-40.833-.591-54.273-19.338C-4.431,199.21-3.282,161.538,12.9,142.378c8.236-9.752,19.019-14.539,28.422-22.163s18.112-20.26,17.311-34.959c-.742-13.593-9.362-24.045-18.283-30.6C33.456,49.6,24.966,44.068,24.135,33.581c-.8-10.145,6.336-18.1,13.153-22.618,22.24-14.749,49.645-14.607,71.808.372,7.9,5.346,15.159,12.456,23.448,16.616,21.764,10.934,45.747-.071,68.794-4.1a114.474,114.474,0,0,1,58.51,5.165c11.412,4.087,22.869,10.343,30.886,21.974,5.783,8.392,9.385,19.016,12.766,29.506q5.408,16.776,10.4,33.794c1.995,6.811,3.96,13.753,4.477,21.037.934,13.2-3,26.256-8.363,37.4-12.727,26.457-34.163,45.059-57.379,49.784s-47.775-4.5-65.78-24.7" transform="matrix(-0.999, -0.035, 0.035, -0.999, 339.772, 320.565)" fill="#fff" opacity="0.12"/>
    <g id="undraw_events_2p66" transform="translate(45.003 124.838)">
      <path id="Path_635" data-name="Path 635" d="M781.67,207.339s28.144-23.583,34.4-35.473A169.859,169.859,0,0,1,830.3,149.73" transform="translate(-596.509 -121.822)" fill="none" stroke="#535461" stroke-miterlimit="10" stroke-width="2"/>
      <path id="Path_636" data-name="Path 636" d="M911.384,238.015,899.21,235.27S902.083,248.11,911.384,238.015Z" transform="translate(-681.296 -183.526)" fill="#22b473"/>
      <path id="Path_637" data-name="Path 637" d="M871.374,198.08l7.005,10.491S864.683,209.561,871.374,198.08Z" transform="translate(-659.889 -156.699)" fill="#8fffcd"/>
      <path id="Path_638" data-name="Path 638" d="M931.287,204.681,920.16,202.73S927.149,213.361,931.287,204.681Z" transform="translate(-696.408 -160.053)" fill="#22b473"/>
      <path id="Path_639" data-name="Path 639" d="M898.245,176.08l5.481,7.178S894.024,184.178,898.245,176.08Z" transform="translate(-679.833 -140.829)" fill="#8fffcd"/>
      <path id="Path_640" data-name="Path 640" d="M940.81,170.95s9.474.451,10.589,1.357-1.413,6.214-5.016,5.347S940.81,170.95,940.81,170.95Z" transform="translate(-711.304 -137.129)" fill="#8fffcd"/>
      <path id="Path_641" data-name="Path 641" d="M918.089,140.56s3.871,7.053,3.726,8.4-5.9,2.851-7.061-2.229S918.089,140.56,918.089,140.56Z" transform="translate(-692.37 -115.207)" fill="#8fffcd"/>
      <circle id="Ellipse_92" data-name="Ellipse 92" cx="2.634" cy="2.634" r="2.634" transform="translate(231.938 31.665) rotate(-72.474)" fill="#ffd037"/>
      <circle id="Ellipse_93" data-name="Ellipse 93" cx="2.634" cy="2.634" r="2.634" transform="translate(227.813 28.954) rotate(-72.474)" fill="#ffd037"/>
      <path id="Path_642" data-name="Path 642" d="M288.2,514.174s4.517-13.437-24.118-29.635c0,0-29.075-8.479-26.1-37.6,0,0-33.517,24.555-10.837,55.834S269.4,527.226,269.4,527.226Z" transform="translate(-190.823 -336.213)" fill="#8fffcd" opacity="0.9"/>
      <path id="Path_643" data-name="Path 643" d="M317.992,520.243s-13.972-15.1-27.364-20.938a26.674,26.674,0,0,1-7.276-4.846,33.3,33.3,0,0,1-10.059-30.931l3.218-16.588" transform="translate(-229.346 -336.213)" fill="none" stroke="#535461" stroke-miterlimit="10" stroke-width="2" opacity="0.45"/>
      <rect id="Rectangle_100" data-name="Rectangle 100" width="159.003" height="184.617" transform="translate(53.797 9.255)" fill="url(#linear-gradient)"/>
      <rect id="Rectangle_101" data-name="Rectangle 101" width="155.3" height="180.315" transform="translate(55.65 11.403)" fill="#f7fbfd"/>
      <rect id="Rectangle_102" data-name="Rectangle 102" width="39.26" height="3.127" transform="translate(65.03 31.729)" fill="#e2e2ec"/>
      <rect id="Rectangle_103" data-name="Rectangle 103" width="67.053" height="3.127" transform="translate(65.03 39.372)" fill="#e2e2ec"/>
      <rect id="Rectangle_104" data-name="Rectangle 104" width="27.863" height="24.042" transform="translate(175.65 28.741)" fill="#fff"/>
      <path id="Path_644" data-name="Path 644" d="M774.865,152.5v23.764H747.279V152.5h27.587m.279-.279H747v24.321h28.144Z" transform="translate(-571.5 -123.618)" fill="#e2e2ec"/>
      <rect id="Rectangle_105" data-name="Rectangle 105" width="27.863" height="24.042" transform="translate(147.509 28.741)" fill="#fff"/>
      <path id="Path_645" data-name="Path 645" d="M673.865,152.5v23.764H646.279V152.5h27.587m.279-.279H646v24.321h28.144Z" transform="translate(-498.644 -123.618)" fill="#e2e2ec"/>
      <rect id="Rectangle_106" data-name="Rectangle 106" width="27.863" height="24.042" transform="translate(175.65 53.062)" fill="#fff"/>
      <path id="Path_646" data-name="Path 646" d="M774.865,239.779v23.764H747.279V239.779h27.587m.279-.279H747v24.321h28.144Z" transform="translate(-571.5 -186.577)" fill="#e2e2ec"/>
      <rect id="Rectangle_107" data-name="Rectangle 107" width="27.863" height="24.042" transform="translate(147.509 53.062)" fill="#fff"/>
      <path id="Path_647" data-name="Path 647" d="M673.865,239.779v23.764H646.279V239.779h27.587m.279-.279H646v24.321h28.144Z" transform="translate(-498.644 -186.577)" fill="#e2e2ec"/>
      <rect id="Rectangle_108" data-name="Rectangle 108" width="27.863" height="24.042" transform="translate(119.368 53.062)" fill="#fff"/>
      <path id="Path_648" data-name="Path 648" d="M572.915,239.779v23.764H545.329V239.779h27.587m.279-.279H545.05v24.321h28.144Z" transform="translate(-425.824 -186.577)" fill="#e2e2ec"/>
      <rect id="Rectangle_109" data-name="Rectangle 109" width="27.863" height="24.042" transform="translate(91.226 53.062)" fill="#fff"/>
      <path id="Path_649" data-name="Path 649" d="M471.925,239.779v23.764H444.339V239.779h27.587m.279-.279H444.06v24.321H472.2Z" transform="translate(-352.976 -186.577)" fill="#e2e2ec"/>
      <rect id="Rectangle_110" data-name="Rectangle 110" width="27.863" height="24.042" transform="translate(63.085 53.062)" fill="#fff"/>
      <path id="Path_650" data-name="Path 650" d="M370.935,239.779v23.764H343.349V239.779h27.587m.279-.279H343.07v24.321h28.144Z" transform="translate(-280.127 -186.577)" fill="#e2e2ec"/>
      <rect id="Rectangle_111" data-name="Rectangle 111" width="27.863" height="24.042" transform="translate(175.65 77.381)" fill="#fff"/>
      <path id="Path_651" data-name="Path 651" d="M774.865,327.059v23.764H747.279V327.059h27.587m.279-.279H747V351.1h28.144Z" transform="translate(-571.5 -249.536)" fill="#e2e2ec"/>
      <rect id="Rectangle_112" data-name="Rectangle 112" width="27.863" height="24.042" transform="translate(147.509 77.381)" fill="#fff"/>
      <path id="Path_652" data-name="Path 652" d="M673.865,327.059v23.764H646.279V327.059h27.587m.279-.279H646V351.1h28.144Z" transform="translate(-498.644 -249.536)" fill="#e2e2ec"/>
      <rect id="Rectangle_113" data-name="Rectangle 113" width="27.863" height="24.042" transform="translate(119.368 77.381)" fill="#fff"/>
      <path id="Path_653" data-name="Path 653" d="M572.915,327.059v23.764H545.329V327.059h27.587m.279-.279H545.05V351.1h28.144Z" transform="translate(-425.824 -249.536)" fill="#e2e2ec"/>
      <rect id="Rectangle_114" data-name="Rectangle 114" width="27.863" height="24.042" transform="translate(91.226 77.381)" fill="#fff"/>
      <path id="Path_654" data-name="Path 654" d="M471.925,327.059v23.764H444.339V327.059h27.587m.279-.279H444.06V351.1H472.2Z" transform="translate(-352.976 -249.536)" fill="#e2e2ec"/>
      <rect id="Rectangle_115" data-name="Rectangle 115" width="27.863" height="24.042" transform="translate(63.085 77.381)" fill="#fff"/>
      <path id="Path_655" data-name="Path 655" d="M370.935,327.059v23.764H343.349V327.059h27.587m.279-.279H343.07V351.1h28.144Z" transform="translate(-280.127 -249.536)" fill="#e2e2ec"/>
      <rect id="Rectangle_116" data-name="Rectangle 116" width="27.863" height="24.042" transform="translate(175.65 101.701)" fill="#fff"/>
      <path id="Path_656" data-name="Path 656" d="M774.865,414.329v23.764H747.279V414.329h27.587m.279-.279H747v24.321h28.144Z" transform="translate(-571.5 -312.488)" fill="#e2e2ec"/>
      <rect id="Rectangle_117" data-name="Rectangle 117" width="27.863" height="24.042" transform="translate(147.509 101.701)" fill="#fff"/>
      <path id="Path_657" data-name="Path 657" d="M673.865,414.329v23.764H646.279V414.329h27.587m.279-.279H646v24.321h28.144Z" transform="translate(-498.644 -312.488)" fill="#e2e2ec"/>
      <rect id="Rectangle_118" data-name="Rectangle 118" width="27.863" height="24.042" transform="translate(119.368 101.701)" fill="#fff"/>
      <path id="Path_658" data-name="Path 658" d="M572.915,414.329v23.764H545.329V414.329h27.587m.279-.279H545.05v24.321h28.144Z" transform="translate(-425.824 -312.488)" fill="#e2e2ec"/>
      <rect id="Rectangle_119" data-name="Rectangle 119" width="27.863" height="24.042" transform="translate(91.226 101.701)" fill="#fff"/>
      <path id="Path_659" data-name="Path 659" d="M471.925,414.329v23.764H444.339V414.329h27.587m.279-.279H444.06v24.321H472.2Z" transform="translate(-352.976 -312.488)" fill="#e2e2ec"/>
      <rect id="Rectangle_120" data-name="Rectangle 120" width="27.863" height="24.042" transform="translate(63.085 101.701)" fill="#fff"/>
      <path id="Path_660" data-name="Path 660" d="M370.935,414.329v23.764H343.349V414.329h27.587m.279-.279H343.07v24.321h28.144Z" transform="translate(-280.127 -312.488)" fill="#e2e2ec"/>
      <rect id="Rectangle_121" data-name="Rectangle 121" width="27.863" height="24.042" transform="translate(175.65 126.02)" fill="#fff"/>
      <path id="Path_661" data-name="Path 661" d="M774.865,501.609v23.761H747.279V501.609h27.587m.279-.279H747v24.318h28.144Z" transform="translate(-571.5 -375.447)" fill="#e2e2ec"/>
      <rect id="Rectangle_122" data-name="Rectangle 122" width="27.863" height="24.042" transform="translate(147.509 126.02)" fill="#fff"/>
      <path id="Path_662" data-name="Path 662" d="M673.865,501.609v23.761H646.279V501.609h27.587m.279-.279H646v24.318h28.144Z" transform="translate(-498.644 -375.447)" fill="#e2e2ec"/>
      <rect id="Rectangle_123" data-name="Rectangle 123" width="27.863" height="24.042" transform="translate(119.368 126.02)" fill="#fff"/>
      <path id="Path_663" data-name="Path 663" d="M572.915,501.609v23.761H545.329V501.609h27.587m.279-.279H545.05v24.318h28.144Z" transform="translate(-425.824 -375.447)" fill="#e2e2ec"/>
      <rect id="Rectangle_124" data-name="Rectangle 124" width="27.863" height="24.042" transform="translate(91.226 126.02)" fill="#fff"/>
      <path id="Path_664" data-name="Path 664" d="M471.925,501.609v23.761H444.339V501.609h27.587m.279-.279H444.06v24.318H472.2Z" transform="translate(-352.976 -375.447)" fill="#e2e2ec"/>
      <rect id="Rectangle_125" data-name="Rectangle 125" width="27.863" height="24.042" transform="translate(63.085 126.02)" fill="#fff"/>
      <path id="Path_665" data-name="Path 665" d="M370.935,501.609v23.761H343.349V501.609h27.587m.279-.279H343.07v24.318h28.144Z" transform="translate(-280.127 -375.447)" fill="#e2e2ec"/>
      <rect id="Rectangle_126" data-name="Rectangle 126" width="27.863" height="24.042" transform="translate(175.65 150.341)" fill="#fff"/>
      <path id="Path_666" data-name="Path 666" d="M774.865,588.879v23.764H747.279V588.879h27.587m.279-.279H747v24.321h28.144Z" transform="translate(-571.5 -438.399)" fill="#e2e2ec"/>
      <rect id="Rectangle_127" data-name="Rectangle 127" width="27.863" height="24.042" transform="translate(147.509 150.341)" fill="#fff"/>
      <path id="Path_667" data-name="Path 667" d="M673.865,588.879v23.764H646.279V588.879h27.587m.279-.279H646v24.321h28.144Z" transform="translate(-498.644 -438.399)" fill="#e2e2ec"/>
      <rect id="Rectangle_128" data-name="Rectangle 128" width="27.863" height="24.042" transform="translate(119.368 150.341)" fill="#fff"/>
      <path id="Path_668" data-name="Path 668" d="M572.915,588.879v23.764H545.329V588.879h27.587m.279-.279H545.05v24.321h28.144Z" transform="translate(-425.824 -438.399)" fill="#e2e2ec"/>
      <rect id="Rectangle_129" data-name="Rectangle 129" width="27.863" height="24.042" transform="translate(91.226 150.341)" fill="#fff"/>
      <path id="Path_669" data-name="Path 669" d="M471.925,588.879v23.764H444.339V588.879h27.587m.279-.279H444.06v24.321H472.2Z" transform="translate(-352.976 -438.399)" fill="#e2e2ec"/>
      <rect id="Rectangle_130" data-name="Rectangle 130" width="27.863" height="24.042" transform="translate(63.085 150.341)" fill="#fff"/>
      <path id="Path_670" data-name="Path 670" d="M370.935,588.879v23.764H343.349V588.879h27.587m.279-.279H343.07v24.321h28.144Z" transform="translate(-280.127 -438.399)" fill="#e2e2ec"/>
      <path id="Path_671" data-name="Path 671" d="M513.384,738.14a5.626,5.626,0,0,0,2.234-2.749,2.325,2.325,0,0,0-1.562-2.8c-1.432-.448-2.962.35-4.125,1.18s-2.489,1.751-4.009,1.579a4.469,4.469,0,0,0,1.887-4.66,1.807,1.807,0,0,0-.525-.945c-.795-.7-2.237-.4-3.19.151-3.029,1.751-3.872,5.094-3.89,8.116a12.562,12.562,0,0,1-.056-3.344,3.181,3.181,0,0,0-1.537-2.959,5.5,5.5,0,0,0-2.346-.452,5.633,5.633,0,0,0-3.806.882c-1.155,1.008-.854,2.7.151,3.813a14.682,14.682,0,0,0,3.939,2.573,8.041,8.041,0,0,1,2.8,2.192,1.989,1.989,0,0,1,.21.392h8.533A24.53,24.53,0,0,0,513.384,738.14Z" transform="translate(-387.352 -542.322)" fill="#8af9c8"/>
      <ellipse id="Ellipse_94" data-name="Ellipse 94" cx="2.447" cy="2.447" rx="2.447" ry="2.447" transform="translate(65.172 55.13)" fill="#fc6681"/>
      <ellipse id="Ellipse_95" data-name="Ellipse 95" cx="2.447" cy="2.447" rx="2.447" ry="2.447" transform="translate(71.286 55.13)" fill="#ffd037"/>
      <ellipse id="Ellipse_96" data-name="Ellipse 96" cx="2.185" cy="2.185" rx="2.185" ry="2.185" transform="translate(121.26 78.676)" fill="#22b473"/>
      <ellipse id="Ellipse_97" data-name="Ellipse 97" cx="2.185" cy="2.185" rx="2.185" ry="2.185" transform="translate(126.722 78.676)" fill="#22b473"/>
      <circle id="Ellipse_98" data-name="Ellipse 98" cx="1.588" cy="1.588" r="1.588" transform="translate(206.185 124.181)" fill="#22b473"/>
      <circle id="Ellipse_99" data-name="Ellipse 99" cx="1.588" cy="1.588" r="1.588" transform="translate(206.979 122.33)" fill="#22b473"/>
      <circle id="Ellipse_100" data-name="Ellipse 100" cx="1.588" cy="1.588" r="1.588" transform="translate(207.774 120.742)" fill="#22b473"/>
      <ellipse id="Ellipse_101" data-name="Ellipse 101" cx="2.031" cy="2.031" rx="2.031" ry="2.031" transform="translate(178.142 55.13)" fill="#22b473"/>
      <ellipse id="Ellipse_102" data-name="Ellipse 102" cx="2.031" cy="2.031" rx="2.031" ry="2.031" transform="translate(183.216 55.13)" fill="#22b473"/>
      <ellipse id="Ellipse_103" data-name="Ellipse 103" cx="2.031" cy="2.031" rx="2.031" ry="2.031" transform="translate(188.295 55.13)" fill="#22b473"/>
      <ellipse id="Ellipse_104" data-name="Ellipse 104" cx="2.031" cy="2.031" rx="2.031" ry="2.031" transform="translate(193.37 55.13)" fill="#22b473"/>
      <ellipse id="Ellipse_105" data-name="Ellipse 105" cx="1.817" cy="1.817" rx="1.817" ry="1.817" transform="translate(178.142 104.338)" fill="#22b473"/>
      <ellipse id="Ellipse_106" data-name="Ellipse 106" cx="1.817" cy="1.817" rx="1.817" ry="1.817" transform="translate(182.682 104.338)" fill="#22b473"/>
      <ellipse id="Ellipse_107" data-name="Ellipse 107" cx="1.817" cy="1.817" rx="1.817" ry="1.817" transform="translate(187.226 104.338)" fill="#22b473"/>
      <ellipse id="Ellipse_108" data-name="Ellipse 108" cx="1.817" cy="1.817" rx="1.817" ry="1.817" transform="translate(191.766 104.338)" fill="#22b473"/>
      <circle id="Ellipse_109" data-name="Ellipse 109" cx="2.588" cy="2.588" r="2.588" transform="translate(93.216 78.676)" fill="#ffd037"/>
      <circle id="Ellipse_110" data-name="Ellipse 110" cx="2.588" cy="2.588" r="2.588" transform="translate(65.172 102.752)" fill="#fc6681"/>
      <path id="Path_672" data-name="Path 672" d="M855.457,284.221c1.742,1.028,4.458,1.7,7.9-.513l-.033,4.893c.245,3.344,4.394,15.58,4.394,15.58l2.926,10.059a78.714,78.714,0,0,1,3.216,21.883,20.941,20.941,0,0,0,.933,6.888c1.558,4.21-.613,9.636-1.555,11.656a48.976,48.976,0,0,1-4.829,1.36,3.293,3.293,0,0,0-.432.131l-.02-.028s-4.392,1.742-6.342,1.5a1.711,1.711,0,0,0-1.226,2.97,8.918,8.918,0,0,1-2.923.385c-1.951-.24-2.929,3.115.733,4.074s24.407,0,24.407,0a2.942,2.942,0,0,0,1.56-3.249c1.594-.061,2.589-.109,2.589-.109s3.661-1.672,0-6.234l-.2.148-.783-2.3V350.2s4.637-22.292,3.174-24.928-2.2-16.059-2.2-16.059l.5-14.621c1.324-2.731,2-7.011,2.344-10.358a21.984,21.984,0,0,0,.936-4.913c.059-.786.106-1.611.137-2.466a16.531,16.531,0,0,0-.908-5.515,54.718,54.718,0,0,1,5.529-6.941,7.123,7.123,0,0,0,2.2-6.234l-1.22-8.151-2.929-13.9c.368-3.857-.438-6.077-1.326-7.331.212-1.246.41-2.491.557-3.742a47.889,47.889,0,0,0-.856-16.3,11.035,11.035,0,0,0-2.307-5.189c-1.48-1.6-3.882-2.575-4.433-4.67a13.542,13.542,0,0,0-.34-1.577c-.535-1.371-2.229-1.87-3.712-2.048-2.642-.32-6.462-.557-9,.474a10.92,10.92,0,0,0-5.183,4.86,3.654,3.654,0,0,0-.159,4.013,9.2,9.2,0,0,0-.568,3.2,9.352,9.352,0,0,0,5.969,8.675c.058.184.112.365.156.543a9.309,9.309,0,0,1,.24,1.307c-.047.836-.1,1.7-.139,2.547q-.042.176-.089.346a62.811,62.811,0,0,0-6.13,3.126c1.466,2.157-.245,11.266-.245,11.266-3.662,2.157-7.323,7.671-3.416,13.423a14.351,14.351,0,0,1,1.708,11.982l-.61,9.371h0v.017l-.123,1.875h.047l-.047.711.106.02v.764a11.381,11.381,0,0,0-5.712,4.249,15,15,0,0,1-2.555,3.135,1.884,1.884,0,0,0,.293,3.057Zm29.471-24.9a8.917,8.917,0,0,1,.867-4.715q.861.017,1.725.02c.059.4.128.789.212,1.14.5,2.112-1.485,3.124-2.806,3.553Z" transform="translate(-649.054 -154.468)" fill="url(#linear-gradient-2)"/>
      <path id="Path_673" data-name="Path 673" d="M914.9,754.417l.939,2.817L912.77,760.3l-10.1,2.349-7.281-.705.471-2.583h0a3.115,3.115,0,0,1,2.313-2.277c2.993-.7,8.7-2.307,9.9-4.534Z" transform="translate(-678.54 -556.663)" fill="#db8b8b"/>
      <path id="Path_674" data-name="Path 674" d="M914.9,754.417l.939,2.817L912.77,760.3l-10.1,2.349-7.281-.705.471-2.583h0a3.115,3.115,0,0,1,2.313-2.277c2.993-.7,8.7-2.307,9.9-4.534Z" transform="translate(-678.54 -556.663)" opacity="0.1"/>
      <path id="Path_675" data-name="Path 675" d="M883.723,771.535l1.41-1.878-1.41-2.176s-4.227,1.705-6.105,1.471-2.817,3.065.7,3.993,23.485,0,23.485,0,3.522-1.644,0-6.105l-3.065,2.349s-5.166,2.817-7.749,2.349Z" transform="translate(-664.513 -566.971)" fill="#2e3037"/>
      <path id="Path_676" data-name="Path 676" d="M881.1,773.662l7.281.7,10.1-2.349,3.065-3.065-.248-.747-.351-1.048-.351-1.02-6.81-1.878a4.219,4.219,0,0,1-1.393,1.393c-2.212,1.513-6.186,2.605-8.518,3.152a2.471,2.471,0,0,0-.279.086,3.1,3.1,0,0,0-2.023,2.19Z" transform="translate(-668.232 -565.11)" fill="#db8b8b"/>
      <path id="Path_677" data-name="Path 677" d="M881.1,783.876l7.281.705,10.1-2.349,3.065-3.065-.248-.747-2.8,2.157s-5.166,2.817-7.749,2.349h-7.3l1.41-1.878-1.265-1.951a3.1,3.1,0,0,0-2.023,2.19Z" transform="translate(-668.232 -575.324)" opacity="0.1"/>
      <path id="Path_678" data-name="Path 678" d="M869.393,783.335l1.41-1.878-1.41-2.176s-4.227,1.705-6.105,1.471-2.817,3.065.7,3.993,23.485,0,23.485,0,3.522-1.644,0-6.105l-3.065,2.349s-5.166,2.817-7.749,2.349Z" transform="translate(-654.177 -575.483)" fill="#2e3037"/>
      <path id="Path_679" data-name="Path 679" d="M910.6,274.445s11.274,1.173,9.63-3.522a8.455,8.455,0,0,1-.348-4.146A11.5,11.5,0,0,1,921.874,262L911.3,263.644a13.231,13.231,0,0,1,1.432,3.394A6.911,6.911,0,0,1,910.6,274.445Z" transform="translate(-689.512 -202.807)" fill="#db8b8b"/>
      <path id="Path_680" data-name="Path 680" d="M944.415,498.82s-.234,10.1-2.583,15.031l-.471,14.326s.705,13.153,2.115,15.736-3.065,24.424-3.065,24.424V572.1s-7.524,2.817-9.63-.471l2.115-27.949-.939-38.75Z" transform="translate(-704.069 -373.636)" fill="#474463"/>
      <path id="Path_681" data-name="Path 681" d="M944.415,498.82s-.234,10.1-2.583,15.031l-.471,14.326s.705,13.153,2.115,15.736-3.065,24.424-3.065,24.424V572.1s-7.524,2.817-9.63-.471l2.115-27.949-.939-38.75Z" transform="translate(-704.069 -373.636)" opacity="0.1"/>
      <path id="Path_682" data-name="Path 682" d="M969.217,382.51l1.41,3.759,1.173,7.986a7.064,7.064,0,0,1-2.115,6.105,67.248,67.248,0,0,0-6.576,8.688l-4.458-13.375s4.458-.7,3.759-3.759a44.385,44.385,0,0,1-.474-8.711Z" transform="translate(-724.173 -289.737)" fill="#fc6681"/>
      <path id="Path_683" data-name="Path 683" d="M969.217,382.51l1.41,3.759,1.173,7.986a7.064,7.064,0,0,1-2.115,6.105,67.248,67.248,0,0,0-6.576,8.688l-4.458-13.375s4.458-.7,3.759-3.759a44.385,44.385,0,0,1-.474-8.711Z" transform="translate(-724.173 -289.737)" opacity="0.05"/>
      <path id="Path_684" data-name="Path 684" d="M921.66,765.656c3.012,4.737,7.7,2.054,8.532,1.519l-.34-1.037-6.81-1.878A4.219,4.219,0,0,1,921.66,765.656Z" transform="translate(-697.49 -565.11)" opacity="0.1"/>
      <path id="Path_685" data-name="Path 685" d="M887.85,464.179c.234,3.288,4.227,15.265,4.227,15.265l2.817,9.856a78.426,78.426,0,0,1,3.1,21.44,20.823,20.823,0,0,0,.9,6.749c1.878,5.166-1.878,12.213-1.878,12.213,3.288,5.871,8.917,1.878,8.917,1.878v-3.756s4.458-20.434,3.288-24.424-1.644-14.8-1.644-14.8V469.1a22.12,22.12,0,0,0,6.445-14.022c.056-.769.1-1.577.131-2.416.19-5.294-3.433-11.511-4.849-13.724-.34-.535-.557-.836-.557-.836l-20.737,8.226-.047.019v2.578Z" transform="translate(-673.102 -329.836)" fill="#474463"/>
      <path id="Path_686" data-name="Path 686" d="M913.13,263.641a13.234,13.234,0,0,1,1.432,3.394,9.2,9.2,0,0,0,7.145-.262A11.493,11.493,0,0,1,923.7,262Z" transform="translate(-691.337 -202.807)" opacity="0.1"/>
      <circle id="Ellipse_111" data-name="Ellipse 111" cx="9.159" cy="9.159" r="9.159" transform="translate(217.332 46.035)" fill="#db8b8b"/>
      <path id="Path_687" data-name="Path 687" d="M887.85,448.943l.1.019c9.848,2.026,22.212-8.24,22.212-8.24a12.168,12.168,0,0,1-.855-1.747c-.34-.535-.557-.836-.557-.836l-20.738,8.226-.053.822Z" transform="translate(-673.102 -329.865)" opacity="0.1"/>
      <path id="Path_688" data-name="Path 688" d="M883.825,291.592s13.152-7.986,17.38-4.7l5.871,7.524s3.759,1.173,3.065,8.688l2.806,13.618-8.454,2.115s-4.932,4.7-.939,11.508c0,0-12.447,10.333-22.312,8.22l.7-11.038a14.294,14.294,0,0,0-1.644-11.743c-3.759-5.637-.234-11.038,3.288-13.152C883.591,302.633,885.233,293.707,883.825,291.592Z" transform="translate(-666.494 -220.192)" fill="#fc6681"/>
      <path id="Path_689" data-name="Path 689" d="M867.8,477.75s-4.932.939-7.281,4.7a14.639,14.639,0,0,1-2.458,3.065,1.864,1.864,0,0,0,.279,2.97c1.864,1.115,4.9,1.808,8.744-1.346C873.666,481.743,867.8,477.75,867.8,477.75Z" transform="translate(-651.169 -358.438)" fill="#db8b8b"/>
      <path id="Path_690" data-name="Path 690" d="M900.082,321.374s4.7-.471,5.871,11.742,3.065,15.031,3.065,15.031,1.173,6.342-1.644,10.1-8.22,11.742-8.22,11.742-5.871,1.644-7.044-4.227l7.281-13.621s1.173-4.7-1.644-7.986S892.8,319.024,900.082,321.374Z" transform="translate(-676.174 -245.509)" opacity="0.1"/>
      <path id="Path_691" data-name="Path 691" d="M898.362,318.844s4.7-.471,5.871,11.742,3.065,15.031,3.065,15.031,1.173,6.342-1.644,10.1-8.22,11.743-8.22,11.743-5.871,1.644-7.044-4.227l7.281-13.621s1.173-4.7-1.644-7.986S891.089,316.494,898.362,318.844Z" transform="translate(-674.934 -243.684)" fill="#fc6681"/>
      <path id="Path_692" data-name="Path 692" d="M905.005,350.9s-.468,7.273,1.638,11.274,2.115,9.159,0,11.982" transform="translate(-685.444 -266.935)" opacity="0.1"/>
      <path id="Path_693" data-name="Path 693" d="M900.91,308.543s1.878-1.878,7.281-2.115,7.749-1.878,7.749-1.878" transform="translate(-682.522 -233.501)" opacity="0.1"/>
      <path id="Path_694" data-name="Path 694" d="M911.493,204.48c1.427.176,3.065.666,3.572,2.006a13.724,13.724,0,0,1,.326,1.547c.532,2.051,2.842,3.007,4.266,4.576a11.08,11.08,0,0,1,2.229,5.083,47.763,47.763,0,0,1,.836,15.956c-.457,3.9-1.393,7.73-1.655,11.642s.217,8.028,2.355,11.316a28.244,28.244,0,0,1,2.786,4.21c-1.346,1.092-3.2,1.248-4.941,1.307q-3.029.1-6.061,0a6.463,6.463,0,0,1-3.079-.641,4.754,4.754,0,0,1-1.616-1.736,12.342,12.342,0,0,1-1.393-6.593c.053-2.274.41-4.536.451-6.813a5.96,5.96,0,0,0-.789-3.572,11.643,11.643,0,0,0-1.967-1.82c-2.508-2.229-3.377-5.8-3.461-9.159s.471-6.721.187-10.068c-.112-1.31-.6-2.884-1.889-3.138a6.649,6.649,0,0,1-1.226-.156c-1.034-.4-.933-1.856-1.229-2.923-.332-1.2-1.354-2.123-1.641-3.344-.677-2.842,2.94-6.234,5.311-7.223C905.277,203.929,908.952,204.168,911.493,204.48Z" transform="translate(-680.043 -161.121)" opacity="0.1"/>
      <path id="Path_695" data-name="Path 695" d="M912.333,202.8c1.427.176,3.065.666,3.572,2.006a13.752,13.752,0,0,1,.326,1.547c.532,2.051,2.842,3.007,4.266,4.576a11.08,11.08,0,0,1,2.229,5.083,47.759,47.759,0,0,1,.836,15.956c-.457,3.9-1.393,7.73-1.655,11.642s.217,8.028,2.355,11.316a28.241,28.241,0,0,1,2.787,4.211c-1.346,1.092-3.2,1.248-4.941,1.307q-3.029.1-6.061,0a6.464,6.464,0,0,1-3.079-.641,4.755,4.755,0,0,1-1.616-1.736,12.343,12.343,0,0,1-1.393-6.593c.053-2.274.41-4.536.451-6.813a5.958,5.958,0,0,0-.789-3.572,11.637,11.637,0,0,0-1.967-1.82c-2.508-2.229-3.377-5.8-3.461-9.159s.471-6.721.187-10.068c-.111-1.31-.6-2.884-1.889-3.138a6.651,6.651,0,0,1-1.226-.156c-1.034-.4-.933-1.856-1.229-2.923-.332-1.2-1.354-2.123-1.641-3.344-.677-2.842,2.94-6.234,5.311-7.223C906.117,202.24,909.792,202.48,912.333,202.8Z" transform="translate(-680.648 -159.904)" fill="#472727"/>
    </g>
    <ellipse id="Ellipse_83" data-name="Ellipse 83" cx="37.031" cy="3.779" rx="37.031" ry="3.779" transform="translate(230.053 330.486)" fill="#0f2337" opacity="0.1"/>
  </g>
</svg>
