<svg xmlns="http://www.w3.org/2000/svg" xmlns:xlink="http://www.w3.org/1999/xlink" width="258.156" height="261.338" viewBox="0 0 258.156 261.338">
  <defs>
    <linearGradient id="linear-gradient" x1="0.5" y1="1" x2="0.5" gradientUnits="objectBoundingBox">
      <stop offset="0" stop-color="gray" stop-opacity="0.251"/>
      <stop offset="0.54" stop-color="gray" stop-opacity="0.122"/>
      <stop offset="1" stop-color="gray" stop-opacity="0.102"/>
    </linearGradient>
    <linearGradient id="linear-gradient-2" x1="0.5" y1="1" x2="0.5" y2="0" xlink:href="#linear-gradient"/>
    <linearGradient id="linear-gradient-3" x1="-0.001" y1="0.5" x2="1" y2="0.5" xlink:href="#linear-gradient"/>
  </defs>
  <g id="Group_88" data-name="Group 88" transform="translate(-58.017 -94.714)">
    <g id="undraw_post_online_dkuk" transform="translate(57.924 94.664)">
      <g id="Group_17" data-name="Group 17" transform="translate(157.225 130.261)" opacity="0.2">
        <path id="Path_448" data-name="Path 448" d="M749.285,751.955a7.586,7.586,0,0,1-.689,1.061q-3.43-2.411-6.977-4.735l.153-.3a6.7,6.7,0,0,1,2.372-2.584,3.964,3.964,0,0,1,3.988-.326,4.008,4.008,0,0,1,1.958,3.482A6.723,6.723,0,0,1,749.285,751.955Z" transform="translate(-741.62 -653.416)" fill="#3f3d56"/>
        <ellipse id="Ellipse_48" data-name="Ellipse 48" cx="5.564" cy="4.249" rx="5.564" ry="4.249" transform="translate(0.735 93.503) rotate(-62.09)" fill="#3f3d56"/>
        <ellipse id="Ellipse_49" data-name="Ellipse 49" cx="5.564" cy="4.249" rx="5.564" ry="4.249" transform="translate(3.918 87.495) rotate(-62.09)" fill="#3f3d56"/>
        <ellipse id="Ellipse_50" data-name="Ellipse 50" cx="5.564" cy="4.249" rx="5.564" ry="4.249" transform="translate(7.101 81.486) rotate(-62.09)" fill="#3f3d56"/>
        <ellipse id="Ellipse_51" data-name="Ellipse 51" cx="5.564" cy="4.249" rx="5.564" ry="4.249" transform="translate(10.281 75.481) rotate(-62.09)" fill="#3f3d56"/>
        <path id="Path_449" data-name="Path 449" d="M766.989,489a20.137,20.137,0,0,1-.326-2.8l10.742,3.616-10.713-5.574a20.379,20.379,0,0,1,7.205-14.433l10.38,15.011-8.06-16.694a20.353,20.353,0,1,1,19.044,35.859,20.373,20.373,0,0,1,.326,4.369l-16.316-.131,16.081,2.65a20.352,20.352,0,0,1-11.842,15.337,20.353,20.353,0,1,1-28.276-14.975A20.359,20.359,0,0,1,767.015,489Z" transform="translate(-742.636 -465.029)" fill="#fff"/>
        <path id="Path_450" data-name="Path 450" d="M793.168,609.969a20.277,20.277,0,0,1-9.737,9.081,20.353,20.353,0,1,1-28.276-14.975C754.365,599.739,794.238,607.95,793.168,609.969Z" transform="translate(-742.582 -557.862)" opacity="0.1"/>
      </g>
      <g id="Group_18" data-name="Group 18" transform="translate(0.093 0.449)" opacity="0.2">
        <path id="Path_451" data-name="Path 451" d="M476.17,661.769a14.123,14.123,0,0,0,.78,2.3q7.541-2.888,15.255-5.547c-.046-.209-.091-.424-.144-.653a12.9,12.9,0,0,0-3.208-5.945,7.109,7.109,0,0,0-12.576,3.058A12.906,12.906,0,0,0,476.17,661.769Z" transform="translate(-405.389 -459.305)" fill="#3f3d56"/>
        <ellipse id="Ellipse_52" data-name="Ellipse 52" cx="8.181" cy="10.707" rx="8.181" ry="10.707" transform="translate(65.148 179.329) rotate(-13.72)" fill="#3f3d56"/>
        <ellipse id="Ellipse_53" data-name="Ellipse 53" cx="8.181" cy="10.707" rx="8.181" ry="10.707" transform="translate(62.041 166.615) rotate(-13.72)" fill="#3f3d56"/>
        <ellipse id="Ellipse_54" data-name="Ellipse 54" cx="8.181" cy="10.707" rx="8.181" ry="10.707" transform="translate(58.938 153.9) rotate(-13.72)" fill="#3f3d56"/>
        <ellipse id="Ellipse_55" data-name="Ellipse 55" cx="8.181" cy="10.707" rx="8.181" ry="10.707" transform="translate(55.835 141.189) rotate(-13.72)" fill="#3f3d56"/>
        <path id="Path_452" data-name="Path 452" d="M334.914,122.623a38.718,38.718,0,0,0,1.9-5.078l-21.717,1.667,22.633-5.355a39.263,39.263,0,0,0-6.634-30.348l-26.471,23.123,22.927-27.355a39.181,39.181,0,1,0-52.475,57.938,38.941,38.941,0,0,0-2.646,8l30.54,7.466-31.261-2.65A39.2,39.2,0,0,0,286.566,184.3a39.181,39.181,0,1,0,59.837-14.6,39.184,39.184,0,0,0-11.49-47.072Z" transform="translate(-260.093 -67.221)" fill="#fff"/>
        <path id="Path_453" data-name="Path 453" d="M298.639,356.132a39,39,0,0,0,13.888,21.537,39.181,39.181,0,1,0,59.837-14.6C375.885,355.352,297.594,351.861,298.639,356.132Z" transform="translate(-286.053 -260.613)" opacity="0.1"/>
      </g>
      <path id="Path_454" data-name="Path 454" d="M566.312,120.906h-.728V81.663A15.786,15.786,0,0,0,549.673,66H460.545a15.791,15.791,0,0,0-15.911,15.663V97.93h-.212a.93.93,0,0,0-.937.92v7.832a.93.93,0,0,0,.937.92h.228v8h-.287a.927.927,0,0,0-.933.92V131.5a.93.93,0,0,0,.933.923h.287v5.874H444.4a.927.927,0,0,0-.937.92v15.122a.927.927,0,0,0,.937.92h.248V292.433A15.786,15.786,0,0,0,460.562,308.1H549.67a15.791,15.791,0,0,0,15.911-15.663V150.256h.731a.93.93,0,0,0,.937-.92V121.827a.93.93,0,0,0-.937-.92Z" transform="translate(-383.511 -65.95)" fill="url(#linear-gradient)"/>
      <g id="Group_19" data-name="Group 19" transform="translate(61.682 1.682)" opacity="0.9">
        <rect id="Rectangle_41" data-name="Rectangle 41" width="3.514" height="28.984" rx="1.757" transform="translate(116.936 54.237)" fill="#e5e7eb"/>
        <rect id="Rectangle_42" data-name="Rectangle 42" width="1.974" height="9.542" rx="0.987" transform="translate(0.072 31.532)" fill="#e5e7eb"/>
        <rect id="Rectangle_43" data-name="Rectangle 43" width="2.225" height="16.606" rx="1.113" transform="translate(0 49)" fill="#e5e7eb"/>
        <rect id="Rectangle_44" data-name="Rectangle 44" width="2.118" height="16.75" rx="1.059" transform="translate(0.036 71.418)" fill="#e5e7eb"/>
        <rect id="Rectangle_45" data-name="Rectangle 45" width="117.645" height="239.097" rx="15" transform="translate(1.188)" fill="#eee"/>
        <rect id="Rectangle_46" data-name="Rectangle 46" width="16.43" height="3.335" rx="1.667" transform="translate(48.664 7.14)" fill="#e5e7eb"/>
        <circle id="Ellipse_56" data-name="Ellipse 56" cx="1.893" cy="1.893" r="1.893" transform="translate(67.574 6.915)" fill="#e5e7eb"/>
      </g>
      <path id="Path_455" data-name="Path 455" d="M568.511,90.09H555.044v1.632a7.7,7.7,0,0,1-7.695,7.691H504.412a7.7,7.7,0,0,1-7.695-7.691V90.09H484.083a9.343,9.343,0,0,0-9.343,9.343V307.389a9.343,9.343,0,0,0,9.343,9.343h84.429a9.343,9.343,0,0,0,9.343-9.343V99.433A9.343,9.343,0,0,0,568.511,90.09Z" transform="translate(-404.603 -82.179)" fill="#f2f2f5"/>
      <ellipse id="Ellipse_57" data-name="Ellipse 57" cx="18.662" cy="3.156" rx="18.662" ry="3.156" transform="translate(9.875 242.776)" fill="#f2f2f2"/>
      <path id="Path_456" data-name="Path 456" d="M335.251,785.9a5.463,5.463,0,0,0,1.778-2.686,2.392,2.392,0,0,0-1.243-2.734c-1.142-.437-2.363.352-3.286,1.152s-1.987,1.713-3.2,1.544a4.862,4.862,0,0,0,1.5-4.568,1.883,1.883,0,0,0-.418-.924c-.633-.679-1.782-.388-2.542.147-2.411,1.7-3.087,4.976-3.1,7.93a14.933,14.933,0,0,1-.046-3.263,3.364,3.364,0,0,0-1.224-2.891,3.717,3.717,0,0,0-1.873-.437,3.876,3.876,0,0,0-3.031.862,3.016,3.016,0,0,0,.117,3.727,11.72,11.72,0,0,0,3.142,2.516,6.958,6.958,0,0,1,2.242,2.141,1.929,1.929,0,0,1,.166.382h6.8A19.061,19.061,0,0,0,335.251,785.9Z" transform="translate(-298.996 -545.13)" fill="#f2f2f2"/>
      <g id="Group_20" data-name="Group 20" transform="translate(191.736 220.702)" opacity="0.4">
        <ellipse id="Ellipse_58" data-name="Ellipse 58" cx="10.651" cy="1.801" rx="10.651" ry="1.801" transform="translate(0 6.068)" fill="#f9f9f9"/>
        <path id="Path_457" data-name="Path 457" d="M873.161,747.108a3.113,3.113,0,0,0,1.018-1.53,1.367,1.367,0,0,0-.711-1.563,2.007,2.007,0,0,0-1.876.653,2.526,2.526,0,0,1-1.824.881,2.77,2.77,0,0,0,.858-2.611,1.063,1.063,0,0,0-.238-.525c-.362-.388-1.018-.222-1.449.082-1.377.979-1.762,2.842-1.772,4.526a8.664,8.664,0,0,1-.023-1.863,1.931,1.931,0,0,0-.7-1.651,2.128,2.128,0,0,0-1.067-.248,2.223,2.223,0,0,0-1.733.49,1.724,1.724,0,0,0,.068,2.128,6.657,6.657,0,0,0,1.795,1.436,4.01,4.01,0,0,1,1.279,1.22,1.1,1.1,0,0,1,.095.219h3.883A10.769,10.769,0,0,0,873.161,747.108Z" transform="translate(-858.108 -742.185)" fill="#f9f9f9"/>
      </g>
      <g id="Group_21" data-name="Group 21" transform="translate(28.603 200.46)" opacity="0.4">
        <ellipse id="Ellipse_59" data-name="Ellipse 59" cx="10.651" cy="1.801" rx="10.651" ry="1.801" transform="translate(0 6.068)" fill="#f2f2f2"/>
        <path id="Path_458" data-name="Path 458" d="M373.251,685.076a3.077,3.077,0,0,0,1.015-1.534,1.361,1.361,0,0,0-.711-1.56,2,2,0,0,0-1.873.653,2.526,2.526,0,0,1-1.824.881,2.787,2.787,0,0,0,.858-2.611,1.1,1.1,0,0,0-.238-.529c-.362-.385-1.018-.219-1.452.085-1.377.979-1.762,2.839-1.769,4.523a8.458,8.458,0,0,1-.026-1.863,1.87,1.87,0,0,0-.7-1.632,2.108,2.108,0,0,0-1.07-.251,2.2,2.2,0,0,0-1.729.493,1.724,1.724,0,0,0,.069,2.128,6.755,6.755,0,0,0,1.791,1.436,3.946,3.946,0,0,1,1.279,1.22,1.341,1.341,0,0,1,.1.219h3.88A10.864,10.864,0,0,0,373.251,685.076Z" transform="translate(-358.194 -680.153)" fill="#f2f2f2"/>
      </g>
      <rect id="Rectangle_47" data-name="Rectangle 47" width="16.672" height="16.672" transform="translate(78.047 25.177)" fill="#d6d8e0"/>
      <rect id="Rectangle_48" data-name="Rectangle 48" width="34.929" height="3.175" transform="translate(107.02 26.368)" fill="#d6d8e0"/>
      <rect id="Rectangle_49" data-name="Rectangle 49" width="57.553" height="3.175" transform="translate(107.02 31.925)" fill="#d6d8e0"/>
      <rect id="Rectangle_50" data-name="Rectangle 50" width="57.553" height="3.175" transform="translate(107.02 37.482)" fill="#d6d8e0"/>
      <rect id="Rectangle_51" data-name="Rectangle 51" width="16.672" height="16.672" transform="translate(78.174 55.74)" fill="#d6d8e0"/>
      <rect id="Rectangle_52" data-name="Rectangle 52" width="34.929" height="3.175" transform="translate(107.148 56.931)" fill="#d6d8e0"/>
      <rect id="Rectangle_53" data-name="Rectangle 53" width="57.553" height="3.175" transform="translate(107.148 62.488)" fill="#d6d8e0"/>
      <rect id="Rectangle_54" data-name="Rectangle 54" width="57.553" height="3.175" transform="translate(107.148 68.042)" fill="#d6d8e0"/>
      <rect id="Rectangle_55" data-name="Rectangle 55" width="16.672" height="16.672" transform="translate(78.301 86.303)" fill="#d6d8e0"/>
      <rect id="Rectangle_56" data-name="Rectangle 56" width="34.929" height="3.175" transform="translate(107.278 87.49)" fill="#d6d8e0"/>
      <rect id="Rectangle_57" data-name="Rectangle 57" width="57.553" height="3.175" transform="translate(107.278 93.048)" fill="#d6d8e0"/>
      <rect id="Rectangle_58" data-name="Rectangle 58" width="57.553" height="3.175" transform="translate(107.278 98.605)" fill="#d6d8e0"/>
      <rect id="Rectangle_59" data-name="Rectangle 59" width="16.672" height="16.672" transform="translate(78.428 116.862)" fill="#d6d8e0"/>
      <rect id="Rectangle_60" data-name="Rectangle 60" width="34.929" height="3.175" transform="translate(107.405 118.054)" fill="#d6d8e0"/>
      <rect id="Rectangle_61" data-name="Rectangle 61" width="57.553" height="3.175" transform="translate(107.405 123.611)" fill="#d6d8e0"/>
      <rect id="Rectangle_62" data-name="Rectangle 62" width="57.553" height="3.175" transform="translate(107.405 129.168)" fill="#d6d8e0"/>
      <rect id="Rectangle_63" data-name="Rectangle 63" width="16.672" height="16.672" transform="translate(78.559 147.425)" fill="#d6d8e0"/>
      <rect id="Rectangle_64" data-name="Rectangle 64" width="34.929" height="3.175" transform="translate(107.533 148.617)" fill="#d6d8e0"/>
      <rect id="Rectangle_65" data-name="Rectangle 65" width="57.553" height="3.175" transform="translate(107.533 154.174)" fill="#d6d8e0"/>
      <rect id="Rectangle_66" data-name="Rectangle 66" width="57.553" height="3.175" transform="translate(107.533 159.731)" fill="#d6d8e0"/>
      <rect id="Rectangle_67" data-name="Rectangle 67" width="16.672" height="16.672" transform="translate(78.686 177.989)" fill="#d6d8e0"/>
      <rect id="Rectangle_68" data-name="Rectangle 68" width="34.929" height="3.175" transform="translate(107.66 179.18)" fill="#d6d8e0"/>
      <rect id="Rectangle_69" data-name="Rectangle 69" width="57.553" height="3.175" transform="translate(107.66 184.737)" fill="#d6d8e0"/>
      <rect id="Rectangle_70" data-name="Rectangle 70" width="57.553" height="3.175" transform="translate(107.66 190.294)" fill="#d6d8e0"/>
      <rect id="Rectangle_71" data-name="Rectangle 71" width="16.672" height="16.672" transform="translate(78.813 208.552)" fill="#d6d8e0"/>
      <rect id="Rectangle_72" data-name="Rectangle 72" width="34.929" height="3.175" transform="translate(107.787 209.743)" fill="#d6d8e0"/>
      <rect id="Rectangle_73" data-name="Rectangle 73" width="57.553" height="3.175" transform="translate(107.787 215.3)" fill="#d6d8e0"/>
      <rect id="Rectangle_74" data-name="Rectangle 74" width="57.553" height="3.175" transform="translate(107.787 220.857)" fill="#d6d8e0"/>
      <rect id="Rectangle_75" data-name="Rectangle 75" width="142.096" height="35.324" transform="translate(50.645 75.446)" fill="url(#linear-gradient-2)"/>
      <rect id="Rectangle_76" data-name="Rectangle 76" width="140.905" height="33.738" transform="translate(51.438 76.242)" fill="#fff"/>
      <rect id="Rectangle_77" data-name="Rectangle 77" width="16.672" height="16.672" transform="translate(78.627 84.775)" fill="#22b473"/>
      <g id="Group_22" data-name="Group 22" transform="translate(107.604 85.967)" opacity="0.5">
        <rect id="Rectangle_78" data-name="Rectangle 78" width="34.929" height="3.175" fill="#4485f3"/>
        <rect id="Rectangle_79" data-name="Rectangle 79" width="57.553" height="3.175" transform="translate(0 5.557)" fill="#4485f3"/>
        <rect id="Rectangle_80" data-name="Rectangle 80" width="57.553" height="3.175" transform="translate(0 11.114)" fill="#4485f3"/>
      </g>
      <path id="Path_459" data-name="Path 459" d="M467.028,386.905a2.9,2.9,0,0,0-3.43-.522,5.037,5.037,0,0,0-1.7,2.307,17.865,17.865,0,0,0-1.778,3.935c-.754,3.886-3.847,6.9-5.087,10.661a21.18,21.18,0,0,1-1.354,4,12.743,12.743,0,0,1-1.109,1.527,43.008,43.008,0,0,0-4.242,6.471,5.206,5.206,0,0,0-1.932,1.2,6.667,6.667,0,0,1-2.611,1.237,2.464,2.464,0,0,0-1.07.392c-.45.375-.512,1.051-.878,1.5a2.342,2.342,0,0,1-.979.653c0-.114-.016-.228-.02-.346-.016-.6-.026-1.211-.026-1.818a6.833,6.833,0,0,0-.02-8.869,13.377,13.377,0,0,1,.375-2.8,1.245,1.245,0,0,0-.264-1.286c-.18-.14-.411-.193-.6-.326a2.63,2.63,0,0,1-.653-.829,3.524,3.524,0,0,0-4.431-1.132c-1.178.62-1.893,1.86-2.937,2.7-.535.431-1.152.754-1.687,1.188a7.006,7.006,0,0,0-2.183,3.55,20.337,20.337,0,0,0-.594,4.19,3.783,3.783,0,0,0,.049,1.273,3.361,3.361,0,0,0,.48.979,10.971,10.971,0,0,0,4.056,3.867,1.591,1.591,0,0,1,0,.251,1.8,1.8,0,0,1-.072.388l-.189-.052a7.49,7.49,0,0,1-2.079-.486c-1.07-.6-1.393-2.066-2.418-2.738a1.851,1.851,0,0,0-.274-.147,18.315,18.315,0,0,0-1.051-5.44,6.778,6.778,0,0,1-.623-2.578,6.337,6.337,0,0,1,.786-2.333,59.308,59.308,0,0,0,2.937-8.037q.813-2.568,1.632-5.14a8.1,8.1,0,0,0,1.433-1.364,7.273,7.273,0,0,0,1.661-3.567,5.051,5.051,0,0,0-.917-3.772,2.18,2.18,0,0,0-1.534-.94,1.994,1.994,0,0,0-1.433.653,6.37,6.37,0,0,0-1.227,2.108A9.409,9.409,0,0,0,428,391.366c.042,1.136.467,2.4-.2,3.328a79.616,79.616,0,0,0-5.528,9.812,17.554,17.554,0,0,0-1.116,2.46,13.706,13.706,0,0,0-.584,4.242,56.882,56.882,0,0,0,.718,8.04,10.332,10.332,0,0,0,.95,3.524,14.78,14.78,0,0,0-.584,3.968,2.262,2.262,0,0,0,.144.91,3.76,3.76,0,0,0,.721.907,4.063,4.063,0,0,1,.979,3.211,9.108,9.108,0,0,0,.29,3.217c.653,2.9,1.305,5.792,1.827,8.713a5.573,5.573,0,0,1,.124,1.658,9.779,9.779,0,0,0-.444,2.333,8.836,8.836,0,0,1,.209,1.116,2.758,2.758,0,0,1-.2.835c-.744,2.163-2.744,7.124-2.721,9.414l.522-.124c-.525,2.973-1.756,5.815-2.4,8.778a29.371,29.371,0,0,0-.607,6.566,24.355,24.355,0,0,1-.052,2.97c-.1.878-.326,1.736-.45,2.611a23.65,23.65,0,0,0-.157,3.534,36.089,36.089,0,0,0,.326,5.547c.5,3.133-.375,6.246-.613,9.408a56.547,56.547,0,0,1-.751,6.6c-.179.92-.4,1.834-.529,2.764-.365,2.761.166,5.606-.408,8.331-.271,1.276-.754,2.708-.042,3.8.225.343.548.61.793.94a1.194,1.194,0,0,1,.228,1.152c-.14.3-.467.5-.548.816-.131.5.395.914.865,1.129l.134.052a1.211,1.211,0,0,0,.255.979,2.076,2.076,0,0,0,1,.522l6.161,1.867a8.222,8.222,0,0,0,4.242.489,1.067,1.067,0,0,0,.245.529,2.075,2.075,0,0,0,1,.522l6.115,1.854c1.573.476,3.3.946,4.81.3a2.731,2.731,0,0,0,1.1-.832,2.911,2.911,0,0,0,.392-2.438,1.988,1.988,0,0,0-.594-1.09,2.61,2.61,0,0,0-1.423-.467,2.875,2.875,0,0,1-1.247-.326.9.9,0,0,1-.284-.3q.529-.522,1.025-1.083c-.268-.091-.362-.476-.388-.757-.388-4.157,1.178-8.22,1.772-12.351a26.43,26.43,0,0,0,.157-6.259c-.072-.786-.179-1.57-.212-2.359-.153-4.112,1.811-8.067,1.743-12.182-.033-1.925.979-3.824,1.472-5.688a20.589,20.589,0,0,0,.454-5.091l.078-13.464a16.846,16.846,0,0,0-.581-5.4,6.853,6.853,0,0,1-.235-2.956c1.661-.734,3.234-1.821,5.009-1.632.473-1.256-.088-5.443-.532-6.712a28.866,28.866,0,0,1-.979-15.546c.4-1.857-.15-3.831.3-5.681a3.436,3.436,0,0,1,.486-1.22,1.305,1.305,0,0,1,1.119-.591c0-1.132-.023-2.284-.1-3.433a8.158,8.158,0,0,0,1.818-2.092,32.253,32.253,0,0,0,2.212-5.244c1.2-3.133,2.832-6.073,4.206-9.137s1.508-6.415,2.611-9.587a7.205,7.205,0,0,1,3.508-4.04,5.6,5.6,0,0,0,1.821-1.1,2.937,2.937,0,0,0,.633-1.557,4.115,4.115,0,0,0-1.051-3.472ZM428.849,521.717c.134-.147.264-.294.388-.454-.411-.065-.914-.365-.923-.783a4.33,4.33,0,0,1,.268-1.224,4.895,4.895,0,0,0,.091-2.173c-.091-.506-.261-.979-.365-1.495a13.963,13.963,0,0,1-.2-1.69,27.96,27.96,0,0,0-1.188-5.991c-.591-1.889.219-3.8.427-5.769a11.373,11.373,0,0,1,.382-2.774c.193-.522.509-.979.7-1.508a6.9,6.9,0,0,0-.091-3.821c1.932-3.5,2.571-7.678,3.3-11.62q.613-3.319,1.227-6.634a6.463,6.463,0,0,1,.979-2.8,34.4,34.4,0,0,1,.744,8.922,13.246,13.246,0,0,0,.033,2.611c.15.95.545,1.847.773,2.78.509,2.059.212,4.223.326,6.34.042.855.153,1.71.189,2.565.16,3.782-1.106,7.46-2.356,11.033a40.944,40.944,0,0,0-1.305,6.973c-.346,2.2-.689,4.4-.865,6.611-.052.675-.095,1.37-.176,2.056a5.374,5.374,0,0,0-.636-.1,2.875,2.875,0,0,1-1.247-.326A1.452,1.452,0,0,1,428.849,521.717Z" transform="translate(-365.748 -280.625)" fill="url(#linear-gradient-3)"/>
      <path id="Path_460" data-name="Path 460" d="M469.968,814.836a2.647,2.647,0,0,1,1.423.463,1.981,1.981,0,0,1,.594,1.083,2.885,2.885,0,0,1-.392,2.425,2.708,2.708,0,0,1-1.1.822c-1.511.653-3.237.18-4.81-.294l-6.161-1.857a2.069,2.069,0,0,1-1-.519,1.357,1.357,0,0,1-.026-1.583,3.091,3.091,0,0,1,1.305-1.041,14.67,14.67,0,0,1,6.2-1.188c.783-.016,1.553-.186,2.085.418.281.326.232.672.653.95a2.825,2.825,0,0,0,1.233.32Z" transform="translate(-393.494 -569.267)" fill="#3f3d56"/>
      <path id="Path_461" data-name="Path 461" d="M434.3,804.455a2.61,2.61,0,0,1,1.423.46,2.013,2.013,0,0,1,.594,1.083,2.882,2.882,0,0,1-.392,2.425,2.715,2.715,0,0,1-1.1.826c-1.511.653-3.237.176-4.81-.3l-6.161-1.857a2.043,2.043,0,0,1-1-.519,1.358,1.358,0,0,1-.026-1.583,3.071,3.071,0,0,1,1.305-1.041,14.635,14.635,0,0,1,6.184-1.188c.78,0,1.553-.186,2.085.418.281.326.232.676.653.95a2.875,2.875,0,0,0,1.25.323Z" transform="translate(-369.464 -562.276)" fill="#3f3d56"/>
      <path id="Path_462" data-name="Path 462" d="M435.866,600.712a75.865,75.865,0,0,0-10.925-.307,2.146,2.146,0,0,0-.708.111c-.8.326-.927,1.377-1.005,2.239-.307,3.482-1.844,6.729-2.611,10.145a28.966,28.966,0,0,0-.607,6.526,23.98,23.98,0,0,1-.052,2.937c-.1.875-.326,1.726-.45,2.611a23.345,23.345,0,0,0-.157,3.511,35.622,35.622,0,0,0,.326,5.505c.5,3.113-.375,6.2-.613,9.346a55.914,55.914,0,0,1-.751,6.556c-.179.914-.4,1.821-.529,2.744-.365,2.744.166,5.574-.408,8.279-.271,1.266-.754,2.689-.042,3.772.225.343.548.607.793.933a1.185,1.185,0,0,1,.228,1.145c-.14.3-.467.493-.548.809-.13.5.395.91.865,1.122a9.015,9.015,0,0,0,10.494-2.594c-.411-.065-.914-.362-.923-.777a4.285,4.285,0,0,1,.268-1.217,4.829,4.829,0,0,0,.091-2.16c-.091-.5-.261-.979-.365-1.485a13.745,13.745,0,0,1-.2-1.677,27.613,27.613,0,0,0-1.188-5.952c-.591-1.876.219-3.776.427-5.733a11.236,11.236,0,0,1,.382-2.754c.193-.519.509-.979.7-1.5a6.809,6.809,0,0,0-.091-3.8c1.932-3.482,2.571-7.629,3.3-11.545l1.227-6.592a6.367,6.367,0,0,1,.979-2.78,33.967,33.967,0,0,1,.744,8.866,13.053,13.053,0,0,0,.033,2.575c.15.943.545,1.834.773,2.764.509,2.043.212,4.193.326,6.3.042.848.153,1.7.189,2.549.16,3.756-1.106,7.411-2.356,10.958a40.482,40.482,0,0,0-1.305,6.928c-.346,2.183-.689,4.366-.865,6.569-.16,2.023-.228,4.213-1.488,5.8a10.676,10.676,0,0,0,3.684,1.765,6.833,6.833,0,0,0,4.546-.878,14.358,14.358,0,0,0,3.589-3.054c-.268-.091-.362-.476-.388-.754-.388-4.128,1.178-8.158,1.772-12.27a26.1,26.1,0,0,0,.157-6.22c-.072-.78-.179-1.557-.212-2.34-.153-4.086,1.811-8.018,1.743-12.1-.033-1.912.979-3.8,1.472-5.652a20.276,20.276,0,0,0,.454-5.055l.078-13.379a16.646,16.646,0,0,0-.581-5.371c-.718-2.052.1-4.415.225-6.585a27.157,27.157,0,0,1-10.5,1.162Z" transform="translate(-365.681 -425.392)" fill="#3f3d56"/>
      <path id="Path_463" data-name="Path 463" d="M510.091,422.3a42.659,42.659,0,0,1,5-7.89,12.858,12.858,0,0,0,1.109-1.514,20.933,20.933,0,0,0,1.354-3.978c1.24-3.733,4.333-6.732,5.087-10.592a17.931,17.931,0,0,1,1.778-3.916,4.939,4.939,0,0,1,1.7-2.284,2.9,2.9,0,0,1,3.43.522,4.066,4.066,0,0,1,1.047,3.443,2.875,2.875,0,0,1-.633,1.547,5.67,5.67,0,0,1-1.821,1.093,7.147,7.147,0,0,0-3.508,4.01c-1.09,3.152-1.227,6.487-2.611,9.525s-3.009,5.959-4.206,9.068a31.26,31.26,0,0,1-2.212,5.221,6.426,6.426,0,0,1-4.425,3.244,11.114,11.114,0,0,0-.548-3.472C510.238,425.031,509.5,423.5,510.091,422.3Z" transform="translate(-428.269 -285.417)" fill="#ecb4b6"/>
      <path id="Path_464" data-name="Path 464" d="M434.6,421.909a18.1,18.1,0,0,0-1.057-6.781,6.713,6.713,0,0,1-.623-2.562,6.261,6.261,0,0,1,.786-2.317,58.671,58.671,0,0,0,2.937-7.988l1.632-5.1a8.158,8.158,0,0,0,1.433-1.354,7.225,7.225,0,0,0,1.661-3.544,5,5,0,0,0-.917-3.749,2.167,2.167,0,0,0-1.534-.93,1.974,1.974,0,0,0-1.433.653,6.31,6.31,0,0,0-1.227,2.095,9.3,9.3,0,0,0-1.025,3.916c.042,1.129.467,2.389-.2,3.306a79.051,79.051,0,0,0-5.528,9.747,17.363,17.363,0,0,0-1.116,2.444,13.549,13.549,0,0,0-.584,4.223,56.158,56.158,0,0,0,.718,7.988c.228,1.658.535,3.466,1.791,4.568A26.708,26.708,0,0,1,434.6,421.909Z" transform="translate(-372.988 -282.592)" fill="#ecb4b6"/>
      <circle id="Ellipse_60" data-name="Ellipse 60" cx="6.771" cy="6.771" r="6.771" transform="translate(63.15 127.05)" fill="#ecb4b6"/>
      <path id="Path_465" data-name="Path 465" d="M457.62,488.807a9.034,9.034,0,0,1-1.459,3.377c-.388.653-.878,1.348-1.632,1.419a32.629,32.629,0,0,0,6.148,2.474,6.99,6.99,0,0,0,2.248.362,5.493,5.493,0,0,0,1.87-.48,9.284,9.284,0,0,0,5.267-6.2,12.218,12.218,0,0,1-2.513-.193,1.854,1.854,0,0,1-1.233-.6,1.987,1.987,0,0,1-.255-1.093q-.049-1.694,0-3.387a13.379,13.379,0,0,0-4.921.6c-.653.212-1.305.47-1.974.636-.411.1-1.543,0-1.847.238C456.86,486.323,457.741,487.975,457.62,488.807Z" transform="translate(-390.988 -347.855)" fill="#ecb4b6"/>
      <path id="Path_466" data-name="Path 466" d="M444.85,490.384a4.258,4.258,0,0,0-3.237-3.779,7.487,7.487,0,0,1-2.079-.483c-1.07-.6-1.393-2.053-2.418-2.721a2.859,2.859,0,0,0-3.381.551,7.283,7.283,0,0,0-1.713,3.224,16.235,16.235,0,0,0-.878,4.944,2.245,2.245,0,0,0,.144.907,3.808,3.808,0,0,0,.721.9,4.007,4.007,0,0,1,.979,3.185,9.02,9.02,0,0,0,.29,3.2c.653,2.875,1.305,5.753,1.827,8.654a5.508,5.508,0,0,1,.124,1.632,9.657,9.657,0,0,0-.444,2.314,8.774,8.774,0,0,1,.209,1.113,2.7,2.7,0,0,1-.2.826c-.744,2.154-2.744,7.081-2.721,9.356a56.593,56.593,0,0,1,12.185-1.1,25.6,25.6,0,0,1,2.96.13c2.359.251,4.774.94,7.062.3,2.121-.591,4-2.284,6.2-2.069.473-1.25-.088-5.41-.532-6.67a28.5,28.5,0,0,1-.979-15.445c.4-1.847-.15-3.8.3-5.642a3.38,3.38,0,0,1,.486-1.214,1.305,1.305,0,0,1,1.119-.587,41.572,41.572,0,0,0-.816-8.788c-.219-1.028-.672-2.242-1.707-2.418-.933-.157-1.72.63-2.467,1.211a6.741,6.741,0,0,1-2.611,1.227,2.458,2.458,0,0,0-1.07.388c-.45.372-.512,1.044-.878,1.5-.653.813-2.111.741-2.575,1.677a5.873,5.873,0,0,0-.248.858,3.139,3.139,0,0,1-1.074,1.387A6.056,6.056,0,0,1,444.85,490.384Z" transform="translate(-375.232 -345.318)" fill="#7acea8"/>
      <path id="Path_467" data-name="Path 467" d="M463.293,445.8a1.238,1.238,0,0,0-.264-1.279c-.179-.14-.411-.193-.6-.326a2.611,2.611,0,0,1-.653-.826,3.544,3.544,0,0,0-4.441-1.119c-1.178.617-1.893,1.85-2.937,2.686-.535.431-1.152.751-1.687,1.178a6.964,6.964,0,0,0-2.183,3.531,20.091,20.091,0,0,0-.591,4.167,3.742,3.742,0,0,0,.049,1.266,3.326,3.326,0,0,0,.48.963A10.857,10.857,0,0,0,454.737,460a6.63,6.63,0,0,0,5.7.1,1.015,1.015,0,0,0,.437-.352,1.227,1.227,0,0,0,.065-.754,5.172,5.172,0,0,1,.571-2.885c.326-.653.813-1.214,1.077-1.893a6.723,6.723,0,0,0,.307-2.343A25.111,25.111,0,0,1,463.293,445.8Z" transform="translate(-387.87 -319.18)" fill="#2d293d"/>
      <rect id="Rectangle_81" data-name="Rectangle 81" width="16.672" height="16.672" transform="translate(78.559 84.975)" fill="#4485f3"/>
      <path id="Path_469" data-name="Path 469" d="M522.767,358.449a2.268,2.268,0,0,1-2.738.408c-.02-.065-.039-.127-.062-.186-.049-.144-.219-.414-.1-.535s.392-.117.5-.166a4.71,4.71,0,0,1,1.015-.454,2.467,2.467,0,0,1,.963.062.326.326,0,0,1,.121.046.28.28,0,0,1,.088.131C522.643,357.985,522.7,358.22,522.767,358.449Z" transform="translate(-434.977 -262.324)" opacity="0.1"/>
      <g id="Group_23" data-name="Group 23" transform="translate(82.854 92.568)" opacity="0.1">
        <path id="Path_472" data-name="Path 472" d="M520.018,352.518c-.121,0-.179-.147-.215-.258l-.228-.741c-.065-.2-.2-.45-.414-.431a.274.274,0,0,1-.153,0c-.049-.026-.055-.088-.068-.144-.075-.326-.48-.467-.826-.483a1.588,1.588,0,0,0-.431.029c-.441.095-.819.444-1.269.4a.953.953,0,0,0-.346,0c-.166.059-.225.248-.264.414-.114.506-.225,1.012-.326,1.514-.026.1-.075.232-.186.238-.049-.326-.16-.7-.486-.773a.677.677,0,0,1-.183-.042.206.206,0,0,1-.095-.108,1.059,1.059,0,0,1-.026.14.307.307,0,0,0,.121.326.83.83,0,0,0,.183.042c.326.072.437.457.486.773.111,0,.16-.134.186-.238.114-.506.225-1.012.326-1.517.039-.163.1-.356.264-.411a.826.826,0,0,1,.346,0c.45.039.829-.31,1.269-.408a1.73,1.73,0,0,1,.431-.026c.346,0,.751.16.826.483a.163.163,0,0,0,.069.144.274.274,0,0,0,.153,0c.219-.023.349.225.414.427l.228.741c.036.111.095.245.215.258a.228.228,0,0,0,.225-.2.651.651,0,0,0-.033-.261A.2.2,0,0,1,520.018,352.518Z" transform="translate(-514.237 -350.152)"/>
        <path id="Path_473" data-name="Path 473" d="M514,352.448c-.023-.15-.147-.268-.212-.4a.83.83,0,0,1-.075-.294v.163a1.028,1.028,0,0,0,.078.476c.052.111.144.209.189.326A.727.727,0,0,0,514,352.448Z" transform="translate(-513.711 -351.022)"/>
        <path id="Path_474" data-name="Path 474" d="M532.085,349.9a4.24,4.24,0,0,0-.186,1.305,7.939,7.939,0,0,1,.186-.953,2.5,2.5,0,0,0,.055-.731A2.943,2.943,0,0,1,532.085,349.9Z" transform="translate(-525.964 -349.52)"/>
      </g>
    </g>
    <ellipse id="Ellipse_124" data-name="Ellipse 124" cx="23.031" cy="3.779" rx="23.031" ry="3.779" transform="translate(111.053 341.486)" fill="#0f2337" opacity="0.1"/>
    <g id="Group_85" data-name="Group 85" transform="translate(8 -20)">
      <ellipse id="Ellipse_190" data-name="Ellipse 190" cx="58.016" cy="3.531" rx="58.016" ry="3.531" transform="translate(191.768 368.99)" fill="#0f2337" opacity="0.1"/>
      <g id="Group_84" data-name="Group 84" transform="translate(-462.302 -1797.565)">
        <path id="Path_1117" data-name="Path 1117" d="M379.806,488.07c-1.8,1.954-3.117,2.723-3.056.661C376.938,482.5,366,454.3,366,454.3l3.239-.244A84.173,84.173,0,0,1,379.806,488.07Z" transform="translate(367.936 1652.795)" fill="none"/>
        <path id="Path_1118" data-name="Path 1118" d="M390.615,580.09a15.587,15.587,0,0,1-31.118,1.34c-.023-.255-.038-.508-.046-.766h0V580.1a15.587,15.587,0,0,1,31.081-1.708,15.12,15.12,0,0,1,.084,1.7Z" transform="translate(372.586 1574.378)" fill="#0f2337"/>
        <circle id="Ellipse_182" data-name="Ellipse 182" cx="8.502" cy="8.502" r="8.502" transform="translate(739.109 2145.966)" fill="#dce0ed"/>
        <circle id="Ellipse_183" data-name="Ellipse 183" cx="5.101" cy="5.101" r="5.101" transform="translate(742.511 2149.367)" fill="#0f2337"/>
        <path id="Path_1119" data-name="Path 1119" d="M180.089,488.118l-37.539.757v-5.542c.336-4.454,4.9-6.017,9.074-6.507a26.1,26.1,0,0,1,9.7.728,66.705,66.705,0,0,0,15.537,2.558,2.384,2.384,0,0,1,2.305,1.937c.119.635.235,1.322.345,2,.084.534.162,1.058.235,1.549C179.95,487.019,180.089,488.118,180.089,488.118Z" transform="translate(526.588 1636.748)" fill="#0f2337"/>
        <path id="Path_1120" data-name="Path 1120" d="M176.9,502.682H98.924a3.071,3.071,0,0,1-2.842-1.839,2.14,2.14,0,0,1,1.111-2.824,8.842,8.842,0,0,0,3.839-4.7,46.647,46.647,0,0,0,1.963-12.3c.328-6.211,2.578-9.28,5.008-10.77h0a9.907,9.907,0,0,1,6.58-1.2l31.609.252a6.067,6.067,0,0,1,1.543,1.006c2.819,2.624-1.29,6.046-1.29,6.046-8.818,9.32-2.143,18.768-2.143,18.768H160.48a14.882,14.882,0,0,0,8.473-2.592,8.479,8.479,0,0,0,3.361-3.857c.249-.676.5-1.351.8-2,4.245-9.2-.87-24.176-3.083-29.776-.548-1.392-.916-2.2-.916-2.2l5.1-.386,3.207-.244h.032a84,84,0,0,1,10.582,34.01q.125,1.314.209,2.537A11.341,11.341,0,0,1,176.9,502.682Z" transform="translate(559.72 1652.795)" fill="#5b6d7e"/>
        <path id="Path_1121" data-name="Path 1121" d="M179.744,503.7H142.55V502.15h36.959C179.593,502.686,179.671,503.208,179.744,503.7Z" transform="translate(526.588 1618.651)" opacity="0.1"/>
        <path id="Path_1122" data-name="Path 1122" d="M177.438,506.683H138a.742.742,0,0,1-.29-.061,9.908,9.908,0,0,1,6.58-1.2l31.609.252A6.065,6.065,0,0,1,177.438,506.683Z" transform="translate(530.025 1616.421)" opacity="0.1"/>
        <rect id="Rectangle_183" data-name="Rectangle 183" width="55.115" height="1.546" rx="0.773" transform="translate(653.45 2121.181)" fill="#dce0ed"/>
        <path id="Path_1123" data-name="Path 1123" d="M379.806,488.07c-1.8,1.954-3.117,2.723-3.056.661C376.938,482.5,366,454.3,366,454.3l3.239-.244A84.173,84.173,0,0,1,379.806,488.07Z" transform="translate(367.936 1652.795)" opacity="0.1"/>
        <path id="Path_1124" data-name="Path 1124" d="M390.519,578.4c-1.859.447-4.161.9-7,1.317q-1.577.229-3.393.447c-2.9.342-6.246.644-10.115.87q-1.644.1-3.416.18-3.314.151-7.1.232l-.046-.766h0c3.523-1.424,9.068-5.22,9.961-15.105a15.593,15.593,0,0,1,21.108,12.835Z" transform="translate(372.586 1574.361)" opacity="0.1"/>
        <path id="Path_1125" data-name="Path 1125" d="M349.32,550.21s17.886-1.952,11.733-29.21c0,0,8.842,8.12,14.34,12.612s15.3,10.729,15.3,10.729S384.84,549.8,349.32,550.21Z" transform="translate(379.779 1605.267)" fill="#5b6d7e"/>
        <path id="Path_1126" data-name="Path 1126" d="M349.32,550.21s17.886-1.952,11.733-29.21c0,0,8.842,8.12,14.34,12.612s15.3,10.729,15.3,10.729S384.84,549.8,349.32,550.21Z" transform="translate(379.779 1605.267)" fill="#fff" opacity="0.1"/>
        <circle id="Ellipse_184" data-name="Ellipse 184" cx="15.587" cy="15.587" r="15.587" transform="translate(665.708 2138.882)" fill="#0f2337"/>
        <circle id="Ellipse_185" data-name="Ellipse 185" cx="8.502" cy="8.502" r="8.502" transform="translate(672.792 2145.966)" fill="#dce0ed"/>
        <circle id="Ellipse_186" data-name="Ellipse 186" cx="5.101" cy="5.101" r="5.101" transform="translate(676.194 2149.367)" fill="#0f2337"/>
        <path id="Path_1127" data-name="Path 1127" d="M157.3,557.479a17.86,17.86,0,1,0-35.712,0c0,.426.017.847.043,1.264h35.625C157.287,558.317,157.3,557.9,157.3,557.479Z" transform="translate(541.47 1592.309)" opacity="0.1"/>
        <path id="Path_1128" data-name="Path 1128" d="M158.259,558.023a17.2,17.2,0,1,0-34.389,0,11.263,11.263,0,0,0,.043,1.215h34.3C158.245,558.846,158.259,558.44,158.259,558.023Z" transform="translate(539.851 1591.443)" fill="#5b6d7e"/>
        <path id="Path_1129" data-name="Path 1129" d="M158.245,558.023c0,.29,0,.56-.02.838a2.33,2.33,0,0,1-.02.377H123.893c0-.125-.017-.249-.023-.377,0-.29-.02-.557-.02-.838a17.2,17.2,0,1,1,34.4,0Z" transform="translate(539.866 1591.443)" fill="#fff" opacity="0.1"/>
        <path id="Path_1130" data-name="Path 1130" d="M158.275,603.92a2.329,2.329,0,0,1-.02.377H123.943c0-.125-.017-.249-.023-.377Z" transform="translate(539.816 1546.393)" opacity="0.1"/>
        <rect id="Rectangle_184" data-name="Rectangle 184" width="46.195" height="4.031" rx="2.015" transform="translate(656.199 2151.07)" opacity="0.1"/>
        <rect id="Rectangle_185" data-name="Rectangle 185" width="46.195" height="4.031" rx="2.015" transform="translate(656.199 2150.69)" fill="#dce0ed"/>
        <ellipse id="Ellipse_187" data-name="Ellipse 187" cx="2.262" cy="5.698" rx="2.262" ry="5.698" transform="translate(737.91 2114.952) rotate(-24.33)" opacity="0.1"/>
        <ellipse id="Ellipse_188" data-name="Ellipse 188" cx="2.262" cy="5.698" rx="2.262" ry="5.698" transform="translate(738.097 2114.763) rotate(-24.33)" fill="#dce0ed"/>
        <path id="Path_1131" data-name="Path 1131" d="M356.729,454.06v2.961H350.97a10.026,10.026,0,0,1-1.6-.128c-.548-1.392-.916-2.2-.916-2.2l5.089-.386Z" transform="translate(380.397 1652.795)" opacity="0.1"/>
        <path id="Path_1132" data-name="Path 1132" d="M340.463,419.661H334.7c-5.063,0-9.164-3.787-9.164-8.459v-.783c0-4.672,4.1-8.459,9.164-8.459l5.762.522Z" transform="translate(396.663 1689.787)" fill="#5b6d7e"/>
        <path id="Path_1133" data-name="Path 1133" d="M329.118,418.736s3.448,1.841,1.464,4.959c0,0-2.433,3.993-6.261,3.613l-1.392-8.572S327.512,418.31,329.118,418.736Z" transform="translate(398.516 1678.01)" fill="#5b6d7e"/>
        <path id="Path_1134" data-name="Path 1134" d="M327.822,418.594a3.662,3.662,0,0,1,2.8,1.479,3.033,3.033,0,0,1,0,3.648s-2.433,3.993-6.261,3.613l-1.392-8.572A42.787,42.787,0,0,1,327.822,418.594Z" transform="translate(398.488 1677.984)" opacity="0.1"/>
        <path id="Path_1135" data-name="Path 1135" d="M333.36,250.51h0a4.64,4.64,0,0,1,4.64,4.64v7.92a4.64,4.64,0,0,1-4.64,4.64h0Z" transform="translate(403.58 1841.753)" opacity="0.1"/>
        <path id="Path_1136" data-name="Path 1136" d="M334,250.51h0a4.64,4.64,0,0,1,4.64,4.64v7.92a4.64,4.64,0,0,1-4.64,4.64h0Z" transform="translate(403.126 1841.753)" fill="#dce0ed"/>
        <ellipse id="Ellipse_189" data-name="Ellipse 189" cx="3.828" cy="4.657" rx="3.828" ry="4.657" transform="translate(717.218 2096.546)" fill="#5b6d7e"/>
        <path id="Path_1137" data-name="Path 1137" d="M137.95,355.6l1.673,3.723,2.8-3.723" transform="translate(542.324 1767.138)" fill="none" stroke="#000" stroke-miterlimit="10" stroke-width="1"/>
        <rect id="Rectangle_186" data-name="Rectangle 186" width="13.641" height="13.406" transform="translate(674.982 2126.618)" fill="#fff"/>
        <path id="Path_1138" data-name="Path 1138" d="M178.365,536.523v-1.5a4.318,4.318,0,0,1-2.265-.65l.354-.992a4.593,4.593,0,0,0,2.3.635c1.05,0,1.76-.606,1.76-1.45s-.58-1.316-1.673-1.76c-1.511-.595-2.273-1.273-2.273-2.564a2.35,2.35,0,0,1,2.152-2.381v-1.5h.748v1.45a3.941,3.941,0,0,1,1.926.519l-.371.977a3.216,3.216,0,0,0-1.781-.5c-1.14,0-1.4.681-1.4,1.273,0,.771.38,1.16,1.667,1.688,1.525.621,2.462,1.392,2.462,2.708A2.58,2.58,0,0,1,179.635,535v1.54Z" transform="translate(502.767 1602.874)" fill="#636780"/>
      </g>
    </g>
  </g>
</svg>
