<svg xmlns="http://www.w3.org/2000/svg" width="342.487" height="278.796" viewBox="0 0 342.487 278.796">
  <g id="Group_90" data-name="Group 90" transform="translate(-21.451 -68.344)">
    <path id="Path_475" data-name="Path 475" d="M257.238,76.4C243.57,88,225.843,87.249,210.308,81.212S180.5,64.43,165.367,56.791a126.174,126.174,0,0,0-39.483-12.479c-19.291-2.677-40.833.591-54.273,19.338-14.967,20.886-13.818,58.558,2.364,77.718,8.236,9.752,19.019,14.539,28.422,22.163s18.112,20.26,17.311,34.959c-.742,13.593-9.362,24.045-18.283,30.6-6.894,5.062-15.384,10.591-16.215,21.079-.8,10.145,6.336,18.1,13.153,22.618,22.24,14.749,49.645,14.607,71.808-.372,7.9-5.346,15.159-12.456,23.448-16.616,21.764-10.934,45.747.071,68.794,4.1a114.474,114.474,0,0,0,58.51-5.165c11.412-4.087,22.869-10.343,30.886-21.974,5.783-8.392,9.385-19.016,12.766-29.506q5.408-16.776,10.4-33.794c1.995-6.811,3.96-13.753,4.477-21.037.934-13.2-3-26.256-8.363-37.4-12.727-26.457-34.163-45.059-57.379-49.784s-47.775,4.5-65.78,24.7" transform="matrix(0.999, -0.035, 0.035, 0.999, -41.105, 38.124)" fill="#fff" opacity="0.12"/>
    <g id="undraw_note_list_etto" transform="translate(53.852 123.863)">
      <path id="Path_416" data-name="Path 416" d="M422.087,802.562v1.429a5.233,5.233,0,0,1-1.986,4.034,6.5,6.5,0,0,1-4.649,1.395c-12.424-1.063-24.79-3.04-37.255-2.694-22.982.631-46.154,9.095-68.4,3.866-6.274-1.474-12.478-4.037-18.932-3.486-5.791.494-10.945,3.443-16.555,4.826-17.063,4.217-34.437-6.44-52.126-6.009-11.659.286-22.823,5.4-34.469,4.829-6.75-.326-13.179-2.549-19.764-3.917-16.394-3.412-33.276-1.506-50.168-.323a4.752,4.752,0,0,1-3.355-1.051A3.829,3.829,0,0,1,113,802.53v-1.223a4.239,4.239,0,0,1,4.443-4l298.589-.217c3.35,0,6.062,2.455,6.055,5.472Z" transform="translate(-112 -589.643)" fill="#5b6d7e" opacity="0.06"/>
      <path id="Path_418" data-name="Path 418" d="M554.844,789.309c0,.889-1.653,1.743-4.7,2.543-12.2,3.2-46.7,5.505-87.426,5.505-40.062,0-74.149-2.233-86.819-5.356-3.412-.841-5.308-1.747-5.308-2.692a1.3,1.3,0,0,1,.675-.978l182.665-.161C554.533,788.544,554.844,788.907,554.844,789.309Z" transform="translate(-319.686 -585.271)" opacity="0.1"/>
      <g id="Group_15" data-name="Group 15" transform="translate(157.721 -20)">
        <rect id="Rectangle_3" data-name="Rectangle 3" width="114.862" height="34.573" rx="6" fill="#36334a"/>
        <rect id="Rectangle_4" data-name="Rectangle 4" width="26.573" height="6" transform="translate(14.001 7.429)" fill="#22b473"/>
        <rect id="Rectangle_5" data-name="Rectangle 5" width="81.432" height="3.143" transform="translate(14.001 17.144)" fill="#22b473" opacity="0.3"/>
        <rect id="Rectangle_6" data-name="Rectangle 6" width="32.573" height="3.143" transform="translate(14.001 24.001)" fill="#22b473" opacity="0.3"/>
      </g>
      <g id="Group_16" data-name="Group 16" transform="translate(20.715 14.414)">
        <rect id="Rectangle_7" data-name="Rectangle 7" width="114.862" height="34.573" rx="17.286" fill="#36334a"/>
        <rect id="Rectangle_8" data-name="Rectangle 8" width="26.573" height="6" transform="translate(14.001 7.429)" fill="#36334a"/>
        <rect id="Rectangle_9" data-name="Rectangle 9" width="81.432" height="3.143" transform="translate(14.001 17.144)" fill="#36334a"/>
        <rect id="Rectangle_10" data-name="Rectangle 10" width="32.573" height="3.143" transform="translate(14.001 24.001)" fill="#36334a"/>
        <rect id="Rectangle_11" data-name="Rectangle 11" width="114.862" height="34.573" rx="6" fill="#5b6d7e"/>
        <rect id="Rectangle_12" data-name="Rectangle 12" width="26.573" height="6" transform="translate(14.001 7.429)" fill="#22b473"/>
        <rect id="Rectangle_13" data-name="Rectangle 13" width="81.432" height="3.143" transform="translate(14.001 17.144)" fill="#22b473" opacity="0.3"/>
        <rect id="Rectangle_14" data-name="Rectangle 14" width="32.573" height="3.143" transform="translate(14.001 24.001)" fill="#22b473" opacity="0.3"/>
      </g>
      <rect id="Rectangle_15" data-name="Rectangle 15" width="2.946" height="24.292" rx="1.473" transform="translate(190.745 51.71)" fill="#878787"/>
      <rect id="Rectangle_16" data-name="Rectangle 16" width="1.654" height="7.997" rx="0.827" transform="translate(92.792 32.677)" fill="#878787"/>
      <rect id="Rectangle_17" data-name="Rectangle 17" width="1.863" height="13.921" rx="0.931" transform="translate(92.732 47.318)" fill="#878787"/>
      <rect id="Rectangle_18" data-name="Rectangle 18" width="1.774" height="14.041" rx="0.887" transform="translate(92.761 66.11)" fill="#878787"/>
      <rect id="Rectangle_19" data-name="Rectangle 19" width="98.604" height="200.399" rx="12" transform="translate(93.729 6.248)" fill="#dedede"/>
      <rect id="Rectangle_20" data-name="Rectangle 20" width="13.769" height="2.797" rx="1.399" transform="translate(133.52 12.234)" fill="#e6e8ec"/>
      <circle id="Ellipse_44" data-name="Ellipse 44" cx="1.586" cy="1.586" r="1.586" transform="translate(149.372 12.045)" fill="#e6e8ec"/>
      <path id="Path_419" data-name="Path 419" d="M548.776,126.022V300.314a7.832,7.832,0,0,1-7.832,7.829H470.182a7.832,7.832,0,0,1-7.832-7.829V126.022a7.832,7.832,0,0,1,7.832-7.832h10.589v1.374a6.452,6.452,0,0,0,6.449,6.449h36a6.449,6.449,0,0,0,6.435-6.449V118.2h11.289a7.832,7.832,0,0,1,7.832,7.817Z" transform="translate(-362.532 -106.722)" fill="#fff"/>
      <rect id="Rectangle_21" data-name="Rectangle 21" width="8.858" height="1.143" transform="translate(105.29 28.126)" fill="#3f3d56"/>
      <rect id="Rectangle_22" data-name="Rectangle 22" width="8.858" height="1.143" transform="translate(105.29 30.126)" fill="#3f3d56"/>
      <rect id="Rectangle_23" data-name="Rectangle 23" width="8.858" height="1.143" transform="translate(105.29 32.126)" fill="#3f3d56"/>
      <path id="Path_420" data-name="Path 420" d="M740.4,177.5h-.26l-.1-.083a2.175,2.175,0,0,0,.509-1.4,2.126,2.126,0,1,0-2.114,2.137,2.209,2.209,0,0,0,1.394-.509l.1.083V178l1.64,1.643.491-.491Zm-1.966,0a1.471,1.471,0,1,1,1.045-.433,1.48,1.48,0,0,1-1.045.433Z" transform="translate(-563.207 -146.522)" fill="#3f3d56"/>
      <rect id="Rectangle_27" data-name="Rectangle 27" width="26.573" height="6" transform="translate(105.29 48.412)" fill="#22b473"/>
      <rect id="Rectangle_28" data-name="Rectangle 28" width="74.396" height="3.143" transform="translate(105.29 58.127)" fill="#22b473" opacity="0.3"/>
      <rect id="Rectangle_29" data-name="Rectangle 29" width="32.573" height="3.143" transform="translate(105.29 64.984)" fill="#22b473" opacity="0.3"/>
      <rect id="Rectangle_30" data-name="Rectangle 30" width="26.573" height="6" transform="translate(105.29 118.129)" fill="#22b473"/>
      <rect id="Rectangle_31" data-name="Rectangle 31" width="74.396" height="3.143" transform="translate(105.29 127.844)" fill="#22b473" opacity="0.3"/>
      <rect id="Rectangle_32" data-name="Rectangle 32" width="32.573" height="3.143" transform="translate(105.29 134.701)" fill="#22b473" opacity="0.3"/>
      <rect id="Rectangle_33" data-name="Rectangle 33" width="26.573" height="6" transform="translate(105.29 152.988)" fill="#22b473"/>
      <rect id="Rectangle_34" data-name="Rectangle 34" width="74.396" height="3.143" transform="translate(105.29 162.703)" fill="#22b473" opacity="0.3"/>
      <rect id="Rectangle_35" data-name="Rectangle 35" width="32.573" height="3.143" transform="translate(105.29 169.56)" fill="#22b473" opacity="0.3"/>
      <circle id="Ellipse_45" data-name="Ellipse 45" cx="9.715" cy="9.715" r="9.715" transform="translate(159.435 174.703)" fill="#22b473"/>
      <path id="Path_421" data-name="Path 421" d="M696.616,712.96v4.695a.357.357,0,0,1-.357.357h-9.572a.357.357,0,0,1-.357-.357v-7.477a.357.357,0,0,1,.357-.357h6.66" transform="translate(-522.515 -529.308)" fill="none" stroke="#fff" stroke-linecap="round" stroke-miterlimit="10" stroke-width="1"/>
      <line id="Line_2" data-name="Line 2" x2="6.475" transform="translate(165.627 183.275)" fill="none" stroke="#fff" stroke-linecap="round" stroke-miterlimit="10" stroke-width="1"/>
      <line id="Line_3" data-name="Line 3" x2="6.477" transform="translate(165.721 184.609)" fill="none" stroke="#fff" stroke-linecap="round" stroke-miterlimit="10" stroke-width="1"/>
      <line id="Line_4" data-name="Line 4" x2="6.477" transform="translate(165.815 185.941)" fill="none" stroke="#fff" stroke-linecap="round" stroke-miterlimit="10" stroke-width="1"/>
      <line id="Line_5" data-name="Line 5" y2="3.237" transform="translate(172.864 180.132)" fill="none" stroke="#f0f" stroke-miterlimit="10" stroke-width="1"/>
      <line id="Line_6" data-name="Line 6" x1="3.24" transform="translate(171.244 181.752)" fill="none" stroke="#f0f" stroke-miterlimit="10" stroke-width="1"/>
      <line id="Line_7" data-name="Line 7" y2="3.237" transform="translate(172.864 180.132)" fill="none" stroke="#fff" stroke-linecap="round" stroke-miterlimit="10" stroke-width="1"/>
      <line id="Line_8" data-name="Line 8" x1="3.24" transform="translate(171.244 181.752)" fill="none" stroke="#fff" stroke-linecap="round" stroke-miterlimit="10" stroke-width="1"/>
      <path id="Path_422" data-name="Path 422" d="M992.456,706c.857-1.574-.114-3.506-1.226-4.909s-2.46-2.857-2.432-4.654c.043-2.571,2.771-4.089,4.952-5.454A24,24,0,0,0,998.2,687.4a6.516,6.516,0,0,0,1.366-1.829,7.414,7.414,0,0,0,.411-3.249q-.146-5.5-.546-11" transform="translate(-738.56 -501.816)" fill="none" stroke="#3f3d56" stroke-miterlimit="10" stroke-width="4"/>
      <path id="Path_423" data-name="Path 423" d="M1020.527,661.07a4,4,0,0,0-2-3.286l-.9,1.777.029-2.152a4.061,4.061,0,0,0-1.323-.16,4,4,0,1,0,4.194,3.82Z" transform="translate(-755.513 -491.756)" fill="#57b894"/>
      <path id="Path_424" data-name="Path 424" d="M996.593,751.034a4,4,0,1,1,.194-3.229l-2.506,2.037,2.757-.637A4,4,0,0,1,996.593,751.034Z" transform="translate(-738.732 -554.579)" fill="#57b894"/>
      <path id="Path_425" data-name="Path 425" d="M997.844,718.33a4,4,0,0,1-1.271-7.866l-.023,1.651.909-1.8h0a4,4,0,0,1,4.192,3.817,3.953,3.953,0,0,1-.171,1.369A4,4,0,0,1,997.844,718.33Z" transform="translate(-741.963 -529.661)" fill="#57b894"/>
      <path id="Path_426" data-name="Path 426" d="M1032.252,695.707a4,4,0,1,1,1.774-7.506l-.709,1.943,1.457-1.4a4,4,0,0,1,1.3,2.763,3.935,3.935,0,0,1-.1,1.106A4,4,0,0,1,1032.252,695.707Z" transform="translate(-766.636 -513.515)" fill="#57b894"/>
      <path id="Path_427" data-name="Path 427" d="M1020.034,667.627c-.926.1-1.826.389-2.755.446a3,3,0,0,1-2.537-.886,12.4,12.4,0,0,1-.74-1.306,2.857,2.857,0,0,0-1.012-.951,4,4,0,1,0,7.5,2.663Q1020.263,667.6,1020.034,667.627Z" transform="translate(-755.561 -497.244)" opacity="0.1"/>
      <path id="Path_428" data-name="Path 428" d="M1032.114,701.415a4,4,0,0,1-3.814-5.715,2.964,2.964,0,0,1,.806.806,13.091,13.091,0,0,0,.795,1.326,3.285,3.285,0,0,0,2.66.931c.969-.043,1.9-.32,2.857-.409.134,0,.269-.02.406-.023A4,4,0,0,1,1032.114,701.415Z" transform="translate(-766.497 -519.223)" opacity="0.1"/>
      <path id="Path_429" data-name="Path 429" d="M998.045,724.256a4,4,0,0,1-3.846-5.646,3.283,3.283,0,0,1,.857.814,13.456,13.456,0,0,0,.871,1.354,3.723,3.723,0,0,0,2.837.994c1.023-.023,1.952-.266,2.937-.343A4,4,0,0,1,998.045,724.256Z" transform="translate(-742.163 -535.587)" opacity="0.1"/>
      <path id="Path_430" data-name="Path 430" d="M996.326,757.442a4.005,4.005,0,1,1-7.312-3.272,3.957,3.957,0,0,1,.88.786,17.43,17.43,0,0,0,1.074,1.429,5,5,0,0,0,3.323,1.169A17.114,17.114,0,0,0,996.326,757.442Z" transform="translate(-738.464 -560.986)" opacity="0.1"/>
      <path id="Path_431" data-name="Path 431" d="M980.43,782.036s3.166-.1,4.12-.777,4.857-1.489,5.1-.4,4.757,5.429,1.186,5.446-8.3-.554-9.258-1.143S980.43,782.036,980.43,782.036Z" transform="translate(-732.583 -579.668)" fill="#656380"/>
      <path id="Path_432" data-name="Path 432" d="M990.9,790.18c-3.574.029-8.3-.557-9.255-1.143-.726-.443-1.014-2.026-1.111-2.757h-.106s.2,2.554,1.143,3.143,5.683,1.163,9.258,1.143c1.031,0,1.386-.374,1.366-.917C992.062,789.969,991.67,790.172,990.9,790.18Z" transform="translate(-732.583 -583.922)" opacity="0.2"/>
      <path id="Path_433" data-name="Path 433" d="M545.968,364.906v23.7a5.429,5.429,0,0,1-5.429,5.429H462.35V359.46h78.189a5.429,5.429,0,0,1,5.429,5.446Z" transform="translate(-362.532 -279.055)" fill="#d8d8d8"/>
      <rect id="Rectangle_36" data-name="Rectangle 36" width="114.862" height="34.573" rx="17.286" transform="translate(59.431 75.556)" fill="#f2f2f2"/>
      <rect id="Rectangle_37" data-name="Rectangle 37" width="114.862" height="34.573" rx="7" transform="translate(59.431 75.556)" fill="#fff"/>
      <rect id="Rectangle_38" data-name="Rectangle 38" width="26.573" height="6" transform="translate(73.431 82.985)" fill="#22b473"/>
      <rect id="Rectangle_39" data-name="Rectangle 39" width="81.432" height="3.143" transform="translate(73.431 92.7)" fill="#22b473" opacity="0.3"/>
      <rect id="Rectangle_40" data-name="Rectangle 40" width="32.573" height="3.143" transform="translate(73.431 99.557)" fill="#22b473" opacity="0.3"/>
      <circle id="Ellipse_46" data-name="Ellipse 46" cx="10.215" cy="10.215" r="10.215" transform="translate(16.169 51.581)" fill="#3f3d56"/>
      <path id="Path_434" data-name="Path 434" d="M143.431,556.036c1.054,7.4-.231,14.941-2.234,22.138a16.44,16.44,0,0,1-1.477,3.894,41.547,41.547,0,0,1-2.5,3.369,29.247,29.247,0,0,0-3.66,7.9,222.77,222.77,0,0,0-6.52,23.235,1.592,1.592,0,0,0,0,.992c.249.571,1,.646,1.623.643l8.017-.043c.286-.549-.243-1.143-.571-1.669-1.143-1.777-.046-4.086.963-5.946a63.928,63.928,0,0,0,5.652-14.286,38.737,38.737,0,0,1,1.886-6.209c1.077-2.394,2.766-4.454,4.137-6.695a56.078,56.078,0,0,0,3.912-8.266,53.553,53.553,0,0,0,3.872-12.129,48.456,48.456,0,0,0-.086-11.946.754.754,0,0,0-.874-.857l-10.758-.554c-2.217-.114-2.743-.6-2.406,1.577C142.643,552.807,143.2,554.39,143.431,556.036Z" transform="translate(-122.973 -414.78)" fill="#3f3d56"/>
      <path id="Path_435" data-name="Path 435" d="M143.431,556.036c1.054,7.4-.231,14.941-2.234,22.138a16.44,16.44,0,0,1-1.477,3.894,41.547,41.547,0,0,1-2.5,3.369,29.247,29.247,0,0,0-3.66,7.9,222.77,222.77,0,0,0-6.52,23.235,1.592,1.592,0,0,0,0,.992c.249.571,1,.646,1.623.643l8.017-.043c.286-.549-.243-1.143-.571-1.669-1.143-1.777-.046-4.086.963-5.946a63.928,63.928,0,0,0,5.652-14.286,38.737,38.737,0,0,1,1.886-6.209c1.077-2.394,2.766-4.454,4.137-6.695a56.078,56.078,0,0,0,3.912-8.266,53.553,53.553,0,0,0,3.872-12.129,48.456,48.456,0,0,0-.086-11.946.754.754,0,0,0-.874-.857l-10.758-.554c-2.217-.114-2.743-.6-2.406,1.577C142.643,552.807,143.2,554.39,143.431,556.036Z" transform="translate(-122.973 -414.78)" opacity="0.1"/>
      <path id="Path_436" data-name="Path 436" d="M182.279,507.485c-2.186,3.143-4.477,6.76-3.752,10.523.551,2.857,2.729,5.072,4.783,7.143,8.212,8.246,16.286,17.406,19.081,28.707.72,2.92,1.069,5.917,1.689,8.857a97.813,97.813,0,0,0,5.143,15.529l5.349,13.538a8.1,8.1,0,0,0,7.743-5.143,3.391,3.391,0,0,1-2.032-1.306c-2.286-3.163-2.754-7.232-3.34-11.089-.649-4.263-1.514-8.492-2.383-12.718l-3.829-18.692c-.443-2.157-.886-4.317-1.463-6.44-2.234-8.237-6.469-16-7.123-24.518-.1-1.251-.157-2.626-1.006-3.554-.891-.98-2.354-1.143-3.677-1.22C192.111,506.748,187.494,506.225,182.279,507.485Z" transform="translate(-159.707 -384.216)" fill="#3f3d56"/>
      <path id="Path_437" data-name="Path 437" d="M125.17,779.942a8.532,8.532,0,0,0-1.777-.229,3.691,3.691,0,0,0-2.9,1.586,7.214,7.214,0,0,0-.78,1.714l-.774,2.223a2.472,2.472,0,0,0-.111,2,2.12,2.12,0,0,0,1.04.814,19.236,19.236,0,0,0,6.029,1.08c1.983.194,3.949.543,5.906.911.674.126,1.346.254,2.029.323a24.165,24.165,0,0,0,4.589-.137l1.574-.151a5.669,5.669,0,0,0,1.549-.286,1.952,1.952,0,0,0,1.143-1.026,1.83,1.83,0,0,0-1.466-2.286c-.414-.083-.843-.046-1.263-.1a5.973,5.973,0,0,1-1.383-.414,27.245,27.245,0,0,1-5.82-2.837c-.491-.346-1.006-.829-.951-1.429a2.912,2.912,0,0,1,.254-.74,2.7,2.7,0,0,0,.023-1.911c-.1-.263-.286-.54-.551-.571-.754-.091-.663,1.009-.774,1.429-.151.571-.426.623-.963.571C128.244,780.311,126.7,780.234,125.17,779.942Z" transform="translate(-117.035 -578.344)" fill="#f2f2f2"/>
      <path id="Path_438" data-name="Path 438" d="M299.263,785a5.043,5.043,0,0,0,1.091,3.072,2.389,2.389,0,0,0,.777.626,3.121,3.121,0,0,0,1.414.226,11.444,11.444,0,0,0,3.969-.8,11.361,11.361,0,0,1,1.371-.517,15.413,15.413,0,0,1,1.783-.257c2.363-.34,4.437-1.734,6.72-2.44a14.136,14.136,0,0,0,2-.657,9.169,9.169,0,0,0,2.352-1.837,4.21,4.21,0,0,0,1.543-3.892.74.74,0,0,0-.069-.4.6.6,0,0,0-.257-.2,3.731,3.731,0,0,0-2.286-.037,40.623,40.623,0,0,1-8.44.311,1.226,1.226,0,0,1-1.3-.74l-1.071-1.714c-.306-.492-.792-1.054-1.346-.886a1.1,1.1,0,0,0-.606,1.143,6.11,6.11,0,0,1,.071,1.383,1.889,1.889,0,0,1-.914,1.189,5.839,5.839,0,0,1-1.429.549,10.972,10.972,0,0,0-4.632,2.112C299.126,782.053,299.209,783.9,299.263,785Z" transform="translate(-246.021 -575.731)" fill="#f2f2f2"/>
      <path id="Path_439" data-name="Path 439" d="M269.859,382.693a6.621,6.621,0,0,0,1.56-1.7,6.917,6.917,0,0,0,.666-2.346l.449-2.834a8.54,8.54,0,0,1,1.583-4.409c1.043-1.191,3.12-1.617,4.18-.44a3.667,3.667,0,0,1,.76,1.9,13.812,13.812,0,0,1-3.377,11.429c-1.283,1.406-2.857,2.523-4.214,3.852-1.183,1.143-2.209,2.454-3.3,3.7a45.552,45.552,0,0,1-8.992,7.857,40.358,40.358,0,0,0,0-6.517c-.231-1.526-.857-2.349.62-3.346A113.328,113.328,0,0,0,269.859,382.693Z" transform="translate(-217.172 -286.776)" fill="#fbbebe"/>
      <path id="Path_440" data-name="Path 440" d="M191.56,329.4a5.227,5.227,0,0,1-2,3.952q5.34,1.869,10.535,4.12a3.65,3.65,0,0,1-.9-2.554,12.894,12.894,0,0,1,1.971-6.886,1.671,1.671,0,0,0,.323-.909c-.04-.674-.84-.986-1.5-1.143a36.819,36.819,0,0,0-6.835-.991c-.986-.031-2.154-.343-1.932.911A13.794,13.794,0,0,1,191.56,329.4Z" transform="translate(-167.685 -254.392)" fill="#fbbebe"/>
      <circle id="Ellipse_47" data-name="Ellipse 47" cx="8.352" cy="8.352" r="8.352" transform="translate(22.409 59.118)" fill="#fbbebe"/>
      <path id="Path_441" data-name="Path 441" d="M198.62,359.895a10.1,10.1,0,0,0-1.06-1.777,36.965,36.965,0,0,0-5.012-6.146,31.2,31.2,0,0,0-4.757-3.494,10.8,10.8,0,0,0-2.977-1.429,11.654,11.654,0,0,0-1.911-.26l-2.169-.177a1.773,1.773,0,0,0-.571.017,1.232,1.232,0,0,0-.731,1.471,3.62,3.62,0,0,0,.966,1.52c.1,4.426-1.871,8.792-2.137,13.212-.466,7.715,4.252,14.918,4.629,22.652a2.443,2.443,0,0,1-.109,1.037c-.063.16-.157.306-.229.463a4.522,4.522,0,0,0-.254,1.571,7.983,7.983,0,0,1-2.352,5.035,3.5,3.5,0,0,0,1.326,1.011,23.9,23.9,0,0,0,2.969.709,23.046,23.046,0,0,0,7.74,1.323,6.829,6.829,0,0,0,.6-2.249c.371-.232.8.263.857.7s-.026.94.286,1.254a1.176,1.176,0,0,0,1.086.217,48.006,48.006,0,0,0,4.714-1.106,8.793,8.793,0,0,1,4.78-.017,1.279,1.279,0,0,0-.074-1.4,6.253,6.253,0,0,1-.751-1.283,2.88,2.88,0,0,1-.091-.843c0-2.443.5-4.912.026-7.309-.14-.7-.363-1.389-.506-2.094a18.063,18.063,0,0,1-.206-4.177c.037-1.4-.131-2.909-.16-4.326a13.8,13.8,0,0,0-.114-1.752c-.1-.609-.286-1.2-.337-1.817-.154-1.56.474-3.109.38-4.674C202.309,363.378,199.546,362.086,198.62,359.895Z" transform="translate(-159.59 -269.867)" fill="#41acfe"/>
      <path id="Path_442" data-name="Path 442" d="M155.449,389.038c-2.023,5.366-3.012,11.058-4,16.709l-2.286,13.275a64.234,64.234,0,0,0-1.274,11.332,12.131,12.131,0,0,1-.211,3.189,17.222,17.222,0,0,1-1.963,3.714,12.223,12.223,0,0,0-1.314,8.266c.234,1.186.874,2.531,2.077,2.669a2.878,2.878,0,0,0,2.42-1.489,19.173,19.173,0,0,0,2.572-6.317,142.9,142.9,0,0,0,3.963-22.027,21.445,21.445,0,0,1,.4-2.8,19.868,19.868,0,0,1,.966-2.789q1.311-3.252,2.626-6.5a103.888,103.888,0,0,1,6.826-14.675c-2.743-.789-5.6-1.714-8.34-2.494A7.534,7.534,0,0,0,155.449,389.038Z" transform="translate(-135.268 -300.13)" fill="#fbbebe"/>
      <path id="Path_443" data-name="Path 443" d="M183.032,387.6a31.391,31.391,0,0,0-5.866-.334,1.266,1.266,0,0,1-.789-.206c-.4-.34-.229-.977-.029-1.46l.949-2.286a3.326,3.326,0,0,1,.76-1.263,3.223,3.223,0,0,1,1.8-.611,16.335,16.335,0,0,1,6.246.243,7.47,7.47,0,0,1,4.823,3.737,2.543,2.543,0,0,1,.051,2.5c-.743,1.066-2.409,2.257-3.652,1.674C185.84,388.9,184.7,387.966,183.032,387.6Z" transform="translate(-158.096 -294.626)" fill="#41acfe"/>
      <path id="Path_444" data-name="Path 444" d="M170.333,254.191a8.435,8.435,0,0,0-4.652,1.34,10.215,10.215,0,0,0-10.029-2.349,5.837,5.837,0,1,0-6.749,6.757,10.215,10.215,0,1,0,19.592,5.74,9.143,9.143,0,0,0,1.831.186c4.029,0,7.3-2.614,7.3-5.837S174.356,254.191,170.333,254.191Z" transform="translate(-135.189 -199.693)" fill="#3f3d56"/>
      <path id="Path_445" data-name="Path 445" d="M233.169,293.7a8.885,8.885,0,0,1-1.832-.186,10.163,10.163,0,0,1-1.337,2.94,9.172,9.172,0,0,0,1.714.166c3.766,0,6.857-2.286,7.255-5.212A8.05,8.05,0,0,1,233.169,293.7Z" transform="translate(-196.57 -230.449)" opacity="0.1"/>
      <path id="Path_446" data-name="Path 446" d="M160.1,274.958a10.229,10.229,0,0,1-9.766-13.223,5.837,5.837,0,0,1-4.826-5.749,5.743,5.743,0,0,1,.094-1.046,5.837,5.837,0,0,0,3.274,9.715,10.215,10.215,0,1,0,19.512,6.052A10.2,10.2,0,0,1,160.1,274.958Z" transform="translate(-135.18 -204.399)" opacity="0.1"/>
    </g>
  </g>
</svg>
