<svg xmlns="http://www.w3.org/2000/svg" xmlns:xlink="http://www.w3.org/1999/xlink" width="326.275" height="348.462" viewBox="0 0 326.275 348.462">
  <defs>
    <linearGradient id="linear-gradient" x1="0.5" y1="1" x2="0.5" gradientUnits="objectBoundingBox">
      <stop offset="0" stop-color="gray" stop-opacity="0.251"/>
      <stop offset="0.54" stop-color="gray" stop-opacity="0.122"/>
      <stop offset="1" stop-color="gray" stop-opacity="0.102"/>
    </linearGradient>
    <linearGradient id="linear-gradient-2" x1="0.498" y1="1" x2="0.498" y2="0" xlink:href="#linear-gradient"/>
    <linearGradient id="linear-gradient-3" x1="0.001" y1="0.5" x2="1.001" y2="0.5" xlink:href="#linear-gradient"/>
  </defs>
  <g id="Group_92" data-name="Group 92" transform="translate(-21.749 -18.582)">
    <path id="Path_701" data-name="Path 701" d="M354.791,237.2a69.593,69.593,0,0,1-2.53,11.585,65.387,65.387,0,0,1-4.292,10.538c0,23.535-18.852,42.609-42.11,42.609H91.074a53.13,53.13,0,0,1-37.147-15.127l.285-.071c19.81-5.253,40.712-7.064,57.9-19.545q-35.1-5.824-69.811-14.46c-1.426-.359-3.046-.9-4.709-1.463-.077-1.186-.12-2.381-.12-3.585-.106-.191-.208-.385-.311-.57q-.679-1.258-1.306-2.567a69.175,69.175,0,0,1-6.691-30.012c0-17.238,6.055-32.8,15.757-43.778,65.251,5.4,130.916,3.112,196.386.81l-57.431-11.425L90.23,141.506c19.921-28.144,55.078-46.836,95.126-46.836,28.184,0,53.943,9.258,73.679,24.55a44.014,44.014,0,0,1,24.5-7.575c18.509,0,34.689,11.9,43.476,29.661v.014A69.16,69.16,0,0,1,334,171.971c0,2-.083,3.993-.245,5.961,0,.117-.017.231-.029.348a57.965,57.965,0,0,1,14.947,19.451c.046.091.091.188.134.285q.978,2.039,1.82,4.181h-.054q-3.594.8-7.179,1.62-38.636,8.927-76.562,21.632-10.872,3.639-21.675,7.592c-6.08,2.222-13.9,7.264-20.2,7.683,43.094-2.889,86.533,1.323,129.427-3.477Z" transform="translate(-7.075 35.847)" fill="#fff" opacity="0.1"/>
    <path id="Path_702" data-name="Path 702" d="M354.255,225.566c0-20.517-8.573-38.636-21.675-49.531q.271-3.112.285-6.309c0-33.309-22.608-60.3-50.481-60.3a44.016,44.016,0,0,0-24.5,7.575c-19.736-15.3-45.5-24.562-73.682-24.562-45.857,0-85.3,24.507-102.8,59.653-.973-.068-1.951-.105-2.938-.105-27.876,0-50.481,27-50.481,60.314a68.667,68.667,0,0,0,8.305,33.149h0c0,29.969,24.011,54.265,53.618,54.265H304.7c23.255,0,42.107-19.077,42.107-42.606h0A68.975,68.975,0,0,0,354.255,225.566Z" transform="translate(-6.231 37.441)" fill="#fff" opacity="0.1"/>
    <path id="Path_703" data-name="Path 703" d="M448.14,767.141c0,.931-1.314,1.828-3.733,2.662-.433.15-.9.3-1.407.446,0,0-49.752,3.176-81.955,3.176s-46.857-3.176-46.857-3.176c-.5-.147-.974-.3-1.407-.446-2.419-.834-3.733-1.73-3.733-2.662,0-4.541,31.138-8.221,69.551-8.221S448.14,762.6,448.14,767.141Z" transform="translate(-247.14 -406.38)" fill="#fff" opacity="0.1"/>
    <ellipse id="Ellipse_112" data-name="Ellipse 112" cx="8.339" cy="1.603" rx="8.339" ry="1.603" transform="translate(86.589 349.003)" fill="#fff"/>
    <ellipse id="Ellipse_113" data-name="Ellipse 113" cx="0.97" cy="1.272" rx="0.97" ry="1.272" transform="translate(93.819 348.652)" fill="#3f3d56"/>
    <ellipse id="Ellipse_114" data-name="Ellipse 114" cx="0.97" cy="1.272" rx="0.97" ry="1.272" transform="translate(93.819 347.098)" fill="#3f3d56"/>
    <ellipse id="Ellipse_115" data-name="Ellipse 115" cx="0.97" cy="1.272" rx="0.97" ry="1.272" transform="translate(93.819 345.543)" fill="#3f3d56"/>
    <ellipse id="Ellipse_116" data-name="Ellipse 116" cx="0.97" cy="1.272" rx="0.97" ry="1.272" transform="translate(93.819 343.992)" fill="#3f3d56"/>
    <ellipse id="Ellipse_117" data-name="Ellipse 117" cx="0.97" cy="1.272" rx="0.97" ry="1.272" transform="translate(93.819 342.438)" fill="#3f3d56"/>
    <ellipse id="Ellipse_118" data-name="Ellipse 118" cx="0.97" cy="1.272" rx="0.97" ry="1.272" transform="translate(93.819 340.883)" fill="#3f3d56"/>
    <ellipse id="Ellipse_119" data-name="Ellipse 119" cx="0.97" cy="1.272" rx="0.97" ry="1.272" transform="translate(93.819 339.332)" fill="#3f3d56"/>
    <path id="Path_704" data-name="Path 704" d="M381.171,705a4.452,4.452,0,0,0,.362-.531l-2.55-.419,2.758.02a4.663,4.663,0,0,0,.088-3.685l-3.708,1.919,3.422-2.51a12.506,12.506,0,0,0-8.211,6.061l3.311,1.711-3.531-1.186a59.045,59.045,0,0,1,1.248,10.663A9.421,9.421,0,0,0,381.174,705Z" transform="translate(-282.751 -375.026)" fill="#fff"/>
    <path id="Path_705" data-name="Path 705" d="M372.886,733.823a18.485,18.485,0,0,1,1.493,9.172,4.652,4.652,0,0,0,6.812-6.294C381.816,735.9,372.886,733.293,372.886,733.823Z" transform="translate(-282.769 -400.968)" opacity="0.1"/>
    <g id="Group_40" data-name="Group 40" transform="translate(265.035 127.051)" opacity="0.8">
      <path id="Path_706" data-name="Path 706" d="M704.506,252.24a.907.907,0,0,0-1.477,1.052c.168.254.354.5.531.736,2.13,2.878,3.234,6.371,4.184,9.822a4.631,4.631,0,0,1,.194,2.592,16.138,16.138,0,0,0-.442-6.762A42.19,42.19,0,0,0,705.1,253.3a5.681,5.681,0,0,0-.6-1.055Z" transform="translate(-683.674 -244.567)" fill="#fff" opacity="0.5"/>
      <path id="Path_707" data-name="Path 707" d="M657.206,274.388a1.13,1.13,0,0,0-.188,2.25c.376.029.753.037,1.115.049,4.4.12,8.556,1.711,12.563,3.422a5.454,5.454,0,0,1,2.587,1.794,18.91,18.91,0,0,0-6.7-4.749,49.447,49.447,0,0,0-7.906-2.553A6.72,6.72,0,0,0,657.206,274.388Z" transform="translate(-650.2 -260.666)" fill="#fff"/>
      <path id="Path_708" data-name="Path 708" d="M660.062,293.176c-.907.034-.7,1.323.211,1.332.24,0,.479,0,.707-.02a25.749,25.749,0,0,1,8.376,1.5,4.293,4.293,0,0,1,1.885.947,15.088,15.088,0,0,0-4.9-2.513,37.589,37.589,0,0,0-5.328-1.172A4.868,4.868,0,0,0,660.062,293.176Z" transform="translate(-652.66 -274.095)" fill="#fff" opacity="0.2"/>
      <path id="Path_709" data-name="Path 709" d="M725.712,347.792c.257.87,1.455.354,1.235-.536-.057-.231-.126-.459-.191-.679a25.761,25.761,0,0,1-.63-8.488,4.322,4.322,0,0,1,.451-2.059,15.1,15.1,0,0,0-1.218,5.368,37.379,37.379,0,0,0,.185,5.453A4.835,4.835,0,0,0,725.712,347.792Z" transform="translate(-699.732 -304.728)" fill="#fff" opacity="0.5"/>
      <path id="Path_710" data-name="Path 710" d="M666.251,248.911c-.545-.094-.588.7-.043.821.143.034.285.057.425.08a15.675,15.675,0,0,1,4.811,1.959,2.611,2.611,0,0,1,1.007.8,9.188,9.188,0,0,0-2.607-2.122,22.6,22.6,0,0,0-3.032-1.377A2.955,2.955,0,0,0,666.251,248.911Z" transform="translate(-657.194 -242.45)" fill="#fff" opacity="0.2"/>
      <path id="Path_711" data-name="Path 711" d="M636.2,316.061c-1.386.713-.214,2.672,1.209,2.022.374-.171.736-.362,1.084-.542,4.238-2.2,9.158-3.006,14-3.628a6.866,6.866,0,0,1,3.554.183,23.83,23.83,0,0,0-9.269-.556,62.315,62.315,0,0,0-9.049,1.945A8.051,8.051,0,0,0,636.2,316.061Z" transform="translate(-635.575 -288.503)" fill="#fff"/>
      <path id="Path_712" data-name="Path 712" d="M650.84,331.522c-1,.93.57,2.028,1.6,1.141.285-.234.533-.479.784-.713,3.035-2.852,7.047-4.88,11.043-6.748a25.718,25.718,0,0,1,6.095-.9c-2.815.254-8.556,1.141-11.123,2.282a61.7,61.7,0,0,0-7.25,4.07,7.687,7.687,0,0,0-1.152.873Z" transform="translate(-646.258 -296.341)" fill="#fff" opacity="0.5"/>
      <path id="Path_713" data-name="Path 713" d="M676.487,349.579c-.285,1.329,1.611,1.349,1.965.02.091-.348.165-.7.237-1.032.878-4.07,3.026-8.02,5.251-11.83a25.849,25.849,0,0,1,4.5-4.207c-2.173,1.808-6.4,5.8-7.846,8.208a61.661,61.661,0,0,0-3.653,7.469,7.662,7.662,0,0,0-.456,1.372Z" transform="translate(-664.798 -302.226)" fill="#fff"/>
      <path id="Path_714" data-name="Path 714" d="M721.413,226.9c-.679-1.386-2.618-.248-2,1.172.163.371.342.736.516,1.081,2.088,4.227,2.806,9.126,3.346,13.923a6.856,6.856,0,0,1-.237,3.519,24.12,24.12,0,0,0,.69-9.181,60.671,60.671,0,0,0-1.771-9A7.916,7.916,0,0,0,721.413,226.9Z" transform="translate(-695.418 -226.276)" fill="#fff"/>
      <path id="Path_715" data-name="Path 715" d="M684.717,233.556a.223.223,0,0,0,.117.034c.074,0,.128-.074.16-.143.168-.368.071-.856.334-1.158a3.993,3.993,0,0,1,.633,1.064l1-.311a.817.817,0,0,0,.28,1.457.516.516,0,0,1,.122.528,2.528,2.528,0,0,1-.7.071,4.568,4.568,0,0,1-.077,1.306.243.243,0,0,1-.086.168c-.071.046-.168,0-.242-.04a2.327,2.327,0,0,1-.819-.87l-.371.884a.39.39,0,0,1-.165.222.285.285,0,0,1-.311-.108.8.8,0,0,1-.108-.334l-.14-.856a.185.185,0,0,0-.046-.117.2.2,0,0,0-.145-.043c-.354,0-.7-.014-1.055,0-.06-.185.126-.359.305-.439s.394-.137.485-.311c.183-.357-.285-.856-.091-1.158C684.027,233.063,684.409,233.405,684.717,233.556Z" transform="translate(-669.531 -230.575)" fill="#fff"/>
      <path id="Path_716" data-name="Path 716" d="M747.152,252.24a.907.907,0,0,1,1.477,1.052c-.171.254-.354.5-.53.736-2.131,2.878-3.234,6.371-4.187,9.822a4.6,4.6,0,0,0-.191,2.592,16.137,16.137,0,0,1,.442-6.762,41.785,41.785,0,0,1,2.39-6.386,5.875,5.875,0,0,1,.6-1.055Z" transform="translate(-712.746 -244.567)" fill="#fff" opacity="0.5"/>
      <path id="Path_717" data-name="Path 717" d="M764.394,274.388a1.131,1.131,0,0,1,.188,2.25c-.374.029-.753.037-1.112.049-4.4.12-8.556,1.711-12.563,3.422a5.372,5.372,0,0,0-2.587,1.794,18.884,18.884,0,0,1,6.7-4.749,49.452,49.452,0,0,1,7.906-2.553A6.723,6.723,0,0,1,764.394,274.388Z" transform="translate(-716.165 -260.666)" fill="#fff"/>
      <path id="Path_718" data-name="Path 718" d="M775.277,293.177c.91.034.7,1.323-.208,1.332-.24,0-.479,0-.707-.02a25.74,25.74,0,0,0-8.376,1.5,4.279,4.279,0,0,0-1.885.947,15.089,15.089,0,0,1,4.9-2.513,37.6,37.6,0,0,1,5.342-1.172A4.848,4.848,0,0,1,775.277,293.177Z" transform="translate(-727.445 -274.096)" fill="#fff" opacity="0.5"/>
      <path id="Path_719" data-name="Path 719" d="M781.96,248.911c.545-.094.588.7.043.821-.143.034-.285.057-.425.08a15.689,15.689,0,0,0-4.814,1.959,2.6,2.6,0,0,0-1,.8,9.174,9.174,0,0,1,2.6-2.122,22.8,22.8,0,0,1,3.034-1.377A2.958,2.958,0,0,1,781.96,248.911Z" transform="translate(-735.779 -242.45)" fill="#fff" opacity="0.2"/>
      <path id="Path_720" data-name="Path 720" d="M745.13,365.161c-.123.539-.873.271-.773-.285.026-.145.06-.285.091-.422a15.785,15.785,0,0,0,.049-5.2,2.623,2.623,0,0,0-.357-1.238,9.231,9.231,0,0,1,.955,3.223,22.8,22.8,0,0,1,.1,3.328A2.853,2.853,0,0,1,745.13,365.161Z" transform="translate(-713.177 -320.446)" fill="#fff" opacity="0.2"/>
      <path id="Path_721" data-name="Path 721" d="M775.405,349c.428.722-.622.673-1.084-.051-.12-.188-.231-.379-.337-.57a38.848,38.848,0,0,0-5.27-6.511,7.256,7.256,0,0,0-1.634-1.426,25.831,25.831,0,0,1,4.278,3.662c1.278,1.338,2.407,2.729,3.514,4.121A6.75,6.75,0,0,1,775.405,349Z" transform="translate(-729.575 -307.88)" fill="#fff" opacity="0.5"/>
      <path id="Path_722" data-name="Path 722" d="M662.888,349c-.428.722.622.673,1.081-.051.123-.188.234-.379.339-.57a38.849,38.849,0,0,1,5.271-6.511,7.187,7.187,0,0,1,1.634-1.426,25.71,25.71,0,0,0-4.278,3.662c-1.278,1.338-2.41,2.729-3.514,4.121a6.76,6.76,0,0,0-.533.776Z" transform="translate(-655.027 -307.88)" fill="#fff" opacity="0.2"/>
      <path id="Path_723" data-name="Path 723" d="M711.612,365.161c.123.539.873.271.773-.285-.026-.145-.06-.285-.091-.422a15.78,15.78,0,0,1-.049-5.2,2.624,2.624,0,0,1,.357-1.238,9.231,9.231,0,0,0-.955,3.223,22.807,22.807,0,0,0-.1,3.331,2.86,2.86,0,0,0,.066.588Z" transform="translate(-689.864 -320.446)" fill="#fff" opacity="0.2"/>
      <path id="Path_724" data-name="Path 724" d="M766.62,267.98c.545-.1.588.7.043.821-.143.031-.285.054-.425.08a15.786,15.786,0,0,0-4.814,1.956,2.657,2.657,0,0,0-1,.807,9.248,9.248,0,0,1,2.607-2.125,22.97,22.97,0,0,1,3.032-1.378,2.954,2.954,0,0,1,.562-.163Z" transform="translate(-724.814 -256.08)" fill="#fff" opacity="0.2"/>
      <path id="Path_725" data-name="Path 725" d="M753.291,230.425c.471-.285.807.431.345.744-.12.083-.245.16-.362.231a15.678,15.678,0,0,0-3.733,3.616,2.586,2.586,0,0,0-.63,1.124,9.211,9.211,0,0,1,1.623-2.943,22.716,22.716,0,0,1,2.3-2.413A2.806,2.806,0,0,1,753.291,230.425Z" transform="translate(-716.587 -229.195)" fill="#fff" opacity="0.2"/>
      <path id="Path_726" data-name="Path 726" d="M777.337,316.061c1.386.713.214,2.672-1.209,2.022-.374-.171-.739-.362-1.084-.542-4.238-2.2-9.161-3.006-14-3.628a6.867,6.867,0,0,0-3.554.183,23.826,23.826,0,0,1,9.269-.556,62.315,62.315,0,0,1,9.049,1.945A8.119,8.119,0,0,1,777.337,316.061Z" transform="translate(-722.72 -288.503)" fill="#fff"/>
      <path id="Path_727" data-name="Path 727" d="M764.255,331.522c1,.93-.57,2.028-1.606,1.141-.271-.234-.533-.479-.781-.713-3.037-2.852-7.05-4.88-11.043-6.748a25.738,25.738,0,0,0-6.095-.9c2.815.254,8.556,1.141,11.123,2.282a61.718,61.718,0,0,1,7.253,4.07,7.673,7.673,0,0,1,1.149.873Z" transform="translate(-713.599 -296.341)" fill="#fff" opacity="0.5"/>
      <path id="Path_728" data-name="Path 728" d="M747.618,351.49c.123,1.358-1.771,1.141-1.954-.225-.048-.357-.077-.713-.105-1.052-.362-4.15-2-8.339-3.728-12.395a25.692,25.692,0,0,0-3.942-4.737c1.931,2.065,5.627,6.56,6.756,9.126a61.564,61.564,0,0,1,2.687,7.866A7.851,7.851,0,0,1,747.618,351.49Z" transform="translate(-708.71 -302.619)" fill="#fff"/>
      <path id="Path_729" data-name="Path 729" d="M769.314,233.556a.223.223,0,0,1-.117.034c-.077,0-.128-.074-.16-.143-.171-.368-.071-.856-.334-1.158a3.994,3.994,0,0,0-.633,1.064l-1-.311a1.481,1.481,0,0,0,.188,1.141,1.519,1.519,0,0,0-.471.317.522.522,0,0,0-.12.528,2.517,2.517,0,0,0,.7.071,4.666,4.666,0,0,0,.074,1.306.254.254,0,0,0,.086.168.245.245,0,0,0,.245-.04,2.327,2.327,0,0,0,.819-.87l.371.884a.378.378,0,0,0,.165.222.265.265,0,0,0,.308-.108.76.76,0,0,0,.111-.334l.137-.856a.205.205,0,0,1,.049-.117.2.2,0,0,1,.145-.043c.351,0,.7-.014,1.055,0,.06-.185-.128-.359-.308-.439s-.391-.137-.482-.311c-.182-.357.285-.856.088-1.158C770.007,233.063,769.625,233.405,769.314,233.556Z" transform="translate(-729.264 -230.575)" fill="#fff"/>
      <path id="Path_730" data-name="Path 730" d="M779.854,377.336a.255.255,0,0,1-.117.037c-.077,0-.128-.077-.16-.145-.168-.368-.071-.856-.334-1.158a3.994,3.994,0,0,0-.633,1.064l-1-.308a1.486,1.486,0,0,0,.188,1.141,1.555,1.555,0,0,0-.468.317.516.516,0,0,0-.123.528,2.53,2.53,0,0,0,.7.071,4.568,4.568,0,0,0,.077,1.306.237.237,0,0,0,.086.168c.071.046.168,0,.242-.04a2.326,2.326,0,0,0,.818-.856l.371.884a.391.391,0,0,0,.165.222.268.268,0,0,0,.311-.108.781.781,0,0,0,.108-.334l.14-.856a.185.185,0,0,1,.046-.117.2.2,0,0,1,.145-.043c.351,0,.7-.014,1.055,0,.06-.185-.125-.359-.305-.439s-.394-.137-.485-.311c-.182-.356.285-.856.091-1.158C780.555,376.831,780.162,377.191,779.854,377.336Z" transform="translate(-736.798 -333.349)" fill="#fff" opacity="0.2"/>
      <path id="Path_731" data-name="Path 731" d="M809.44,280.963a.228.228,0,0,1-.12.037c-.074,0-.125-.077-.157-.145-.171-.368-.074-.856-.334-1.155a3.922,3.922,0,0,0-.633,1.061l-1-.308a1.475,1.475,0,0,0,.188,1.141,1.5,1.5,0,0,0-.471.319.522.522,0,0,0-.123.525,2.552,2.552,0,0,0,.7.071,4.689,4.689,0,0,0,.074,1.309.249.249,0,0,0,.086.165.24.24,0,0,0,.242-.04,2.283,2.283,0,0,0,.821-.87l.368.884a.391.391,0,0,0,.165.222.265.265,0,0,0,.311-.108.747.747,0,0,0,.111-.334l.137-.841a.246.246,0,0,1,.046-.12.223.223,0,0,1,.148-.043h1.052c.063-.185-.125-.359-.305-.439s-.394-.137-.482-.311c-.183-.356.285-.856.089-1.158C810.13,280.459,809.746,280.812,809.44,280.963Z" transform="translate(-757.946 -264.463)" fill="#fff"/>
      <path id="Path_732" data-name="Path 732" d="M688.523,390.513a.308.308,0,0,1-.163.048c-.106,0-.18-.106-.223-.2-.237-.513-.1-1.178-.465-1.611a5.52,5.52,0,0,0-.881,1.48L685.4,389.8a2.074,2.074,0,0,0,.262,1.589,2.209,2.209,0,0,0-.653.445.733.733,0,0,0-.171.736,3.563,3.563,0,0,0,.981.1,6.412,6.412,0,0,0,.105,1.822.257.257,0,0,0,.456.177,3.191,3.191,0,0,0,1.141-1.212l.516,1.232a.547.547,0,0,0,.231.311.376.376,0,0,0,.433-.151,1.089,1.089,0,0,0,.151-.468l.194-1.172a.285.285,0,0,1,.063-.165.3.3,0,0,1,.205-.06c.491-.014.981-.017,1.469-.014.086-.26-.177-.5-.425-.613s-.547-.191-.673-.433c-.257-.5.4-1.186.123-1.614C689.484,389.808,688.95,390.3,688.523,390.513Z" transform="translate(-670.765 -342.412)" fill="#fff"/>
      <path id="Path_733" data-name="Path 733" d="M639.31,282.582a.348.348,0,0,1-.165.049c-.1,0-.177-.106-.222-.2-.234-.513-.1-1.181-.462-1.611a5.555,5.555,0,0,0-.884,1.477l-1.386-.428a2.051,2.051,0,0,0,.262,1.589,2.074,2.074,0,0,0-.653.445.722.722,0,0,0-.171.733,3.542,3.542,0,0,0,.981.1,6.509,6.509,0,0,0,.1,1.822.334.334,0,0,0,.12.231c.1.066.234,0,.34-.057a3.226,3.226,0,0,0,1.141-1.209l.516,1.232a.541.541,0,0,0,.228.308.371.371,0,0,0,.434-.148,1.109,1.109,0,0,0,.154-.468l.191-1.172a.315.315,0,0,1,.066-.168.285.285,0,0,1,.205-.057c.488-.014.978-.02,1.469-.014.083-.262-.177-.5-.428-.613s-.548-.191-.673-.434c-.254-.5.4-1.186.125-1.614C640.272,281.878,639.738,282.374,639.31,282.582Z" transform="translate(-635.587 -265.264)" fill="#fff"/>
      <path id="Path_734" data-name="Path 734" d="M793.055,351.5a.19.19,0,0,1-.086.028.168.168,0,0,1-.12-.108c-.125-.285-.051-.628-.245-.856a2.919,2.919,0,0,0-.468.784l-.739-.228a1.1,1.1,0,0,0,.14.856,1.115,1.115,0,0,0-.348.234.391.391,0,0,0-.089.391,1.764,1.764,0,0,0,.519.051,3.354,3.354,0,0,0,.057.97.177.177,0,0,0,.063.123c.054.034.125,0,.18-.029a1.713,1.713,0,0,0,.6-.645l.285.656a.285.285,0,0,0,.123.163.2.2,0,0,0,.231-.08.57.57,0,0,0,.08-.248l.1-.622a.16.16,0,0,1,.034-.088.149.149,0,0,1,.108-.031h.781c.046-.137-.094-.265-.225-.325s-.285-.1-.359-.231c-.134-.262.217-.63.066-.856S793.272,351.384,793.055,351.5Z" transform="translate(-746.731 -315.114)" fill="#fff" opacity="0.2"/>
      <path id="Path_735" data-name="Path 735" d="M726.158,390.1a.168.168,0,0,1-.088.026c-.054,0-.094-.054-.117-.105-.126-.285-.054-.628-.245-.856a2.921,2.921,0,0,0-.471.784l-.736-.228a1.083,1.083,0,0,0,.14.856,1.174,1.174,0,0,0-.348.237.385.385,0,0,0-.091.391,1.889,1.889,0,0,0,.522.051,3.462,3.462,0,0,0,.054.97.19.19,0,0,0,.063.123c.054.034.125,0,.18-.031a1.683,1.683,0,0,0,.608-.642l.285.653a.3.3,0,0,0,.123.165.2.2,0,0,0,.231-.08.569.569,0,0,0,.08-.248l.1-.625a.146.146,0,0,1,.034-.086.148.148,0,0,1,.108-.031h.781c.043-.14-.094-.268-.228-.325a.658.658,0,0,1-.356-.231c-.137-.265.214-.63.066-.856S726.386,389.984,726.158,390.1Z" transform="translate(-698.911 -342.705)" fill="#fff" opacity="0.2"/>
      <path id="Path_736" data-name="Path 736" d="M661.459,255a.2.2,0,0,1-.086.026c-.057,0-.1-.057-.12-.108-.125-.271-.054-.625-.245-.856a2.941,2.941,0,0,0-.471.787l-.736-.228a1.087,1.087,0,0,0,.14.856,1.122,1.122,0,0,0-.348.237.382.382,0,0,0-.091.388,1.9,1.9,0,0,0,.522.054,3.424,3.424,0,0,0,.054.967.179.179,0,0,0,.066.123.177.177,0,0,0,.18-.029,1.713,1.713,0,0,0,.6-.645l.285.656a.285.285,0,0,0,.123.163.2.2,0,0,0,.231-.077.57.57,0,0,0,.08-.251l.1-.622a.16.16,0,0,1,.034-.088.149.149,0,0,1,.108-.031h.781c.043-.137-.094-.265-.228-.325s-.285-.1-.357-.231c-.137-.262.217-.627.065-.856S661.687,254.9,661.459,255Z" transform="translate(-652.664 -246.136)" fill="#fff" opacity="0.5"/>
      <path id="Path_737" data-name="Path 737" d="M695.895,331.128a.214.214,0,0,1-.086.026c-.057,0-.094-.057-.117-.108-.126-.271-.054-.625-.248-.856a3.012,3.012,0,0,0-.468.787l-.739-.228a1.116,1.116,0,0,0,.14.856,1.077,1.077,0,0,0-.345.237.379.379,0,0,0-.091.388,1.878,1.878,0,0,0,.519.054,3.42,3.42,0,0,0,.057.967.137.137,0,0,0,.242.094,1.734,1.734,0,0,0,.61-.642l.285.656a.285.285,0,0,0,.123.163.194.194,0,0,0,.228-.08.569.569,0,0,0,.083-.248l.1-.622a.117.117,0,0,1,.143-.12h.779c.046-.137-.091-.265-.225-.325s-.285-.1-.357-.231c-.137-.262.214-.63.066-.856S696.123,331.014,695.895,331.128Z" transform="translate(-677.281 -300.553)" fill="#fff" opacity="0.5"/>
      <path id="Path_738" data-name="Path 738" d="M670.906,301.448a.151.151,0,0,1-.086.026c-.057,0-.094-.057-.117-.108-.125-.271-.054-.625-.248-.856a2.933,2.933,0,0,0-.468.787l-.739-.228a.613.613,0,0,1-.208,1.092.388.388,0,0,0-.089.388,1.871,1.871,0,0,0,.519.054,3.427,3.427,0,0,0,.057.967.171.171,0,0,0,.063.123.177.177,0,0,0,.18-.029,1.725,1.725,0,0,0,.608-.642l.285.653a.285.285,0,0,0,.12.163.194.194,0,0,0,.231-.077.571.571,0,0,0,.083-.248l.1-.625a.16.16,0,0,1,.034-.088.183.183,0,0,1,.111-.031h.779c.046-.137-.094-.265-.225-.322a.675.675,0,0,1-.359-.234c-.134-.262.217-.627.068-.856S671.134,301.334,670.906,301.448Z" transform="translate(-659.419 -279.338)" fill="#fff" opacity="0.5"/>
      <path id="Path_739" data-name="Path 739" d="M778.245,308.438a.213.213,0,0,1-.086.026c-.057,0-.094-.057-.117-.108-.125-.271-.054-.625-.248-.856a2.932,2.932,0,0,0-.468.787l-.739-.228a.613.613,0,0,1-.208,1.092.385.385,0,0,0-.088.388,1.867,1.867,0,0,0,.519.054,3.425,3.425,0,0,0,.057.967.137.137,0,0,0,.242.094,1.734,1.734,0,0,0,.608-.645l.285.656a.285.285,0,0,0,.123.163.2.2,0,0,0,.228-.08.57.57,0,0,0,.083-.248l.1-.622a.158.158,0,0,1,.031-.088.151.151,0,0,1,.111-.031h.779c.046-.137-.094-.265-.225-.325s-.285-.1-.359-.231c-.134-.262.217-.63.069-.856S778.476,308.324,778.245,308.438Z" transform="translate(-736.145 -284.335)" fill="#fff" opacity="0.5"/>
      <path id="Path_740" data-name="Path 740" d="M726.159,302.648a.2.2,0,0,1-.088.026c-.054,0-.094-.057-.117-.108-.125-.285-.054-.625-.245-.856a2.943,2.943,0,0,0-.471.787l-.736-.228a1.087,1.087,0,0,0,.14.856,1.123,1.123,0,0,0-.348.237.382.382,0,0,0-.091.388,1.889,1.889,0,0,0,.522.054,3.419,3.419,0,0,0,.054.967.191.191,0,0,0,.063.123.177.177,0,0,0,.18-.029,1.711,1.711,0,0,0,.607-.645l.285.656a.285.285,0,0,0,.123.163.2.2,0,0,0,.231-.077.571.571,0,0,0,.08-.251l.1-.622a.16.16,0,0,1,.034-.088.148.148,0,0,1,.108-.031h.781c.043-.137-.094-.265-.228-.325s-.285-.1-.356-.231c-.137-.262.214-.627.066-.856S726.387,302.52,726.159,302.648Z" transform="translate(-698.912 -280.196)" fill="#fff" opacity="0.2"/>
      <path id="Path_741" data-name="Path 741" d="M709.816,309.708a.178.178,0,0,1-.086.026c-.057,0-.094-.057-.117-.108-.126-.271-.054-.625-.248-.856a2.933,2.933,0,0,0-.468.787l-.739-.228a.613.613,0,0,1-.208,1.092.388.388,0,0,0-.088.388,1.867,1.867,0,0,0,.519.054,3.427,3.427,0,0,0,.057.967.137.137,0,0,0,.242.094,1.735,1.735,0,0,0,.607-.645l.285.656a.285.285,0,0,0,.123.163.191.191,0,0,0,.228-.077.571.571,0,0,0,.083-.248l.1-.625a.157.157,0,0,1,.031-.088.182.182,0,0,1,.111-.031h.779c.046-.137-.094-.265-.225-.325s-.285-.1-.359-.231c-.134-.262.217-.627.068-.856S710.044,309.594,709.816,309.708Z" transform="translate(-687.232 -285.243)" fill="#fff" opacity="0.3"/>
      <path id="Path_742" data-name="Path 742" d="M694.579,266.648a.244.244,0,0,1-.088.026c-.054,0-.094-.057-.117-.108-.125-.271-.054-.625-.245-.856a2.94,2.94,0,0,0-.471.787l-.736-.228a1.09,1.09,0,0,0,.14.856,1.169,1.169,0,0,0-.348.234.388.388,0,0,0-.091.391,1.794,1.794,0,0,0,.522.051,3.455,3.455,0,0,0,.054.97.19.19,0,0,0,.063.123.177.177,0,0,0,.18-.029,1.712,1.712,0,0,0,.608-.645l.285.656a.285.285,0,0,0,.123.163.2.2,0,0,0,.231-.08.571.571,0,0,0,.08-.248l.1-.622A.161.161,0,0,1,694.9,268a.148.148,0,0,1,.108-.031h.781c.043-.137-.094-.265-.228-.325s-.285-.1-.356-.231c-.137-.262.214-.63.066-.856S694.807,266.543,694.579,266.648Z" transform="translate(-676.339 -254.463)" fill="#fff" opacity="0.2"/>
      <path id="Path_743" data-name="Path 743" d="M724.588,322.828a.168.168,0,0,1-.088.026c-.054,0-.094-.057-.117-.108-.125-.271-.054-.625-.245-.856a2.941,2.941,0,0,0-.471.787l-.736-.228a1.086,1.086,0,0,0,.14.856,1.123,1.123,0,0,0-.348.237.385.385,0,0,0-.091.391,2.015,2.015,0,0,0,.522.051,3.424,3.424,0,0,0,.054.967.177.177,0,0,0,.063.123c.054.037.125,0,.182-.029a1.71,1.71,0,0,0,.6-.642l.285.653a.285.285,0,0,0,.123.163.194.194,0,0,0,.231-.077.569.569,0,0,0,.08-.248l.1-.625a.16.16,0,0,1,.034-.088.179.179,0,0,1,.108-.031h.781c.043-.14-.094-.268-.228-.325a.657.657,0,0,1-.357-.231c-.137-.265.214-.63.066-.856S724.816,322.714,724.588,322.828Z" transform="translate(-697.789 -294.621)" fill="#fff" opacity="0.3"/>
    </g>
    <g id="Group_41" data-name="Group 41" transform="translate(212.469 85.929)" opacity="0.6">
      <path id="Path_744" data-name="Path 744" d="M669.917,94.928a.57.57,0,0,0-.927.662c.106.16.223.317.334.465a18.324,18.324,0,0,1,2.63,6.169,2.928,2.928,0,0,1,.12,1.628,10.15,10.15,0,0,0-.285-4.249,26.314,26.314,0,0,0-1.5-4.01A3.484,3.484,0,0,0,669.917,94.928Z" transform="translate(-656.831 -90.114)" fill="#fff" opacity="0.5"/>
      <path id="Path_745" data-name="Path 745" d="M640.149,108.789a.717.717,0,0,0-.12,1.426c.237.017.473.023.7.029a21.855,21.855,0,0,1,7.892,2.156,3.37,3.37,0,0,1,1.626,1.141,11.85,11.85,0,0,0-4.21-2.983,30.866,30.866,0,0,0-4.968-1.6A4.083,4.083,0,0,0,640.149,108.789Z" transform="translate(-635.75 -100.173)" fill="#fff"/>
      <path id="Path_746" data-name="Path 746" d="M641.956,120.589c-.57.023-.442.833.134.838h.442a16.22,16.22,0,0,1,5.265.938,2.74,2.74,0,0,1,1.184.6,9.553,9.553,0,0,0-3.077-1.58,23.874,23.874,0,0,0-3.343-.747A3.223,3.223,0,0,0,641.956,120.589Z" transform="translate(-637.306 -108.607)" fill="#fff" opacity="0.2"/>
      <path id="Path_747" data-name="Path 747" d="M683.185,154.907c.163.548.915.222.779-.334-.037-.148-.08-.285-.123-.428a16.25,16.25,0,0,1-.394-5.333,2.69,2.69,0,0,1,.285-1.292,9.5,9.5,0,0,0-.776,3.371,23.641,23.641,0,0,0,.117,3.422A3.166,3.166,0,0,0,683.185,154.907Z" transform="translate(-666.864 -127.858)" fill="#fff" opacity="0.5"/>
      <path id="Path_748" data-name="Path 748" d="M645.847,92.788c-.345-.06-.371.439-.028.516.091.02.18.034.265.048a9.9,9.9,0,0,1,3.026,1.229,1.621,1.621,0,0,1,.63.508,5.781,5.781,0,0,0-1.637-1.335A14.1,14.1,0,0,0,646.2,92.9,1.712,1.712,0,0,0,645.847,92.788Z" transform="translate(-640.156 -88.732)" fill="#fff" opacity="0.2"/>
      <path id="Path_749" data-name="Path 749" d="M626.964,134.953c-.87.448-.134,1.677.762,1.269.234-.106.462-.225.679-.339a26.412,26.412,0,0,1,8.8-2.282,4.313,4.313,0,0,1,2.233.117,15.058,15.058,0,0,0-5.824-.351,38.047,38.047,0,0,0-5.684,1.224A4.89,4.89,0,0,0,626.964,134.953Z" transform="translate(-626.575 -117.645)" fill="#fff"/>
      <path id="Path_750" data-name="Path 750" d="M636.165,144.666c-.628.585.351,1.275,1.007.713.171-.145.336-.3.49-.448a26.41,26.41,0,0,1,6.939-4.241,17.089,17.089,0,0,1,3.83-.57,28.661,28.661,0,0,0-6.987,1.44,38.739,38.739,0,0,0-4.563,2.567A4.848,4.848,0,0,0,636.165,144.666Z" transform="translate(-633.286 -122.569)" fill="#fff" opacity="0.5"/>
      <path id="Path_751" data-name="Path 751" d="M652.273,155.994c-.183.836,1.012.856,1.235,0,.057-.22.106-.439.151-.65a26.237,26.237,0,0,1,3.3-7.432,15.74,15.74,0,0,1,2.829-2.641,28.743,28.743,0,0,0-4.928,5.156,38.525,38.525,0,0,0-2.282,4.692A5.173,5.173,0,0,0,652.273,155.994Z" transform="translate(-644.93 -126.25)" fill="#fff"/>
      <path id="Path_752" data-name="Path 752" d="M680.5,78.968c-.428-.856-1.646-.154-1.258.739.1.234.214.462.322.679a26.285,26.285,0,0,1,2.1,8.747,4.287,4.287,0,0,1-.148,2.21,15.115,15.115,0,0,0,.433-5.767,38.231,38.231,0,0,0-1.121-5.653A5.076,5.076,0,0,0,680.5,78.968Z" transform="translate(-664.167 -78.58)" fill="#fff"/>
      <path id="Path_753" data-name="Path 753" d="M657.442,83.136a.163.163,0,0,0,.071.023.131.131,0,0,0,.1-.091c.108-.231.046-.53.211-.727a2.5,2.5,0,0,1,.4.667l.647-.194a.939.939,0,0,1-.12.719.922.922,0,0,1,.285.2.325.325,0,0,1,.074.331,1.629,1.629,0,0,1-.442.043,2.834,2.834,0,0,1-.046.821.154.154,0,0,1-.054.106.148.148,0,0,1-.151-.026,1.426,1.426,0,0,1-.516-.545l-.231.57a.234.234,0,0,1-.105.137.163.163,0,0,1-.194-.066.484.484,0,0,1-.068-.211l-.089-.53a.12.12,0,0,0-.029-.074.128.128,0,0,0-.091-.026h-.662c-.04-.117.077-.228.191-.285s.245-.086.3-.2c.117-.222-.183-.533-.054-.727S657.257,83.042,657.442,83.136Z" transform="translate(-647.91 -81.268)" fill="#fff"/>
      <path id="Path_754" data-name="Path 754" d="M696.692,94.859a.571.571,0,0,1,.93.662c-.108.16-.222.317-.334.465a18.267,18.267,0,0,0-2.629,6.169,2.928,2.928,0,0,0-.123,1.628,10.154,10.154,0,0,1,.285-4.249,26.029,26.029,0,0,1,1.5-4.01A3.478,3.478,0,0,1,696.692,94.859Z" transform="translate(-675.078 -90.045)" fill="#fff" opacity="0.5"/>
      <path id="Path_755" data-name="Path 755" d="M707.509,108.789a.716.716,0,0,1,.117,1.426c-.234.017-.473.023-.7.029a21.869,21.869,0,0,0-7.894,2.156,3.377,3.377,0,0,0-1.623,1.141,11.851,11.851,0,0,1,4.21-2.983,30.925,30.925,0,0,1,4.965-1.6A4.137,4.137,0,0,1,707.509,108.789Z" transform="translate(-677.208 -100.173)" fill="#fff"/>
      <path id="Path_756" data-name="Path 756" d="M714.395,120.59c.57.023.439.833-.134.838h-.442a16.221,16.221,0,0,0-5.265.938,2.724,2.724,0,0,0-1.184.6,9.527,9.527,0,0,1,3.077-1.58,23.875,23.875,0,0,1,3.348-.736A3.223,3.223,0,0,1,714.395,120.59Z" transform="translate(-684.327 -108.609)" fill="#fff" opacity="0.5"/>
      <path id="Path_757" data-name="Path 757" d="M718.543,92.788c.345-.06.371.439.029.516-.091.02-.18.034-.268.048a9.89,9.89,0,0,0-3.023,1.229,1.623,1.623,0,0,0-.63.508,5.773,5.773,0,0,1,1.634-1.335,14.289,14.289,0,0,1,1.908-.856A1.651,1.651,0,0,1,718.543,92.788Z" transform="translate(-689.531 -88.732)" fill="#fff" opacity="0.2"/>
      <path id="Path_758" data-name="Path 758" d="M695.442,165.831c-.077.339-.548.171-.485-.174a1.188,1.188,0,0,1,.057-.265,9.941,9.941,0,0,0,.031-3.266,1.649,1.649,0,0,0-.225-.776,5.771,5.771,0,0,1,.6,2.025,14.659,14.659,0,0,1,.065,2.091A1.746,1.746,0,0,1,695.442,165.831Z" transform="translate(-675.357 -137.744)" fill="#fff" opacity="0.2"/>
      <path id="Path_759" data-name="Path 759" d="M714.428,155.7c.268.453-.391.422-.679-.031-.077-.12-.145-.24-.214-.354a24.425,24.425,0,0,0-3.311-4.09,4.584,4.584,0,0,0-1.024-.887,16.237,16.237,0,0,1,2.69,2.3c.8.839,1.512,1.711,2.207,2.59A4.546,4.546,0,0,1,714.428,155.7Z" transform="translate(-685.635 -129.874)" fill="#fff" opacity="0.5"/>
      <path id="Path_760" data-name="Path 760" d="M643.733,155.7c-.268.453.391.422.682-.031.074-.12.146-.24.211-.354a24.426,24.426,0,0,1,3.311-4.09,4.6,4.6,0,0,1,1.027-.887,16.259,16.259,0,0,0-2.692,2.3c-.8.839-1.512,1.711-2.207,2.59a4.532,4.532,0,0,0-.331.471Z" transform="translate(-638.794 -129.874)" fill="#fff" opacity="0.2"/>
      <path id="Path_761" data-name="Path 761" d="M674.346,165.831c.077.339.548.171.488-.174-.017-.091-.037-.18-.057-.265a9.861,9.861,0,0,1-.031-3.266,1.613,1.613,0,0,1,.222-.776,5.771,5.771,0,0,0-.6,2.025,14.241,14.241,0,0,0-.063,2.091A1.962,1.962,0,0,0,674.346,165.831Z" transform="translate(-660.684 -137.744)" fill="#fff" opacity="0.2"/>
      <path id="Path_762" data-name="Path 762" d="M708.906,104.748c.342-.06.368.442.026.516-.089.02-.18.034-.265.051a9.834,9.834,0,0,0-3.026,1.229,1.662,1.662,0,0,0-.63.5,5.776,5.776,0,0,1,1.637-1.332,14.116,14.116,0,0,1,1.905-.856A1.867,1.867,0,0,1,708.906,104.748Z" transform="translate(-682.641 -97.281)" fill="#fff" opacity="0.2"/>
      <path id="Path_763" data-name="Path 763" d="M700.529,81.166c.285-.183.508.285.22.468l-.228.145a10.279,10.279,0,0,0-2.347,2.282,1.622,1.622,0,0,0-.394.7,5.746,5.746,0,0,1,1.018-1.848,14.229,14.229,0,0,1,1.443-1.514A1.843,1.843,0,0,1,700.529,81.166Z" transform="translate(-677.472 -80.399)" fill="#fff" opacity="0.2"/>
      <path id="Path_764" data-name="Path 764" d="M715.639,134.954c.87.448.134,1.677-.761,1.269-.234-.106-.462-.225-.682-.339A26.379,26.379,0,0,0,705.4,133.6a4.312,4.312,0,0,0-2.233.117,15.048,15.048,0,0,1,5.821-.351,38.007,38.007,0,0,1,5.687,1.224,5.035,5.035,0,0,1,.961.362Z" transform="translate(-681.325 -117.645)" fill="#fff"/>
      <path id="Path_765" data-name="Path 765" d="M707.417,144.666c.627.585-.351,1.275-1.007.713-.171-.145-.336-.3-.493-.448a26.365,26.365,0,0,0-6.939-4.241,17.186,17.186,0,0,0-3.827-.57,28.638,28.638,0,0,1,6.984,1.44,38.543,38.543,0,0,1,4.563,2.567A4.853,4.853,0,0,1,707.417,144.666Z" transform="translate(-675.592 -122.569)" fill="#fff" opacity="0.5"/>
      <path id="Path_766" data-name="Path 766" d="M696.989,157.228c.077.856-1.112.713-1.226-.143-.029-.222-.048-.448-.068-.662a26.313,26.313,0,0,0-2.341-7.786,16.107,16.107,0,0,0-2.473-2.977,28.77,28.77,0,0,1,4.244,5.733,38.921,38.921,0,0,1,1.688,4.945A4.736,4.736,0,0,1,696.989,157.228Z" transform="translate(-672.54 -126.529)" fill="#fff"/>
      <path id="Path_767" data-name="Path 767" d="M710.627,83.136a.175.175,0,0,1-.074.023c-.046,0-.08-.048-.1-.091-.106-.231-.046-.53-.208-.727a2.511,2.511,0,0,0-.4.667l-.625-.194a.923.923,0,0,0,.12.719.922.922,0,0,0-.285.2.325.325,0,0,0-.077.331,1.651,1.651,0,0,0,.442.043,2.93,2.93,0,0,0,.048.821.154.154,0,0,0,.054.106.148.148,0,0,0,.151-.026,1.426,1.426,0,0,0,.516-.545l.231.57a.243.243,0,0,0,.1.137.165.165,0,0,0,.2-.066.484.484,0,0,0,.068-.211l.088-.53a.121.121,0,0,1,.028-.074.129.129,0,0,1,.091-.026h.662c.04-.117-.08-.228-.191-.285s-.248-.086-.305-.2c-.114-.222.185-.533.057-.727S710.821,83.042,710.627,83.136Z" transform="translate(-685.465 -81.268)" fill="#fff"/>
      <path id="Path_768" data-name="Path 768" d="M717.24,173.466a.174.174,0,0,1-.074.023c-.049,0-.08-.049-.1-.091-.106-.231-.046-.53-.208-.727a2.483,2.483,0,0,0-.4.667l-.625-.194a.936.936,0,0,0,.117.719.991.991,0,0,0-.285.2.325.325,0,0,0-.077.331,1.652,1.652,0,0,0,.442.043,2.959,2.959,0,0,0,.046.824.151.151,0,0,0,.054.1c.046.029.106,0,.154-.026a1.448,1.448,0,0,0,.513-.545l.234.556a.245.245,0,0,0,.1.14.165.165,0,0,0,.194-.068.487.487,0,0,0,.071-.211l.086-.528a.167.167,0,0,1,.029-.077.131.131,0,0,1,.094-.026h.662c.037-.117-.08-.228-.191-.285s-.248-.086-.305-.2c-.114-.222.182-.533.057-.727S717.434,173.372,717.24,173.466Z" transform="translate(-690.19 -145.836)" fill="#fff" opacity="0.2"/>
      <path id="Path_769" data-name="Path 769" d="M735.82,112.916a.185.185,0,0,1-.074.023c-.048,0-.08-.048-.1-.091-.108-.231-.046-.53-.211-.727a2.548,2.548,0,0,0-.4.667l-.628-.194a.939.939,0,0,0,.12.719.91.91,0,0,0-.285.2.325.325,0,0,0-.077.331,1.641,1.641,0,0,0,.442.043,2.959,2.959,0,0,0,.046.824.15.15,0,0,0,.054.1.148.148,0,0,0,.151-.026,1.426,1.426,0,0,0,.516-.545l.234.57a.246.246,0,0,0,.1.14.166.166,0,0,0,.194-.068.451.451,0,0,0,.068-.211l.088-.528a.123.123,0,0,1,.029-.077.128.128,0,0,1,.091-.026h.664c.037-.117-.08-.228-.194-.285s-.245-.086-.3-.2c-.117-.222.183-.533.057-.727S736.014,112.822,735.82,112.916Z" transform="translate(-703.471 -102.554)" fill="#fff"/>
      <path id="Path_770" data-name="Path 770" d="M659.852,181.747a.188.188,0,0,1-.1.031c-.066,0-.111-.066-.14-.125-.148-.325-.063-.742-.285-1.012a3.444,3.444,0,0,0-.553.93l-.873-.285a1.3,1.3,0,0,0,.165,1,1.363,1.363,0,0,0-.411.285.459.459,0,0,0-.108.462,2.25,2.25,0,0,0,.616.06,4.181,4.181,0,0,0,.065,1.141.217.217,0,0,0,.077.145c.063.04.145,0,.211-.034a2.048,2.048,0,0,0,.713-.747l.322.773a.34.34,0,0,0,.145.194.228.228,0,0,0,.285-.094.652.652,0,0,0,.1-.285l.12-.736a.2.2,0,0,1,.043-.106.2.2,0,0,1,.128-.037h.921c.054-.163-.111-.314-.268-.385s-.342-.12-.422-.271c-.16-.314.254-.747.077-1.015C660.456,181.313,660.122,181.613,659.852,181.747Z" transform="translate(-648.696 -151.533)" fill="#fff"/>
      <path id="Path_771" data-name="Path 771" d="M628.935,113.939a.217.217,0,0,1-.1.031c-.066,0-.111-.068-.14-.128-.148-.322-.063-.739-.285-1.012a3.493,3.493,0,0,0-.553.93l-.873-.268a1.294,1.294,0,0,0,.165,1,1.313,1.313,0,0,0-.411.285.448.448,0,0,0-.106.459,2.117,2.117,0,0,0,.613.063,4.159,4.159,0,0,0,.066,1.141.218.218,0,0,0,.077.148c.063.04.146,0,.211-.037a2.063,2.063,0,0,0,.719-.759l.322.773a.351.351,0,0,0,.145.194.228.228,0,0,0,.271-.094.652.652,0,0,0,.1-.285l.12-.736a.2.2,0,0,1,.043-.106.2.2,0,0,1,.128-.037h.921c.054-.163-.108-.317-.268-.385s-.342-.12-.422-.285c-.16-.311.254-.744.08-1.012C629.539,113.495,629.205,113.805,628.935,113.939Z" transform="translate(-626.597 -103.062)" fill="#fff"/>
      <path id="Path_772" data-name="Path 772" d="M725.506,157.195a.091.091,0,0,1-.054,0c-.034,0-.06-.034-.074-.066-.077-.171-.031-.394-.154-.539a1.883,1.883,0,0,0-.285.493l-.465-.143a.693.693,0,0,0,.088.53.679.679,0,0,0-.217.148.239.239,0,0,0-.057.245,1.248,1.248,0,0,0,.325.034,2.068,2.068,0,0,0,.037.607.114.114,0,0,0,.04.077c.031.023.077,0,.111-.02a1.055,1.055,0,0,0,.382-.4l.171.411a.177.177,0,0,0,.077.1.128.128,0,0,0,.145-.048.424.424,0,0,0,.051-.157l.063-.391a.1.1,0,0,1,.023-.057.108.108,0,0,1,.068-.02h.488c.029-.088-.057-.168-.14-.205s-.185-.063-.225-.145c-.086-.165.134-.4.04-.539S725.652,157.123,725.506,157.195Z" transform="translate(-696.412 -134.342)" fill="#fff" opacity="0.2"/>
      <path id="Path_773" data-name="Path 773" d="M683.506,181.485a.091.091,0,0,1-.054,0c-.034,0-.06-.034-.074-.066-.077-.171-.031-.394-.154-.539a1.884,1.884,0,0,0-.285.493l-.465-.143a.693.693,0,0,0,.088.53.683.683,0,0,0-.217.148.24.24,0,0,0-.057.245,1.14,1.14,0,0,0,.325.031,2.08,2.08,0,0,0,.037.61.122.122,0,0,0,.037.077.114.114,0,0,0,.114-.02,1.055,1.055,0,0,0,.382-.4l.171.411a.188.188,0,0,0,.077.1.131.131,0,0,0,.145-.048.375.375,0,0,0,.049-.157l.066-.391a.1.1,0,0,1,.023-.057.094.094,0,0,1,.068-.02h.488c.029-.088-.057-.168-.14-.205s-.185-.066-.225-.145c-.086-.165.134-.4.04-.539S683.649,181.4,683.506,181.485Z" transform="translate(-666.39 -151.704)" fill="#fff" opacity="0.2"/>
      <path id="Path_774" data-name="Path 774" d="M642.909,96.608a.134.134,0,0,1-.054.017.094.094,0,0,1-.074-.068c-.08-.171-.034-.394-.157-.536a1.838,1.838,0,0,0-.285.493l-.462-.143a.684.684,0,0,0,.086.53.668.668,0,0,0-.217.148.24.24,0,0,0-.057.245,1.141,1.141,0,0,0,.328.031,2.17,2.17,0,0,0,.034.607.114.114,0,0,0,.04.08c.034.02.077,0,.111-.02a1.064,1.064,0,0,0,.382-.4l.171.411a.185.185,0,0,0,.077.106.126.126,0,0,0,.146-.051.365.365,0,0,0,.051-.157l.063-.391a.077.077,0,0,1,.091-.074h.491c.026-.086-.06-.168-.143-.2s-.182-.066-.225-.145c-.086-.165.134-.4.043-.539S643.038,96.536,642.909,96.608Z" transform="translate(-637.369 -91.046)" fill="#fff" opacity="0.5"/>
      <path id="Path_775" data-name="Path 775" d="M664.5,144.438a.119.119,0,0,1-.054.017c-.034,0-.06-.037-.074-.068-.08-.171-.034-.394-.154-.536a1.775,1.775,0,0,0-.285.493l-.462-.143a.38.38,0,0,1-.131.679.242.242,0,0,0-.057.242,1.159,1.159,0,0,0,.328.034,2.17,2.17,0,0,0,.034.607.108.108,0,0,0,.04.077c.034.023.08,0,.114-.017a1.077,1.077,0,0,0,.379-.4l.174.411a.168.168,0,0,0,.077.1.117.117,0,0,0,.143-.049.338.338,0,0,0,.051-.157l.066-.391a.091.091,0,0,1,.02-.054.1.1,0,0,1,.068-.02h.491c.028-.086-.06-.168-.143-.205s-.182-.063-.225-.145c-.083-.165.137-.394.043-.536S664.642,144.366,664.5,144.438Z" transform="translate(-652.805 -125.235)" fill="#fff" opacity="0.5"/>
      <path id="Path_776" data-name="Path 776" d="M648.8,125.755a.091.091,0,0,1-.054,0c-.034,0-.06-.034-.074-.066-.08-.171-.034-.394-.154-.539a1.817,1.817,0,0,0-.285.493l-.462-.143a.681.681,0,0,0,.088.53.726.726,0,0,0-.22.148.245.245,0,0,0-.057.245,1.14,1.14,0,0,0,.328.031,2.181,2.181,0,0,0,.034.61.086.086,0,0,0,.154.057,1.071,1.071,0,0,0,.379-.4l.174.411a.188.188,0,0,0,.077.1.123.123,0,0,0,.143-.051.352.352,0,0,0,.051-.154l.066-.394a.071.071,0,0,1,.088-.074h.491c.028-.086-.06-.165-.143-.2s-.183-.066-.225-.145c-.086-.165.137-.4.043-.539S648.941,125.678,648.8,125.755Z" transform="translate(-641.581 -111.868)" fill="#fff" opacity="0.5"/>
      <path id="Path_777" data-name="Path 777" d="M716.229,130.18a.1.1,0,0,1-.054.014c-.037,0-.06-.034-.074-.066-.08-.171-.034-.394-.157-.539a1.88,1.88,0,0,0-.285.493l-.462-.143a.679.679,0,0,0,.086.53.717.717,0,0,0-.217.148.24.24,0,0,0-.057.245,1.141,1.141,0,0,0,.328.031,2.188,2.188,0,0,0,.034.61.114.114,0,0,0,.04.077.109.109,0,0,0,.111-.02,1.078,1.078,0,0,0,.382-.4l.171.411a.189.189,0,0,0,.077.1.125.125,0,0,0,.145-.051.353.353,0,0,0,.051-.154l.063-.394a.1.1,0,0,1,.023-.054.094.094,0,0,1,.068-.02h.491c.026-.086-.06-.165-.143-.2s-.182-.066-.225-.145c-.086-.165.134-.4.043-.539S716.372,130.109,716.229,130.18Z" transform="translate(-689.778 -115.042)" fill="#fff" opacity="0.5"/>
      <path id="Path_778" data-name="Path 778" d="M683.506,126.485a.09.09,0,0,1-.054,0c-.034,0-.06-.034-.074-.066-.077-.171-.031-.394-.154-.539a1.883,1.883,0,0,0-.285.493l-.465-.143a.694.694,0,0,0,.088.53.681.681,0,0,0-.217.148.24.24,0,0,0-.057.245,1.25,1.25,0,0,0,.325.034,2.076,2.076,0,0,0,.037.607.123.123,0,0,0,.037.077c.034.023.08,0,.114-.02a1.055,1.055,0,0,0,.382-.4l.171.411a.177.177,0,0,0,.077.1.131.131,0,0,0,.146-.048.373.373,0,0,0,.048-.157l.066-.391a.1.1,0,0,1,.023-.057.108.108,0,0,1,.068-.02h.488c.029-.088-.057-.168-.14-.205s-.185-.063-.225-.145c-.086-.165.134-.4.04-.539S683.649,126.41,683.506,126.485Z" transform="translate(-666.39 -112.39)" fill="#fff" opacity="0.2"/>
      <path id="Path_779" data-name="Path 779" d="M673.239,130.978a.112.112,0,0,1-.057.017c-.034,0-.057-.034-.074-.066-.077-.171-.031-.394-.154-.539a1.882,1.882,0,0,0-.285.493l-.465-.143a.693.693,0,0,0,.088.53.716.716,0,0,0-.217.148.24.24,0,0,0-.057.245,1.141,1.141,0,0,0,.325.031,2.193,2.193,0,0,0,.037.61.114.114,0,0,0,.04.077.109.109,0,0,0,.111-.02,1.078,1.078,0,0,0,.382-.4l.171.411a.188.188,0,0,0,.077.1.125.125,0,0,0,.145-.051.391.391,0,0,0,.051-.154l.063-.394a.077.077,0,0,1,.091-.074H674c.026-.086-.06-.165-.143-.2s-.182-.066-.225-.145c-.086-.165.134-.4.04-.539S673.382,130.909,673.239,130.978Z" transform="translate(-659.049 -115.614)" fill="#fff" opacity="0.3"/>
      <path id="Path_780" data-name="Path 780" d="M663.667,103.948a.12.12,0,0,1-.054.017c-.034,0-.06-.037-.074-.068-.077-.171-.031-.394-.154-.536a1.79,1.79,0,0,0-.285.493l-.465-.145a.693.693,0,0,0,.089.53.728.728,0,0,0-.217.148.243.243,0,0,0-.057.245,1.249,1.249,0,0,0,.325.034,2.065,2.065,0,0,0,.037.607.118.118,0,0,0,.037.077c.034.023.08,0,.114-.017a1.085,1.085,0,0,0,.382-.4l.171.411a.177.177,0,0,0,.077.1.123.123,0,0,0,.145-.048.375.375,0,0,0,.048-.157l.066-.391a.1.1,0,0,1,.023-.057.091.091,0,0,1,.068-.017h.488c.028-.088-.057-.168-.14-.205s-.185-.063-.225-.145c-.086-.165.134-.394.04-.536S663.81,103.876,663.667,103.948Z" transform="translate(-652.21 -96.293)" fill="#fff" opacity="0.2"/>
      <path id="Path_781" data-name="Path 781" d="M682.519,139.22a.1.1,0,0,1-.054.014c-.037,0-.06-.034-.074-.066-.08-.171-.034-.394-.157-.539a1.855,1.855,0,0,0-.285.5l-.462-.145a.691.691,0,0,0,.086.53.75.75,0,0,0-.217.148.24.24,0,0,0-.057.245,1.269,1.269,0,0,0,.328.034,2.167,2.167,0,0,0,.034.607.115.115,0,0,0,.04.077c.034.023.077,0,.111-.017a1.085,1.085,0,0,0,.382-.4l.171.411a.177.177,0,0,0,.077.1.128.128,0,0,0,.145-.048.377.377,0,0,0,.051-.157l.063-.391a.123.123,0,0,1,.023-.057.108.108,0,0,1,.068-.02h.491c.029-.088-.06-.168-.143-.205s-.183-.063-.225-.145c-.086-.165.137-.4.043-.539S682.662,139.149,682.519,139.22Z" transform="translate(-665.682 -121.504)" fill="#fff" opacity="0.3"/>
    </g>
    <path id="Path_782" data-name="Path 782" d="M448.461,119.87a1.363,1.363,0,0,0-2.219,1.583c.254.382.53.756.793,1.109,3.206,4.324,4.866,9.577,6.294,14.768a6.887,6.887,0,0,1,.285,3.893,24.371,24.371,0,0,0-.665-10.165,62.713,62.713,0,0,0-3.6-9.6A8.524,8.524,0,0,0,448.461,119.87Z" transform="translate(-385.029 -21.761)" fill="#fff" opacity="0.5"/>
    <path id="Path_783" data-name="Path 783" d="M377.343,153.178c-2.162-.066-2.436,3.211-.285,3.382.57.046,1.141.06,1.677.074,6.617.18,12.874,2.567,18.886,5.159a8.113,8.113,0,0,1,3.887,2.7,28.273,28.273,0,0,0-10.076-7.13,75.447,75.447,0,0,0-11.884-3.847A10.394,10.394,0,0,0,377.343,153.178Z" transform="translate(-334.693 -45.973)" fill="#fff"/>
    <path id="Path_784" data-name="Path 784" d="M381.643,181.423c-1.363.051-1.055,2,.319,2,.359,0,.716,0,1.058-.029,4.175-.168,8.45.984,12.6,2.25a6.458,6.458,0,0,1,2.832,1.426,22.667,22.667,0,0,0-7.361-3.779,56.143,56.143,0,0,0-8.011-1.763A7.3,7.3,0,0,0,381.643,181.423Z" transform="translate(-338.4 -66.162)" fill="#fff" opacity="0.2"/>
    <path id="Path_785" data-name="Path 785" d="M480.311,263.532c.388,1.309,2.19.53,1.862-.8-.088-.348-.191-.693-.285-1.021-1.2-3.993-1.141-8.428-.947-12.76a6.469,6.469,0,0,1,.679-3.1,22.844,22.844,0,0,0-1.834,8.068,55.317,55.317,0,0,0,.285,8.2A7.5,7.5,0,0,0,480.311,263.532Z" transform="translate(-409.141 -112.216)" fill="#fff" opacity="0.5"/>
    <path id="Path_786" data-name="Path 786" d="M390.945,114.881c-.821-.143-.884,1.055-.063,1.238.214.046.431.083.636.117a23.667,23.667,0,0,1,7.236,2.943,3.956,3.956,0,0,1,1.512,1.212,13.836,13.836,0,0,0-3.916-3.2,34.08,34.08,0,0,0-4.563-2.071A4.568,4.568,0,0,0,390.945,114.881Z" transform="translate(-345.215 -18.591)" fill="#fff" opacity="0.2"/>
    <path id="Path_787" data-name="Path 787" d="M345.761,215.861c-2.085,1.072-.322,4.018,1.82,3.04.57-.257,1.107-.542,1.629-.813,6.369-3.3,13.767-4.52,21.045-5.459a10.22,10.22,0,0,1,5.342.285,36.16,36.16,0,0,0-13.932-.836,92.8,92.8,0,0,0-13.607,2.926A12.269,12.269,0,0,0,345.761,215.861Z" transform="translate(-312.714 -87.857)" fill="#fff"/>
    <path id="Path_788" data-name="Path 788" d="M367.8,239.07c-1.5,1.4.841,3.049,2.413,1.711.411-.351.8-.722,1.175-1.072,4.563-4.278,10.6-7.335,16.6-10.145,1.474-.69,7.541-1.395,9.161-1.358-4.229.379-12.874,1.711-16.716,3.448a91.135,91.135,0,0,0-10.909,6.112A11.77,11.77,0,0,0,367.8,239.07Z" transform="translate(-328.788 -99.603)" fill="#fff" opacity="0.5"/>
    <path id="Path_789" data-name="Path 789" d="M406.327,266.221c-.436,2,2.424,2.028,2.955.031.14-.525.251-1.05.359-1.551,1.318-6.12,4.549-12.061,7.891-17.785.821-1.406,5.419-5.436,6.768-6.326-3.265,2.718-9.625,8.719-11.793,12.341a92.183,92.183,0,0,0-5.493,11.228A11.825,11.825,0,0,0,406.327,266.221Z" transform="translate(-356.641 -108.456)" fill="#fff"/>
    <path id="Path_790" data-name="Path 790" d="M473.864,81.794c-1.021-2.082-3.936-.371-3.012,1.763.242.57.516,1.107.773,1.626,3.137,6.354,4.224,13.7,5.031,20.931a10.294,10.294,0,0,1-.354,5.29,36.176,36.176,0,0,0,1.035-13.8,91.025,91.025,0,0,0-2.664-13.524A11.8,11.8,0,0,0,473.864,81.794Z" transform="translate(-402.669 5.726)" fill="#fff"/>
    <path id="Path_791" data-name="Path 791" d="M418.71,91.8a.325.325,0,0,0,.174.051c.114,0,.194-.114.24-.217.257-.553.108-1.272.5-1.737a5.987,5.987,0,0,1,.953,1.594l1.5-.462a2.225,2.225,0,0,1-.285,1.711,2.33,2.33,0,0,1,.707.479.784.784,0,0,1,.183.793,3.77,3.77,0,0,1-1.058.106,7.016,7.016,0,0,1-.111,1.968.371.371,0,0,1-.128.248c-.111.071-.254,0-.365-.06a3.451,3.451,0,0,1-1.232-1.306l-.556,1.329a.6.6,0,0,1-.248.334.4.4,0,0,1-.468-.16,1.141,1.141,0,0,1-.165-.5l-.208-1.266a.3.3,0,0,0-.068-.18.331.331,0,0,0-.222-.063q-.793-.023-1.583-.017c-.091-.285.188-.542.459-.659s.59-.208.727-.471c.285-.533-.439-1.278-.134-1.74C417.672,91.041,418.248,91.574,418.71,91.8Z" transform="translate(-363.765 -0.743)" fill="#fff"/>
    <path id="Path_792" data-name="Path 792" d="M512.581,119.87a1.363,1.363,0,0,1,2.219,1.583c-.254.382-.533.756-.8,1.109-3.2,4.324-4.848,9.577-6.294,14.768a6.885,6.885,0,0,0-.285,3.893,24.369,24.369,0,0,1,.664-10.165,62.719,62.719,0,0,1,3.6-9.6A8.529,8.529,0,0,1,512.581,119.87Z" transform="translate(-428.743 -21.761)" fill="#fff" opacity="0.5"/>
    <path id="Path_793" data-name="Path 793" d="M538.495,153.178c2.162-.066,2.436,3.211.285,3.382-.57.046-1.141.06-1.677.074-6.617.18-12.874,2.567-18.886,5.159a8.086,8.086,0,0,0-3.887,2.7,28.273,28.273,0,0,1,10.076-7.13,75.686,75.686,0,0,1,11.882-3.839A10.449,10.449,0,0,1,538.495,153.178Z" transform="translate(-433.874 -45.973)" fill="#fff"/>
    <g id="Group_86" data-name="Group 86" transform="translate(-18.843 -26)">
      <path id="Path_993" data-name="Path 993" d="M566.312,120.906h-.728V81.663A15.786,15.786,0,0,0,549.673,66H460.545a15.791,15.791,0,0,0-15.911,15.663V97.93h-.212a.93.93,0,0,0-.937.92v7.832a.93.93,0,0,0,.937.92h.228v8h-.287a.927.927,0,0,0-.933.92V131.5a.93.93,0,0,0,.933.923h.287v5.874H444.4a.927.927,0,0,0-.937.92v15.122a.927.927,0,0,0,.937.92h.248V292.433A15.786,15.786,0,0,0,460.562,308.1H549.67a15.791,15.791,0,0,0,15.911-15.663V150.256h.731a.93.93,0,0,0,.937-.92V121.827a.93.93,0,0,0-.937-.92Z" transform="translate(-306.587 62.714)" fill="url(#linear-gradient)"/>
      <g id="Group_81" data-name="Group 81" transform="translate(138.605 130.345)" opacity="0.9">
        <rect id="Rectangle_41" data-name="Rectangle 41" width="3.514" height="28.984" rx="1.757" transform="translate(116.936 54.237)" fill="#e5e7eb"/>
        <rect id="Rectangle_42" data-name="Rectangle 42" width="1.974" height="9.542" rx="0.987" transform="translate(0.072 31.532)" fill="#e5e7eb"/>
        <rect id="Rectangle_43" data-name="Rectangle 43" width="2.225" height="16.606" rx="1.113" transform="translate(0 49)" fill="#e5e7eb"/>
        <rect id="Rectangle_44" data-name="Rectangle 44" width="2.118" height="16.75" rx="1.059" transform="translate(0.036 71.418)" fill="#e5e7eb"/>
        <rect id="Rectangle_45" data-name="Rectangle 45" width="117.645" height="239.097" rx="15" transform="translate(1.188)" fill="#fff"/>
        <rect id="Rectangle_46" data-name="Rectangle 46" width="16.43" height="3.335" rx="1.667" transform="translate(48.664 7.14)" fill="#e5e7eb"/>
        <circle id="Ellipse_56" data-name="Ellipse 56" cx="1.893" cy="1.893" r="1.893" transform="translate(67.574 6.915)" fill="#e5e7eb"/>
      </g>
      <path id="Path_994" data-name="Path 994" d="M568.511,90.09H555.044v1.632a7.7,7.7,0,0,1-7.695,7.691H504.412a7.7,7.7,0,0,1-7.695-7.691V90.09H484.083a9.343,9.343,0,0,0-9.343,9.343V307.389a9.343,9.343,0,0,0,9.343,9.343h84.429a9.343,9.343,0,0,0,9.343-9.343V99.433A9.343,9.343,0,0,0,568.511,90.09Z" transform="translate(-327.68 46.485)" fill="#f2f2f2"/>
    </g>
    <path id="Path_794" data-name="Path 794" d="M554.884,181.423c1.366.051,1.058,2-.317,2-.359,0-.719,0-1.061-.029-4.172-.168-8.448.984-12.594,2.25a6.444,6.444,0,0,0-2.832,1.426,22.639,22.639,0,0,1,7.361-3.779,56.229,56.229,0,0,1,8.011-1.763A7.287,7.287,0,0,1,554.884,181.423Z" transform="translate(-450.85 -66.162)" fill="#fff" opacity="0.5"/>
    <path id="Path_795" data-name="Path 795" d="M564.9,114.881c.821-.143.884,1.055.066,1.238-.214.046-.431.083-.636.117a23.684,23.684,0,0,0-7.238,2.943,3.945,3.945,0,0,0-1.509,1.212,13.834,13.834,0,0,1,3.916-3.2,34.072,34.072,0,0,1,4.563-2.071A4.527,4.527,0,0,1,564.9,114.881Z" transform="translate(-463.359 -18.591)" fill="#fff" opacity="0.2"/>
    <path id="Path_796" data-name="Path 796" d="M509.532,289.674c-.185.813-1.315.408-1.167-.416.04-.217.091-.431.137-.633a23.739,23.739,0,0,0,.074-7.812,3.938,3.938,0,0,0-.536-1.862,13.855,13.855,0,0,1,1.426,4.848,34.577,34.577,0,0,1,.151,5.005A4.5,4.5,0,0,1,509.532,289.674Z" transform="translate(-429.378 -135.876)" fill="#fff" opacity="0.2"/>
    <path id="Path_797" data-name="Path 797" d="M555.045,265.417c.642,1.087-.935,1.015-1.626-.074-.182-.285-.348-.57-.51-.856a58.773,58.773,0,0,0-7.92-9.788,10.987,10.987,0,0,0-2.458-2.119,38.676,38.676,0,0,1,6.44,5.5c1.922,2,3.619,4.1,5.282,6.195a10.255,10.255,0,0,1,.793,1.138Z" transform="translate(-454.031 -117.027)" fill="#fff" opacity="0.5"/>
    <path id="Path_798" data-name="Path 798" d="M385.893,265.417c-.642,1.087.935,1.015,1.626-.074.183-.285.351-.57.51-.856a58.919,58.919,0,0,1,7.92-9.788,10.987,10.987,0,0,1,2.458-2.119,38.672,38.672,0,0,0-6.44,5.5c-1.922,2-3.619,4.1-5.282,6.195A10.25,10.25,0,0,0,385.893,265.417Z" transform="translate(-341.96 -117.027)" fill="#fff" opacity="0.2"/>
    <path id="Path_799" data-name="Path 799" d="M459.159,289.674c.185.813,1.315.408,1.166-.416-.04-.217-.091-.431-.137-.633a23.739,23.739,0,0,1-.074-7.812,3.966,3.966,0,0,1,.533-1.862,13.907,13.907,0,0,0-1.426,4.848,34.178,34.178,0,0,0-.151,5.005A4.487,4.487,0,0,0,459.159,289.674Z" transform="translate(-394.351 -135.876)" fill="#fff" opacity="0.2"/>
    <path id="Path_800" data-name="Path 800" d="M541.84,143.511c.821-.143.884,1.055.063,1.238-.214.046-.431.083-.636.117a23.668,23.668,0,0,0-7.235,2.943,3.956,3.956,0,0,0-1.512,1.212,13.833,13.833,0,0,1,3.916-3.191A34.435,34.435,0,0,1,541,143.759,4.567,4.567,0,0,1,541.84,143.511Z" transform="translate(-446.876 -39.055)" fill="#fff" opacity="0.2"/>
    <path id="Path_801" data-name="Path 801" d="M521.8,87.073c.707-.439,1.212.647.522,1.121-.182.125-.368.24-.548.348a23.727,23.727,0,0,0-5.613,5.436,3.941,3.941,0,0,0-.947,1.688,13.854,13.854,0,0,1,2.438-4.409,34.691,34.691,0,0,1,3.457-3.628A4.567,4.567,0,0,1,521.8,87.073Z" transform="translate(-434.503 1.351)" fill="#fff" opacity="0.2"/>
    <path id="Path_802" data-name="Path 802" d="M557.955,215.861c2.085,1.072.322,4.018-1.82,3.04-.57-.257-1.107-.542-1.628-.813-6.369-3.3-13.769-4.52-21.045-5.459a10.218,10.218,0,0,0-5.342.285,36.156,36.156,0,0,1,13.932-.836,93.2,93.2,0,0,1,13.607,2.926A12.266,12.266,0,0,1,557.955,215.861Z" transform="translate(-443.731 -87.857)" fill="#fff"/>
    <path id="Path_803" data-name="Path 803" d="M538.276,239.07c1.5,1.4-.856,3.049-2.413,1.711-.411-.351-.8-.722-1.175-1.072-4.563-4.278-10.6-7.335-16.6-10.145-1.474-.69-7.544-1.395-9.163-1.358,4.232.379,12.877,1.711,16.718,3.448a91.243,91.243,0,0,1,10.9,6.118A11.652,11.652,0,0,1,538.276,239.07Z" transform="translate(-430.007 -99.603)" fill="#fff" opacity="0.5"/>
    <path id="Path_804" data-name="Path 804" d="M513.352,269.067c.182,2.039-2.661,1.711-2.935-.339-.074-.536-.117-1.072-.163-1.583-.542-6.237-3-12.549-5.6-18.635-.636-1.494-4.689-6.069-5.921-7.13,2.9,3.1,8.456,9.854,10.156,13.715a92.148,92.148,0,0,1,4.041,11.83A11.95,11.95,0,0,1,513.352,269.067Z" transform="translate(-422.723 -109.021)" fill="#fff"/>
    <path id="Path_805" data-name="Path 805" d="M545.958,91.8a.328.328,0,0,1-.177.051c-.111,0-.191-.114-.24-.217-.254-.553-.108-1.272-.5-1.737a5.912,5.912,0,0,0-.953,1.594l-1.5-.462a2.236,2.236,0,0,0,.285,1.711,2.352,2.352,0,0,0-.7.479.784.784,0,0,0-.183.793,3.771,3.771,0,0,0,1.058.106,6.909,6.909,0,0,0,.111,1.968.36.36,0,0,0,.128.248c.111.071.254,0,.365-.06a3.473,3.473,0,0,0,1.232-1.306l.57,1.329a.57.57,0,0,0,.248.334.4.4,0,0,0,.468-.16,1.226,1.226,0,0,0,.165-.5l.208-1.266a.3.3,0,0,1,.068-.18.322.322,0,0,1,.22-.063c.531-.014,1.058-.02,1.586-.017.091-.285-.191-.542-.459-.659s-.593-.208-.727-.471c-.285-.533.436-1.278.134-1.74C546.982,91.041,546.406,91.574,545.958,91.8Z" transform="translate(-453.617 -0.743)" fill="#fff"/>
    <path id="Path_806" data-name="Path 806" d="M561.748,307.955a.405.405,0,0,1-.177.051c-.114,0-.194-.114-.24-.217-.257-.553-.108-1.272-.5-1.74a6.123,6.123,0,0,0-.952,1.6l-1.492-.471a2.23,2.23,0,0,0,.285,1.711,2.33,2.33,0,0,0-.707.479.784.784,0,0,0-.183.793,3.878,3.878,0,0,0,1.058.105,6.987,6.987,0,0,0,.111,1.965.377.377,0,0,0,.128.251.362.362,0,0,0,.365-.06,3.474,3.474,0,0,0,1.232-1.306l.57,1.329a.6.6,0,0,0,.248.334.405.405,0,0,0,.468-.163,1.14,1.14,0,0,0,.165-.5l.208-1.263a.237.237,0,0,1,.285-.242c.528-.017,1.055-.02,1.583-.017.091-.285-.188-.542-.459-.659s-.59-.208-.727-.471c-.285-.536.439-1.281.134-1.74C562.783,307.191,562.207,307.724,561.748,307.955Z" transform="translate(-464.904 -155.247)" fill="#fff" opacity="0.2"/>
    <path id="Path_807" data-name="Path 807" d="M606.219,163.062a.357.357,0,0,1-.174.054.322.322,0,0,1-.24-.217c-.257-.556-.108-1.272-.5-1.74a5.927,5.927,0,0,0-.953,1.6l-1.5-.465a2.242,2.242,0,0,0,.285,1.711,2.3,2.3,0,0,0-.7.479.781.781,0,0,0-.183.79,3.771,3.771,0,0,0,1.058.106,6.9,6.9,0,0,0,.111,1.968.377.377,0,0,0,.128.251.365.365,0,0,0,.365-.063,3.489,3.489,0,0,0,1.232-1.3l.57,1.329a.588.588,0,0,0,.248.331.4.4,0,0,0,.468-.16,1.187,1.187,0,0,0,.165-.5l.208-1.266a.3.3,0,0,1,.068-.177.317.317,0,0,1,.222-.066c.528,0,1.055-.02,1.583,0,.091-.285-.188-.542-.459-.662s-.59-.205-.727-.468c-.285-.536.439-1.281.134-1.74C607.257,162.3,606.681,162.826,606.219,163.062Z" transform="translate(-396.692 -51.68)" fill="#fff"/>
    <path id="Path_808" data-name="Path 808" d="M424.443,327.762a.507.507,0,0,1-.245.071c-.16,0-.268-.16-.334-.3-.357-.773-.151-1.771-.7-2.421a8.289,8.289,0,0,0-1.326,2.225l-2.085-.647a3.092,3.092,0,0,0,.4,2.39,3.261,3.261,0,0,0-.984.667,1.1,1.1,0,0,0-.254,1.1,5.322,5.322,0,0,0,1.472.148,9.714,9.714,0,0,0,.157,2.741.385.385,0,0,0,.687.262,4.826,4.826,0,0,0,1.711-1.82l.776,1.854a.818.818,0,0,0,.345.462.55.55,0,0,0,.65-.222,1.623,1.623,0,0,0,.231-.7l.285-1.763a.443.443,0,0,1,.094-.248.433.433,0,0,1,.308-.088c.736-.023,1.474-.029,2.21-.023.125-.391-.265-.756-.642-.921s-.824-.285-1.012-.653c-.385-.747.61-1.783.188-2.424C425.889,326.7,425.085,327.443,424.443,327.762Z" transform="translate(-365.631 -168.871)" fill="#fff"/>
    <path id="Path_810" data-name="Path 810" d="M581.554,269.1a.251.251,0,0,1-.131.04c-.085,0-.143-.086-.177-.16-.191-.411-.08-.941-.371-1.289a4.368,4.368,0,0,0-.7,1.184l-1.109-.345a1.662,1.662,0,0,0,.208,1.272,1.63,1.63,0,0,0-.519.354.57.57,0,0,0-.137.588,2.889,2.889,0,0,0,.781.077,5.184,5.184,0,0,0,.086,1.455.256.256,0,0,0,.094.185c.08.051.188,0,.285-.043a2.6,2.6,0,0,0,.91-.967l.414.984a.433.433,0,0,0,.182.245.285.285,0,0,0,.345-.12.857.857,0,0,0,.123-.374l.154-.935a.243.243,0,0,1,.051-.134.237.237,0,0,1,.165-.046c.391,0,.781-.014,1.172,0,.066-.208-.143-.4-.342-.491s-.436-.151-.536-.345c-.205-.4.322-.947.1-1.289C582.31,268.534,581.882,268.919,581.554,269.1Z" transform="translate(-399.802 -88.827)" fill="#22b473" opacity="0.2"/>
    <path id="Path_811" data-name="Path 811" d="M481.006,327.129a.305.305,0,0,1-.131.04c-.083,0-.14-.086-.177-.163-.188-.411-.08-.941-.371-1.286a4.424,4.424,0,0,0-.7,1.181l-1.107-.342a1.643,1.643,0,0,0,.208,1.269,1.712,1.712,0,0,0-.522.357.57.57,0,0,0-.137.585,2.909,2.909,0,0,0,.784.08,5.086,5.086,0,0,0,.083,1.454.285.285,0,0,0,.094.185.268.268,0,0,0,.271-.046,2.567,2.567,0,0,0,.913-.967l.411.984a.444.444,0,0,0,.185.248.3.3,0,0,0,.345-.12.889.889,0,0,0,.123-.374l.154-.938a.222.222,0,0,1,.051-.131.228.228,0,0,1,.163-.046c.391,0,.781-.017,1.172-.014.069-.205-.14-.4-.339-.488s-.436-.154-.539-.348c-.2-.4.325-.947.1-1.286C481.773,326.564,481.348,326.961,481.006,327.129Z" transform="translate(-407.931 -169.307)" fill="#fff" opacity="0.2"/>
    <path id="Path_813" data-name="Path 813" d="M435.534,238.469a.26.26,0,0,1-.128.04c-.086,0-.143-.086-.18-.16-.188-.411-.08-.941-.368-1.289a4.45,4.45,0,0,0-.707,1.184l-1.121-.345a1.663,1.663,0,0,0,.208,1.272,1.674,1.674,0,0,0-.522.354.57.57,0,0,0-.134.57,2.771,2.771,0,0,0,.781.08,5.3,5.3,0,0,0,.083,1.455.259.259,0,0,0,.1.185c.08.051.188,0,.268-.043a2.582,2.582,0,0,0,.913-.967l.414.984a.434.434,0,0,0,.183.245.285.285,0,0,0,.345-.12.879.879,0,0,0,.123-.374l.154-.935a.242.242,0,0,1,.051-.134.228.228,0,0,1,.163-.046h1.175c.066-.208-.143-.4-.342-.491s-.436-.151-.536-.345c-.205-.4.322-.947.1-1.289C436.29,237.9,435.862,238.3,435.534,238.469Z" transform="translate(-375.421 -105.933)" fill="#fff" opacity="0.5"/>
    <path id="Path_814" data-name="Path 814" d="M397.939,193.869a.257.257,0,0,1-.128.037c-.086,0-.143-.083-.18-.16-.188-.411-.08-.941-.371-1.286a4.422,4.422,0,0,0-.7,1.181l-1.107-.342a1.654,1.654,0,0,0,.208,1.269,1.739,1.739,0,0,0-.522.354.571.571,0,0,0-.134.588,2.767,2.767,0,0,0,.781.077,5.2,5.2,0,0,0,.083,1.457.285.285,0,0,0,.1.185c.08.051.185,0,.268-.046a2.581,2.581,0,0,0,.913-.967l.414.984a.425.425,0,0,0,.183.245.285.285,0,0,0,.345-.117.9.9,0,0,0,.123-.374l.154-.938a.234.234,0,0,1,.051-.131.231.231,0,0,1,.163-.048c.391,0,.781-.014,1.172,0,.068-.208-.14-.4-.339-.488s-.436-.154-.536-.348c-.205-.4.322-.947.1-1.289C398.709,193.3,398.282,193.7,397.939,193.869Z" transform="translate(-348.556 -74.053)" fill="#fff" opacity="0.5"/>
    <path id="Path_815" data-name="Path 815" d="M559.3,204.369a.26.26,0,0,1-.128.04c-.086,0-.143-.086-.177-.163-.191-.408-.083-.941-.371-1.286a4.366,4.366,0,0,0-.7,1.184L556.8,203.8a1.654,1.654,0,0,0,.208,1.269,1.73,1.73,0,0,0-.522.356.57.57,0,0,0-.134.585,2.878,2.878,0,0,0,.781.08,5.3,5.3,0,0,0,.083,1.455.269.269,0,0,0,.1.185c.08.051.188,0,.268-.046a2.541,2.541,0,0,0,.913-.967l.414.984a.442.442,0,0,0,.182.248.285.285,0,0,0,.345-.12.889.889,0,0,0,.123-.374l.154-.935a.244.244,0,0,1,.051-.134.228.228,0,0,1,.163-.046c.391,0,.784-.014,1.175,0,.066-.208-.143-.4-.342-.491s-.436-.154-.536-.348c-.205-.4.322-.947.1-1.286C560.067,203.8,559.653,204.2,559.3,204.369Z" transform="translate(-463.89 -81.558)" fill="#fff" opacity="0.5"/>
    <path id="Path_816" data-name="Path 816" d="M481.006,195.589a.285.285,0,0,1-.131.04c-.083,0-.14-.086-.177-.16-.188-.411-.08-.941-.371-1.289a4.442,4.442,0,0,0-.7,1.184l-1.107-.345a1.651,1.651,0,0,0,.208,1.272,1.64,1.64,0,0,0-.522.354.57.57,0,0,0-.137.585,2.8,2.8,0,0,0,.784.08,5.082,5.082,0,0,0,.083,1.455.269.269,0,0,0,.094.185.285.285,0,0,0,.271-.043,2.6,2.6,0,0,0,.913-.967l.411.984a.439.439,0,0,0,.185.245.285.285,0,0,0,.345-.12.878.878,0,0,0,.123-.374l.154-.935a.222.222,0,0,1,.051-.134.228.228,0,0,1,.163-.046c.391,0,.781-.014,1.172,0,.069-.208-.14-.4-.339-.491s-.436-.151-.539-.345c-.2-.4.325-.947.1-1.289C481.773,195.024,481.348,195.421,481.006,195.589Z" transform="translate(-407.931 -75.282)" fill="#fff" opacity="0.2"/>
    <path id="Path_817" data-name="Path 817" d="M456.414,206.279a.286.286,0,0,1-.131.04c-.083,0-.143-.086-.177-.16-.188-.411-.08-.944-.371-1.289a4.442,4.442,0,0,0-.713,1.178l-1.109-.345a1.651,1.651,0,0,0,.211,1.272,1.64,1.64,0,0,0-.522.354.57.57,0,0,0-.137.585,2.8,2.8,0,0,0,.784.08,5.079,5.079,0,0,0,.083,1.455.268.268,0,0,0,.094.185.285.285,0,0,0,.271-.043,2.6,2.6,0,0,0,.913-.967l.411.984a.445.445,0,0,0,.183.245.285.285,0,0,0,.348-.12.839.839,0,0,0,.12-.374l.154-.935a.265.265,0,0,1,.051-.134.237.237,0,0,1,.165-.046c.391,0,.781-.014,1.172,0,.068-.208-.14-.4-.339-.491s-.439-.151-.539-.345c-.2-.4.325-.947.1-1.289C457.182,205.714,456.757,206.111,456.414,206.279Z" transform="translate(-390.346 -82.924)" fill="#fff" opacity="0.3"/>
    <path id="Path_818" data-name="Path 818" d="M433.556,141.589a.285.285,0,0,1-.131.04c-.086,0-.143-.086-.177-.163-.188-.408-.08-.941-.371-1.286a4.393,4.393,0,0,0-.7,1.181l-1.109-.342a1.643,1.643,0,0,0,.211,1.269,1.663,1.663,0,0,0-.522.357.57.57,0,0,0-.137.585,2.889,2.889,0,0,0,.781.08,5.193,5.193,0,0,0,.086,1.455.268.268,0,0,0,.094.185c.08.051.188,0,.271-.046a2.566,2.566,0,0,0,.91-.967l.414.984a.442.442,0,0,0,.182.248.285.285,0,0,0,.345-.12.855.855,0,0,0,.123-.374l.154-.935a.243.243,0,0,1,.051-.134.237.237,0,0,1,.165-.046c.391,0,.781-.017,1.172-.014.066-.205-.14-.4-.342-.488s-.436-.154-.536-.348c-.205-.4.322-.947.1-1.286C434.317,141.024,433.89,141.421,433.556,141.589Z" transform="translate(-374.013 -36.683)" fill="#fff" opacity="0.2"/>
    <path id="Path_819" data-name="Path 819" d="M478.649,226.009a.26.26,0,0,1-.131.037c-.083,0-.14-.083-.177-.16-.188-.411-.08-.941-.371-1.286a4.423,4.423,0,0,0-.7,1.181l-1.107-.342a1.643,1.643,0,0,0,.208,1.269,1.738,1.738,0,0,0-.522.354.57.57,0,0,0-.134.587,2.766,2.766,0,0,0,.781.077,5.2,5.2,0,0,0,.083,1.457.285.285,0,0,0,.094.185.268.268,0,0,0,.285-.046,2.585,2.585,0,0,0,.913-.967l.411.984a.46.46,0,0,0,.185.248.3.3,0,0,0,.345-.12.891.891,0,0,0,.123-.374l.154-.938a.243.243,0,0,1,.051-.131.231.231,0,0,1,.163-.049c.391,0,.781-.014,1.172,0,.068-.208-.14-.4-.339-.488s-.436-.154-.536-.348c-.205-.4.322-.947.1-1.286C479.419,225.444,478.992,225.838,478.649,226.009Z" transform="translate(-406.247 -97.027)" fill="#fff" opacity="0.3"/>
    <path id="Path_820" data-name="Path 820" d="M478.071,482.206a4.186,4.186,0,0,0,.473-2.19,8.682,8.682,0,0,0-.143-.978,15.654,15.654,0,0,0-.371-1.657c-.174-.57-.411-1.126-.616-1.688-.308-.856-.539-1.734-.787-2.607-.014-.049-.029-.094-.04-.143-.057-.194-.114-.388-.174-.57a1.074,1.074,0,0,1,.354.088.724.724,0,0,1-.157-.285.4.4,0,0,0,0-.054,8.165,8.165,0,0,1-.257-1.3c-.034-.285-.051-.57-.06-.856l.225-.1a5.677,5.677,0,0,0-.108-2.145c.088-.779.208-1.56.311-2.339.051-.359.1-.719.134-1.078.046-.422.031-.955-.359-1.061-.08-.6-.114-1.218-.146-1.831q-.163-3.206-.331-6.409c-.111-2.142-.222-4.278-.268-6.428v-.439a16.57,16.57,0,0,0-.359-3.639,5.661,5.661,0,0,0,0-.659,4.34,4.34,0,0,0-.051-.545,3.864,3.864,0,0,0-.148-.642,4.021,4.021,0,0,0-.776-1.389,3.574,3.574,0,0,0-2.7-1.329h-.108c-.091-.128-.185-.251-.285-.374a7.183,7.183,0,0,0-.625-.69,5.989,5.989,0,0,0-.781-.647c.134-.285.285-.6.428-.9.191-.385.382-.753.57-1.072a5.615,5.615,0,0,0,1.038-.453,6.519,6.519,0,0,0,3.283-5.733,6.924,6.924,0,0,0-.14-1.386,6.713,6.713,0,0,0-.59-1.686c.034-.1.068-.194.1-.285l.017-.066a2.924,2.924,0,0,0-.12-1.711,4.2,4.2,0,0,0-.268-.616c-.068-.134-.143-.265-.22-.391-.04-.066-.08-.128-.123-.191-.083-.123-.168-.245-.254-.359l-.077-.1a7.851,7.851,0,0,0-.528-.627,6.005,6.005,0,0,0-.856-.773,3.773,3.773,0,0,0-1.426-.659,4.26,4.26,0,0,0-.91-.086,5.126,5.126,0,0,0-.553.02c-.368.017-.739.046-1.107.043q-.185,0-.368-.017a14,14,0,0,1-1.919-.4c-.106-.026-.211-.048-.319-.068s-.214-.04-.322-.054a6.029,6.029,0,0,0-.878-.051h-.285a6.16,6.16,0,0,0-.876.091l-.285.046a8.313,8.313,0,0,0-2.133.633c-.091.04-.177.086-.265.131l-.054.029-.208.12-.043.026-.222.143-.02.014a9.5,9.5,0,0,0-3.662,6.756,15.743,15.743,0,0,0-.086,2.538,38.723,38.723,0,0,0,.967,6.4l.57,2.658c.026.117.051.237.074.354l-.063.051a5.893,5.893,0,0,0-1.683,2.373,8.81,8.81,0,0,0-.516,3.317h0c0,.285,0,.57.014.873s.017.57.046.876l-.043.359c-.048.431-.091.856-.117,1.3-.023.348-.037.7-.043,1.047-.049,2.227.177,4.458.105,6.685v.177a.387.387,0,0,1,0,.057c-.051,1.249-.182,2.5-.228,3.742a17.458,17.458,0,0,0,.02,1.971,26.533,26.533,0,0,0,1.067,5.134l.667,2.41a.655.655,0,0,0,.168.331.513.513,0,0,0,.374.077c-.074.16-.143.322-.211.485a22.21,22.21,0,0,0-.9,2.518,9.525,9.525,0,0,0-.394,1.957,6.863,6.863,0,0,0,0,.838.026.026,0,0,0,0,.02,15.751,15.751,0,0,0,.482,2.741q.633,2.661,1.263,5.322v.054q.439,1.839.878,3.682a40.786,40.786,0,0,1,1.278,7.449,16.024,16.024,0,0,1-.265,3.785,33.016,33.016,0,0,0-.328,11.354,56,56,0,0,0,2.071,9.355l.222-.111c.143-.074.285-.143.433-.208l-.094.171c-.023.04-.046.077-.066.117q-.365.639-.679,1.3c-.037.068-.068.14-.1.211a9.968,9.968,0,0,0-.453,1.118,12.073,12.073,0,0,0-.445,3.3,1.725,1.725,0,0,0,.054.642,1.328,1.328,0,0,0,.955.716,6.027,6.027,0,0,0,1.686.208,14.97,14.97,0,0,0,1.84-.154.443.443,0,0,0,.017.057.054.054,0,0,0,0,.02,1.332,1.332,0,0,0,.955.716,6.086,6.086,0,0,0,1.9.2c1.05-.028,2.108-.234,3.157-.334a36.111,36.111,0,0,0,4.974-.434,2.369,2.369,0,0,0,.687-.251,2.281,2.281,0,0,0,.856-1.206,1.709,1.709,0,0,0,.1-.394,1.355,1.355,0,0,0-.955-1.289,6.922,6.922,0,0,0-1.649-.223,5.11,5.11,0,0,1-3.037-1.471,5.536,5.536,0,0,1-1.215-1.851c.177.063.351.128.528.2a1.948,1.948,0,0,1-.086-.234,2.664,2.664,0,0,1-.114-.57,3.2,3.2,0,0,1,0-.619,9.119,9.119,0,0,1,.713-2.453q1.241-3.171,2.344-6.4c1.859-5.419,3.445-11.077,3.422-16.855,0-2.088-.385-4.061-.459-6.149-.049-1.406.142-2.809.168-4.215v-.428q0-.325-.017-.65A3.844,3.844,0,0,0,478.071,482.206Zm-17.434-18.367a1.582,1.582,0,0,1-.513.819c-.063.066-.123.137-.177.205s-.1.123-.145.183q-.074-1.072-.154-2.142l-.034-.465.086.071.068.063a5.752,5.752,0,0,1,.639.679,1.039,1.039,0,0,1,.222.408.624.624,0,0,1,0,.177Zm10.321,36.9a6.648,6.648,0,0,1-.528,1.8,34.309,34.309,0,0,0-2.721,8.528,39.515,39.515,0,0,0-.6,5.9,11.885,11.885,0,0,1-.448,3.993c-.04.105-.083.205-.128.308l.22-.034c-.057.108-.114.217-.168.314l-.029.051-.034.06-.054-.1a5.546,5.546,0,0,1-.6-1.572c-.026-.111-.049-.222-.066-.334v-.023a.805.805,0,0,0-.305-.054,54.959,54.959,0,0,1-.773-12.692,6.06,6.06,0,0,1,.211-1.526c.137-.428.365-.816.539-1.229a8.959,8.959,0,0,0,.542-2.156,30.8,30.8,0,0,0,.334-5.7,23.648,23.648,0,0,1,.71-5.382c.031-.157.06-.311.091-.468.131-.7.248-1.392.316-2.088l.017-.174c.18.285.357.588.522.89a26.018,26.018,0,0,1,2.727,7.541,12.111,12.111,0,0,1,.222,4.158Z" transform="translate(-341.682 -168.133)" fill="url(#linear-gradient-2)"/>
    <path id="Path_821" data-name="Path 821" d="M455.667,509l-.285,2.253c-.1.761-.2,1.523-.251,2.282-.177,2.55.151,5.108.066,7.663a53.607,53.607,0,0,0-.228,5.892,25.028,25.028,0,0,0,1.118,5.091l.7,2.387a.639.639,0,0,0,.177.328.621.621,0,0,0,.445.071l3.106-.285c-.2-.91-.419-1.862-.525-2.789-.086-.733-.137-1.472-.188-2.207-.165-2.3-.354-4.589-.542-6.882l-.319-4.013a30.346,30.346,0,0,0-.727-5.2A10.364,10.364,0,0,0,455.667,509Z" transform="translate(-341.413 -231.315)" fill="#22b473"/>
    <path id="Path_822" data-name="Path 822" d="M455.667,509l-.285,2.253c-.1.761-.2,1.523-.251,2.282-.177,2.55.151,5.108.066,7.663a53.607,53.607,0,0,0-.228,5.892,25.028,25.028,0,0,0,1.118,5.091l.7,2.387a.639.639,0,0,0,.177.328.621.621,0,0,0,.445.071l3.106-.285c-.2-.91-.419-1.862-.525-2.789-.086-.733-.137-1.472-.188-2.207-.165-2.3-.354-4.589-.542-6.882l-.319-4.013a30.346,30.346,0,0,0-.727-5.2A10.364,10.364,0,0,0,455.667,509Z" transform="translate(-341.413 -231.315)" fill="#72ffc0" opacity="0.1"/>
    <path id="Path_823" data-name="Path 823" d="M474.545,770.611a9.761,9.761,0,0,0-.476,1.109,11.794,11.794,0,0,0-.462,3.274,1.574,1.574,0,0,0,.06.633,1.383,1.383,0,0,0,1,.71c1.711.462,3.536.026,5.31-.131a39.829,39.829,0,0,0,5.222-.428,2.675,2.675,0,0,0,.722-.251,2.253,2.253,0,0,0,.916-1.2,1.427,1.427,0,0,0,.1-.391,1.366,1.366,0,0,0-1-1.278,7.541,7.541,0,0,0-1.734-.22,5.459,5.459,0,0,1-4.848-4.563,11.982,11.982,0,0,0-3.174.114,2.563,2.563,0,0,0-.761,1Q474.956,769.784,474.545,770.611Z" transform="translate(-354.758 -416.319)" fill="#3f3d56"/>
    <path id="Path_824" data-name="Path 824" d="M474.545,770.611a9.761,9.761,0,0,0-.476,1.109,11.794,11.794,0,0,0-.462,3.274,1.574,1.574,0,0,0,.06.633,1.383,1.383,0,0,0,1,.71c1.711.462,3.536.026,5.31-.131a39.829,39.829,0,0,0,5.222-.428,2.675,2.675,0,0,0,.722-.251,2.253,2.253,0,0,0,.916-1.2,1.427,1.427,0,0,0,.1-.391,1.366,1.366,0,0,0-1-1.278,7.541,7.541,0,0,0-1.734-.22,5.459,5.459,0,0,1-4.848-4.563,11.982,11.982,0,0,0-3.174.114,2.563,2.563,0,0,0-.761,1Q474.956,769.784,474.545,770.611Z" transform="translate(-354.758 -416.319)" opacity="0.1"/>
    <path id="Path_825" data-name="Path 825" d="M491.128,773.558a9.944,9.944,0,0,0-.476,1.107,11.725,11.725,0,0,0-.459,3.277,1.531,1.531,0,0,0,.057.633,1.382,1.382,0,0,0,1,.71c1.711.462,3.534.026,5.307-.134a40.308,40.308,0,0,0,5.222-.425,2.658,2.658,0,0,0,.724-.251,2.262,2.262,0,0,0,.913-1.2,1.424,1.424,0,0,0,.1-.391,1.365,1.365,0,0,0-1-1.278,7.537,7.537,0,0,0-1.734-.22,5.467,5.467,0,0,1-4.834-4.563,11.973,11.973,0,0,0-3.174.111,2.594,2.594,0,0,0-.762,1Q491.539,772.731,491.128,773.558Z" transform="translate(-366.613 -418.424)" fill="#3f3d56"/>
    <path id="Path_826" data-name="Path 826" d="M480.3,614.3c.037,5.727-1.629,11.325-3.582,16.707q-1.161,3.2-2.461,6.34c-.513,1.241-1.092,2.618-.542,3.842a9.348,9.348,0,0,0-4.883-.682,10.088,10.088,0,0,0,.607-4.252,36.843,36.843,0,0,1,.63-5.847,32.515,32.515,0,0,1,2.852-8.448,6.434,6.434,0,0,0,.553-1.782,11.3,11.3,0,0,0-.234-4.124,24.526,24.526,0,0,0-3.422-8.373.867.867,0,0,1-.017.171,24.634,24.634,0,0,1-.428,2.535,22.218,22.218,0,0,0-.744,5.33,28.884,28.884,0,0,1-.351,5.656,8.5,8.5,0,0,1-.57,2.136c-.183.411-.419.8-.57,1.221a5.593,5.593,0,0,0-.222,1.509,51.083,51.083,0,0,0,.881,12.92,8.242,8.242,0,0,0-4.278.973,52.633,52.633,0,0,1-2.253-9.3,30.914,30.914,0,0,1,.345-11.251,15.194,15.194,0,0,0,.285-3.753,37.321,37.321,0,0,0-1.343-7.384l-.933-3.708q-.662-2.638-1.329-5.276a11.528,11.528,0,0,1-.5-3.568,8.874,8.874,0,0,1,.413-1.939,21.642,21.642,0,0,1,2.935-5.989,118.9,118.9,0,0,0,15.372-.57.764.764,0,0,1,1.013.779l1.917,10.855a27.338,27.338,0,0,1,.545,4.586c0,1.537-.24,3.069-.182,4.6C479.895,610.269,480.285,612.225,480.3,614.3Z" transform="translate(-343.446 -287.314)" fill="#33313f"/>
    <path id="Path_827" data-name="Path 827" d="M484.553,637.985a24.6,24.6,0,0,1-.428,2.535c-1.112-1.922-2.307-3.8-3.331-5.764-.262-.508-.513-1.021-.767-1.534l-.753-1.54c-.14-.285-.285-.57-.411-.856a6.475,6.475,0,0,1-.473-1.335c.371-.068,1.286.935,1.563,1.195a21.761,21.761,0,0,1,1.6,1.763,19.072,19.072,0,0,1,1.66,2.17A10.552,10.552,0,0,1,484.553,637.985Z" transform="translate(-358.184 -317.44)" opacity="0.1"/>
    <path id="Path_828" data-name="Path 828" d="M486.713,468.591s-2.835,4.518-2.31,5.464-8.932-.841-8.932-.841,5.134-4.518,4.623-6.411S486.713,468.591,486.713,468.591Z" transform="translate(-356.097 -200.766)" fill="#efb7b9"/>
    <circle id="Ellipse_120" data-name="Ellipse 120" cx="6.411" cy="6.411" r="6.411" transform="translate(121.683 256.369)" fill="#efb7b9"/>
    <path id="Path_829" data-name="Path 829" d="M472.891,482.943a6.559,6.559,0,0,0-2.7-2.176,9.717,9.717,0,0,0-1.914-.471l-2.567-.451a3.262,3.262,0,0,0-1.879.043,3.085,3.085,0,0,0-.8.588,10.684,10.684,0,0,1-2.852,2.2c-.305.131-.625.225-.93.357a5.406,5.406,0,0,0-2.709,2.909,9.73,9.73,0,0,0-.528,4.155,7.384,7.384,0,0,0,.145,1.463,9.444,9.444,0,0,0,.485,1.343,24.081,24.081,0,0,1,.884,2.852q1,3.807,1.654,7.7a2.938,2.938,0,0,0,.322,1.064,3.784,3.784,0,0,0,.884.856,6.025,6.025,0,0,1,.742.736,1.012,1.012,0,0,1,.234.4c.083.385-.257.71-.531.99a4.806,4.806,0,0,0-1.2,2.085.828.828,0,0,0-.188.57.656.656,0,0,1-.183.83A1.426,1.426,0,0,0,459,512.13a18,18,0,0,0,6.274,1.472c.53.023,1.061.023,1.589.088.374.046.744.126,1.121.171a12.189,12.189,0,0,0,1.646.04c2.852-.057,5.79-.128,8.411-1.261a9.785,9.785,0,0,0-.619-4.038c-.53-2.108-.665-4.278-1.058-6.428-.271-1.463-.665-2.9-.887-4.372a10.429,10.429,0,0,1,.126-4.426c.356-1.269.465-2.567.836-3.825a6.547,6.547,0,0,0,.214-3.884A3.962,3.962,0,0,0,472.891,482.943Z" transform="translate(-342.178 -210.392)" fill="#72ffc0"/>
    <path id="Path_830" data-name="Path 830" d="M477.737,429.808a3.845,3.845,0,0,0-1.035-3.246,5.474,5.474,0,0,0-3.049-2.139,25.293,25.293,0,0,0-3.086-.04c-.91-.074-1.782-.4-2.689-.516a8.56,8.56,0,0,0-2.459.091,9.074,9.074,0,0,0-2.239.627c-2.729,1.209-4.329,4.2-4.7,7.156s.285,5.946.927,8.861l.585,2.632a52.649,52.649,0,0,1,1.38,8.3,17.594,17.594,0,0,1-1.292,8.24,17.731,17.731,0,0,0,8.142-9.221c.416-1.084.722-2.207,1.181-3.274.4-.918.9-1.785,1.252-2.721a8.893,8.893,0,0,0,.57-3.308c-.02-.856-.163-1.688-.137-2.538a3.5,3.5,0,0,1,.827-2.344,6.593,6.593,0,0,1,1.931-1.141,8.007,8.007,0,0,0,2.7-2.25,2.463,2.463,0,0,0,.553-1.426A17.38,17.38,0,0,1,477.737,429.808Z" transform="translate(-343.875 -170.427)" fill="#33313f"/>
    <path id="Path_831" data-name="Path 831" d="M523.839,604.872a16.72,16.72,0,0,0,.088,2c.108.485.359.927.508,1.4a6.555,6.555,0,0,1,.225,1.688c.023.476,0,1.058-.439,1.281-.185.1-.408.1-.6.185s-.357.317-.248.493.305.154.479.188.362.214.262.359a.316.316,0,0,1-.154.1,1.776,1.776,0,0,0-.5.237.5.5,0,0,0-.205.485.3.3,0,0,0,.428.2,1.352,1.352,0,0,0-.125.528,2.442,2.442,0,0,0,2.073-.459,7.7,7.7,0,0,0,.8-.508,3.992,3.992,0,0,0,1.54-3.383,7.43,7.43,0,0,0-.151-.97,14.613,14.613,0,0,0-.388-1.643c-.182-.57-.434-1.115-.647-1.674-.459-1.189-.753-2.436-1.164-3.642a.417.417,0,0,0-.485-.371,4.872,4.872,0,0,0-1.38.128,1.388,1.388,0,0,0-.856.539c-.134.285.074.49.191.71A5.949,5.949,0,0,1,523.839,604.872Z" transform="translate(-389.969 -297.333)" fill="#efb7b9"/>
    <path id="Path_832" data-name="Path 832" d="M509.723,500.76a1.938,1.938,0,0,1,.339.474c.91,1.654.921,3.636.964,5.524.048,2.128.165,4.252.285,6.374l.348,6.351c.031.608.066,1.215.151,1.817.408.1.425.633.379,1.052-.285,2.59-1.024,5.259-.26,7.752a.757.757,0,0,0,.18.348,2.048,2.048,0,0,0-1.186-.017c-.379.08-.747.219-1.141.305a2.43,2.43,0,0,0-1.358.528,26.492,26.492,0,0,1-.887-3.422,13.346,13.346,0,0,0-.659-3.137c-.174-.4-.408-.764-.619-1.141a25.072,25.072,0,0,1-2.19-6.434,9.411,9.411,0,0,1-.168-3.2,11.572,11.572,0,0,0,.134-1.469,12.4,12.4,0,0,0-.205-1.549,10.391,10.391,0,0,1,.308-4.48,12.362,12.362,0,0,1,1.583-3.9A5.331,5.331,0,0,1,509.723,500.76Z" transform="translate(-376.287 -225.425)" opacity="0.1"/>
    <path id="Path_833" data-name="Path 833" d="M510.837,500a1.851,1.851,0,0,1,.34.471c.913,1.657.924,3.636.967,5.527.048,2.125.162,4.25.285,6.374l.348,6.349c.034.607.068,1.215.151,1.817.411.1.428.633.379,1.052-.285,2.592-1.021,5.259-.257,7.755a.765.765,0,0,0,.177.345,2.065,2.065,0,0,0-1.184-.017c-.382.08-.747.22-1.141.305a2.469,2.469,0,0,0-1.36.528,26.735,26.735,0,0,1-.887-3.422,13.236,13.236,0,0,0-.659-3.137c-.174-.4-.4-.762-.616-1.141a25.112,25.112,0,0,1-2.19-6.434,9.488,9.488,0,0,1-.171-3.2,11.606,11.606,0,0,0,.134-1.472,11.854,11.854,0,0,0-.2-1.549,10.4,10.4,0,0,1,.308-4.481,12.254,12.254,0,0,1,1.583-3.9A5.379,5.379,0,0,1,510.837,500Z" transform="translate(-377.087 -224.882)" fill="#51ffb2"/>
    <g id="Group_42" data-name="Group 42" transform="translate(116.205 253.391)" opacity="0.1">
      <path id="Path_834" data-name="Path 834" d="M485.978,426.562a5.474,5.474,0,0,0-3.049-2.139,25.293,25.293,0,0,0-3.086-.04c-.91-.074-1.783-.4-2.689-.516a8.56,8.56,0,0,0-2.458.091,9.075,9.075,0,0,0-2.239.627,6.478,6.478,0,0,0-1.107.627,9.683,9.683,0,0,1,1.979-.519,8.556,8.556,0,0,1,2.458-.091c.907.117,1.78.442,2.689.516a25.829,25.829,0,0,1,3.083.037,5.462,5.462,0,0,1,3.052,2.142,3.848,3.848,0,0,1,1.035,3.246c-.165.6-.545,1.124-.65,1.743a2.512,2.512,0,0,1-.553,1.426,8.1,8.1,0,0,1-1.945,1.811c.205-.1.414-.194.613-.285a8.006,8.006,0,0,0,2.7-2.25,2.464,2.464,0,0,0,.553-1.426,17.368,17.368,0,0,1,.65-1.743A3.86,3.86,0,0,0,485.978,426.562Z" transform="translate(-469.356 -423.818)"/>
      <path id="Path_835" data-name="Path 835" d="M476.184,467.051a2.857,2.857,0,0,1,.357-.311,5.552,5.552,0,0,0-1.711,1.047,3.5,3.5,0,0,0-.827,2.344c-.026.847.117,1.691.137,2.538a8.906,8.906,0,0,1-.57,3.308c-.351.935-.856,1.8-1.252,2.721-.459,1.067-.764,2.19-1.181,3.274a17.751,17.751,0,0,1-6.731,8.379c-.017.034-.031.071-.046.105a17.73,17.73,0,0,0,8.142-9.221c.416-1.084.722-2.207,1.181-3.274.4-.918.9-1.785,1.252-2.721a8.842,8.842,0,0,0,.57-3.308c-.02-.856-.163-1.688-.137-2.538A3.5,3.5,0,0,1,476.184,467.051Z" transform="translate(-464.36 -454.499)"/>
    </g>
    <path id="Path_836" data-name="Path 836" d="M634.717,451.831a5.1,5.1,0,0,0-.128-1.024,3.324,3.324,0,0,0-1.788-2.421,15.011,15.011,0,0,1-2.835-1.2v-.262c-.08-1.982.177-3.993.14-5.966v-.168a12.264,12.264,0,0,0-.357-2.752,23.284,23.284,0,0,1-.881-3.231c0-.071-.014-.143-.02-.211-.057-.744.017-1.506,0-2.247v-.023a4.413,4.413,0,0,0-.311-1.643,4.071,4.071,0,0,0-2.41-2.082,12.84,12.84,0,0,0-3.214-.57c-1.369-.111-5.8-.636-7.347.587a1.616,1.616,0,0,0-.285.285h0a1.14,1.14,0,0,0-.091.148l-.014.023a1.162,1.162,0,0,0-.077.185h0a1.442,1.442,0,0,0-.048.214v.513c.02.257.057.513.057.767a1.656,1.656,0,0,1-.034.377,2.639,2.639,0,0,1-.473.924l-.051.074c-.031.046-.063.088-.091.134s-.051.08-.074.12-.046.066-.066.1a1.355,1.355,0,0,0-.074.145c0,.029-.032.054-.043.083a1.422,1.422,0,0,0-.086.24,1.59,1.59,0,0,0-.017.759l.026.108h0a2.99,2.99,0,0,0,.362.784c.071.117.148.231.228.345l.2.271-.026.214a5.5,5.5,0,0,0,.086,1.754,5.9,5.9,0,0,0,2.133,3.468c0,.1.02.194.026.285a17.774,17.774,0,0,1-.063,3.325c-.026.251-.057.5-.091.756s-.06.416-.094.625a2.893,2.893,0,0,1-1.246-.094,5.892,5.892,0,0,0-.57-.22c-.83-.208-1.677.619-2.5.368a.334.334,0,0,1-.037.114,1.118,1.118,0,0,0-.57-.168,2.081,2.081,0,0,1-1.238-.71l-1.087-1.024a1.2,1.2,0,0,1-.188-.211,1.471,1.471,0,0,1-.131-.351,4.044,4.044,0,0,0-1.052-1.509.713.713,0,0,0-.311-.225.477.477,0,0,0-.143,0,1.234,1.234,0,0,0-.094-.114,2.681,2.681,0,0,0-.237-.24c-.519-.479-.57-.89-1.021-1.426a12.351,12.351,0,0,1-1.015-1.529l-.051-.083c-.037-.3-.089-.608-.151-.918q-.057-.271-.12-.53h0a11.523,11.523,0,0,0-.5-1.543l-.57-1.263-.066.066c-.414-.616-.856-.953-1.252-.873-.665.137-.993,1.426-.887,3.112l.228,1.711a.536.536,0,0,0,.031.128,3.168,3.168,0,0,0-.063.616.493.493,0,0,0,.094.285c.077.117.18.225.245.348a2.526,2.526,0,0,1,.137.285,1.775,1.775,0,0,1,.143.408v.026a1.021,1.021,0,0,1,0,.265c-.014.123-.051.24-.057.359a.944.944,0,0,0,.1.431,2.959,2.959,0,0,0,.168.311l1.426,2.4.285.5.017.023.083.131a1,1,0,0,0,.285.308,2.034,2.034,0,0,0,.031.262,5.318,5.318,0,0,0,.185.813.086.086,0,0,0,0,.026,4.564,4.564,0,0,0,.245.63c.048.108.1.211.16.314a10.088,10.088,0,0,0,1.346,1.748l.679.761c.67.747,1.341,1.5,2.068,2.188a2.77,2.77,0,0,0,.924.647,1.047,1.047,0,0,0,1.038-.151v1.061h.057a.716.716,0,0,1,.439.311.418.418,0,0,1,.048.248,1.3,1.3,0,0,1-.094.365,23.514,23.514,0,0,1-2.11,4.466l.165.108a8.6,8.6,0,0,1,1.6,1.241,7.952,7.952,0,0,1,.921,1.246c0,.063.014.125.02.185.017.148.029.285.037.442.211,3.4-1.1,6.773-2.281,10.013a7.8,7.8,0,0,0-.682,2.835,5.55,5.55,0,0,0-.639.459,4.215,4.215,0,0,1,.117,1.808,3.205,3.205,0,0,1-.237,1.141,8.03,8.03,0,0,1-.411.733,10.883,10.883,0,0,0-1.049,4.341c-.088.9.259,2-.148,2.8a11.458,11.458,0,0,0-1.426,4.386,4.4,4.4,0,0,1-.131,1.024c-.089.285-.245.528-.325.807a3.45,3.45,0,0,0-.057,1.141,10.918,10.918,0,0,1-.6,4.024,5.472,5.472,0,0,0-.471,3.154,4.446,4.446,0,0,0-1.206,2.65,4.176,4.176,0,0,1-.091.756,3.673,3.673,0,0,1-.342.727,6.367,6.367,0,0,0-.776,3.422,9.522,9.522,0,0,0-1.537,4.016c-.254,1.423-.365,2.872-.69,4.278a39.887,39.887,0,0,0-1.372,5.644,3.976,3.976,0,0,0-1.5,2.815,12.532,12.532,0,0,1-.659,3.214c-.174.388-.411.744-.607,1.121a4.143,4.143,0,0,0-.185.394,6.95,6.95,0,0,0-.342,1.3,5.085,5.085,0,0,0-.088,2.139,2.913,2.913,0,0,1-.679.542,1.732,1.732,0,0,1-.157.094c.031-.12.057-.239.08-.359a.951.951,0,0,1,.034-.174c-.736.667-2.07.434-2.658,1.235a1.2,1.2,0,0,0,.285,1.651,1.615,1.615,0,0,0,.359.174l.231.08a9.436,9.436,0,0,0,4.358.673,1.3,1.3,0,0,0,.493-.157,1.591,1.591,0,0,0,.459-.53c.217-.342.431-.685.645-1.027v-.017l.117.034a13.408,13.408,0,0,0,1.483.339.152.152,0,0,1,0,.037c.054.445.091.887.111,1.332l.1.017c.285.04.57.029.7-.208a.693.693,0,0,0,.049-.317c0-.191.026-.442.043-.7v-.043h.1a5.42,5.42,0,0,0,2.479-.51,12.484,12.484,0,0,1,.927-5.6c.208-.6.43-1.192.647-1.783.921-2.515,1.711-5.076,2.507-7.638.57-1.8,1.2-3.548,1.76-5.353q1.055-3.422,2.119-6.859c.308-1,.619-2,.972-2.995a46.645,46.645,0,0,1,2.644-5.884c.285-.539.57-1.072.8-1.631.285-.682.488-1.395.716-2.1a32.5,32.5,0,0,1,1.791-4.215c.02-.037.034-.071.054-.105a.144.144,0,0,0,.02.088.206.206,0,0,1,.023.088c.217.887.428,1.785.57,2.687a10.84,10.84,0,0,1,.048,3.525,11.632,11.632,0,0,0-.365,2.39,4.4,4.4,0,0,0,.214,1.141l.023.074c.183.57.436,1.141.616,1.711a.7.7,0,0,1,.023.071c.02.063.04.126.057.188a12.2,12.2,0,0,1,.319,2.453c.08,1.283.776,2.724.285,3.913-1.526,3.768-.787,8.023-1.657,11.993-.448,2.031-1.82,3.939-1.711,6.015.06,1.141.148,2.281.285,3.422.034.334.071.667.114,1a4.194,4.194,0,0,0,.314,1.3,4.929,4.929,0,0,0,.391.639c-.126.048-.231.177-.322.448a1.791,1.791,0,0,0,.362,1.763.147.147,0,0,0,.028.031,1.317,1.317,0,0,0,.243.188,2.77,2.77,0,0,0,.824.285,4.34,4.34,0,0,0,1.192.165,2.356,2.356,0,0,0,.314-.037h.06l.091.037c.413.168.833.322,1.258.448v.037l.034.314a.506.506,0,0,0,.1.285.131.131,0,0,0,.046.043.445.445,0,0,0,.228.04h1.549v-.388h.031a1.243,1.243,0,0,0,.953-.32,1.522,1.522,0,0,0,.285-.593c.4-1.363.8-2.732,1.2-4.1l.06-.2a13.739,13.739,0,0,0,.613-4.905c-.55-5.256.659-10.53.265-15.8a37.852,37.852,0,0,1,.485-9.48c.128-.707.285-1.426.342-2.13.126-1.329-.028-2.672.066-4.007.031-.462.094-.921.151-1.38a66.305,66.305,0,0,0,.613-8.6c0-.713-.043-1.426-.106-2.133a3.9,3.9,0,0,0-.048-.482v-.034a.642.642,0,0,0-.02-.194,1.627,1.627,0,0,0,.779-.456A1.939,1.939,0,0,0,630,481.2a8.831,8.831,0,0,1,.767-2.915,34.618,34.618,0,0,0,1.078-4.01,14.945,14.945,0,0,0,.479-3.12.626.626,0,0,0,0-.074h0v-.485a.884.884,0,0,0,.262-.285,1.658,1.658,0,0,0,.137-.528c.1-.727.208-1.457.311-2.187q.114-.782.225-1.566l.907-6.329c.077-.55.157-1.1.234-1.646s.157-1.092.237-1.637l.034-.251a3.231,3.231,0,0,1,.04-.331.238.238,0,0,0,.026-.046,2.208,2.208,0,0,0,.285-1.049.424.424,0,0,0,0-.057A21.43,21.43,0,0,0,634.717,451.831Zm-7.566,23.695a6.8,6.8,0,0,1-.545-1.74h0a3.318,3.318,0,0,1-.028-.479.2.2,0,0,1,0-.04v-.211h-.031a1.541,1.541,0,0,0,.048-.376,1.214,1.214,0,0,0-.085-.428c-.088-.208-.242-.385-.337-.593a1.566,1.566,0,0,1-.12-.428,3.279,3.279,0,0,1-.034-.371,21.222,21.222,0,0,1,.359-4.894,1.743,1.743,0,0,1,.049-.285l.06-.314c.017-.1.037-.191.054-.285l.083-.054a1.254,1.254,0,0,0,.242-.2,2.306,2.306,0,0,0,.368-.57c.322-.647.616-1.306.887-1.976.088-.217.217-.468.436-.522v.254a11.528,11.528,0,0,1-.548,4.623,3.089,3.089,0,0,0-.285.77,1.827,1.827,0,0,0,0,.5c.02.171.048.345.054.516a1.327,1.327,0,0,1,0,.262c-.031.22-.125.422-.162.639a.786.786,0,0,0,0,.345.476.476,0,0,0,.157.254.5.5,0,0,0,.123.063,1.832,1.832,0,0,1-.029.214.627.627,0,0,0,0,.128c-.023.234-.034.453-.048.59a18.409,18.409,0,0,0-.077,2.1c0,.756.029,1.512.017,2.282a1.55,1.55,0,0,1-.108.647,1.126,1.126,0,0,1-.217.285c-.094-.265-.185-.491-.282-.713Z" transform="translate(-358.967 -173.291)" fill="url(#linear-gradient-3)"/>
    <ellipse id="Ellipse_121" data-name="Ellipse 121" cx="1.609" cy="4.555" rx="1.609" ry="4.555" transform="matrix(0.98, -0.201, 0.201, 0.98, 242.27, 260.532)" fill="#fbbebe"/>
    <path id="Path_837" data-name="Path 837" d="M684.15,797.3a1.711,1.711,0,0,0,.633,1.979,2.818,2.818,0,0,0,.819.285,4.316,4.316,0,0,0,1.189.165c.493-.026.967-.217,1.46-.285a.242.242,0,0,1,.168.026.237.237,0,0,1,.063.2,7.53,7.53,0,0,0,.063.856.436.436,0,0,0,.148.322.446.446,0,0,0,.228.04h1.546a15.074,15.074,0,0,0-.442-4.056.9.9,0,0,0-.114-.285.924.924,0,0,0-.493-.285,2.759,2.759,0,0,0-1.2-.208,3.462,3.462,0,0,0-1.34.656,2.028,2.028,0,0,1-1.52.365C684.846,796.933,684.415,796.508,684.15,797.3Z" transform="translate(-425.19 -436.497)" fill="#3f3d56"/>
    <path id="Path_838" data-name="Path 838" d="M600.021,794.578a4.278,4.278,0,0,1-1.56,1.058l-.262.128a.168.168,0,0,0-.089.071.155.155,0,0,0,.029.128,1.848,1.848,0,0,0,2.093.761,1.108,1.108,0,0,0,.459-.24,1.511,1.511,0,0,0,.354-.918,1.88,1.88,0,0,0-.043-1.052C600.606,793.62,600.461,794.027,600.021,794.578Z" transform="translate(-363.757 -435.026)" fill="#fbbebe"/>
    <path id="Path_839" data-name="Path 839" d="M601.571,798.474a.7.7,0,0,1-.048.317c-.134.262-.508.245-.8.191a19.211,19.211,0,0,0-.351-2.895c-.553-.023-.953.5-1.249.972l-.764,1.212a1.544,1.544,0,0,1-.456.528,1.357,1.357,0,0,1-.493.16,9.352,9.352,0,0,1-4.344-.673,2.306,2.306,0,0,1-.59-.251,1.206,1.206,0,0,1-.285-1.648c.59-.8,1.917-.57,2.652-1.232a6.641,6.641,0,0,1-.377,1.36c.984-.148,1.646-1.05,2.439-1.651a1.5,1.5,0,0,1,.7-.334,1.593,1.593,0,0,1,.57.063,6.644,6.644,0,0,1,2.51,1.235,2.7,2.7,0,0,1,.9.935A7.007,7.007,0,0,1,601.571,798.474Z" transform="translate(-359.38 -435.409)" fill="#3f3d56"/>
    <circle id="Ellipse_122" data-name="Ellipse 122" cx="5.892" cy="5.892" r="5.892" transform="translate(255.917 257.179)" fill="#fbbebe"/>
    <path id="Path_840" data-name="Path 840" d="M719.777,575.117a13.984,13.984,0,0,1-.476,3.343,34.424,34.424,0,0,1-1.078,3.993,8.787,8.787,0,0,0-.761,2.909,1.938,1.938,0,0,1-.188,1.215,1.775,1.775,0,0,1-.833.476,1.041,1.041,0,0,0-.7.624,4.4,4.4,0,0,1-.593-1.306q-.767-2.35-1.426-4.726a.613.613,0,0,1,.04-.57.669.669,0,0,1,.248-.14,2.522,2.522,0,0,0,.79-.51,1.108,1.108,0,0,0,.262-.337,1.55,1.55,0,0,0,.111-.647c0-.753,0-1.509-.02-2.262a18.942,18.942,0,0,1,.08-2.091c0-.137.026-.357.049-.59.043-.451.128-.967.371-1.141.362-.242,1.446.083,1.857.14.707.1,1.426.211,2.116.345a5.653,5.653,0,0,1,.154,1.275Z" transform="translate(-446.36 -277.255)" fill="#3f3d56"/>
    <path id="Path_841" data-name="Path 841" d="M635.462,466.113c-.228.456-.776.676-1.2.964l-1.446.993a.988.988,0,0,1-.716.245.941.941,0,0,1-.533-.5c0-.009,0-.017,0-.026l-.314-.508-1.426-2.39a1.36,1.36,0,0,1-.265-.736c0-.123.043-.24.054-.359a1.724,1.724,0,0,0-.285-.97c-.114-.214-.342-.391-.337-.63a2.281,2.281,0,0,1,.16-.921,1.9,1.9,0,0,1,.625-.67c.134-.094.271-.185.414-.271a.754.754,0,0,1,.248-.114c.237-.049.47.145.71.157,1.03.687,1.426,2,2.236,2.938.456.536.5.947,1.018,1.426.083.074.163.154.24.237a1.662,1.662,0,0,1,.257.371C635.011,465.588,635.579,465.879,635.462,466.113Z" transform="translate(-385.836 -196.442)" fill="#3f3d56"/>
    <path id="Path_842" data-name="Path 842" d="M680.474,467.606a5.308,5.308,0,0,1,.633,2.872,1.809,1.809,0,0,1-.248.756,2.451,2.451,0,0,1-2.022.781,1.192,1.192,0,0,0-.878.285.8.8,0,0,0,.054.972,2.179,2.179,0,0,0,.873.57,7.693,7.693,0,0,0,3.756.83c.6-.054,1.181-.228,1.777-.317a18.631,18.631,0,0,1,1.956-.108c.776-.029,1.549-.106,2.322-.183l2.048-.2a.456.456,0,0,0,.305-.111c.151-.177-.043-.436-.231-.57-1.087-.8-2.47-1.358-3.089-2.567a14.932,14.932,0,0,1-.585-1.865,15.833,15.833,0,0,1-.679-1.8,11.947,11.947,0,0,1-.094-1.66,2.218,2.218,0,0,0-.57-1.517,2.4,2.4,0,0,0-1.552-.5,5.036,5.036,0,0,0-3.782,1.229c-.26.26-.482.57-.75.8s-.633.3-.456.61.525.5.713.77A6.385,6.385,0,0,1,680.474,467.606Z" transform="translate(-420.735 -198.626)" fill="#fbbebe"/>
    <path id="Path_843" data-name="Path 843" d="M676.613,489.15a32.293,32.293,0,0,1-1.745,6.426,24.44,24.44,0,0,0-1.027,2.883c-.22.884-.177,1.831-.379,2.718-.251,1.1-.5,2.21-.7,3.323a21.769,21.769,0,0,0-.4,5.156,2.163,2.163,0,0,0,.154.8c.094.205.245.382.334.593a1.426,1.426,0,0,1-.08,1.141,3.305,3.305,0,0,1-.588.89c-2.658.793-5.5.533-8.271.7-2.553.157-5.134.682-7.649.245a6.063,6.063,0,0,1,.6-3.448c1.184-3.231,2.493-6.6,2.282-9.982a10.335,10.335,0,0,0-.134-1.175,15.632,15.632,0,0,1,.759-7.21,12.357,12.357,0,0,0,.325-4.5,8.191,8.191,0,0,1-.02-1.472,2.585,2.585,0,0,1,.536-1.378c0-.02.026-.04.04-.06a.365.365,0,0,1,.214,0h0c.057.014.114.023.143,0l.031-.02a.071.071,0,0,1,.083,0c.066.04.1.177.245.2a5.71,5.71,0,0,0,.636.063,3.424,3.424,0,0,1,.759.108h.034a2.228,2.228,0,0,0,1.107-.094,2.943,2.943,0,0,0,.679-.262c.063-.068.456-.131.536-.18.259-.16.2-.9.257-1.2a3.287,3.287,0,0,1,.214-.884,1.506,1.506,0,0,1,1.221-.71,6.186,6.186,0,0,1,1.463.131c1.064.151,2.153.125,3.2.368a2.366,2.366,0,0,0,1.58.071c.131.028.151.145.151.285a1.859,1.859,0,0,1-.08.391c-.182.787.436,1.509,1.007,2.082a3.23,3.23,0,0,0,.841.67c.285.131.57.185.856.328a1.533,1.533,0,0,1,.57.522,2.178,2.178,0,0,1,.325.83A4.946,4.946,0,0,1,676.613,489.15Z" transform="translate(-405.258 -211.888)" fill="#3f3d56"/>
    <path id="Path_844" data-name="Path 844" d="M683.34,496.526a32.3,32.3,0,0,1-1.745,6.426,24.429,24.429,0,0,0-1.027,2.883c-.22.884-.177,1.831-.379,2.718-.251,1.1-.5,2.21-.7,3.323-.06.034-.123.063-.185.091a4.381,4.381,0,0,1-1.118.362,6.941,6.941,0,0,1-2.088-.068l-4.07-.545c-1.626-.22-3.357-.485-4.563-1.586a9.686,9.686,0,0,1-1.591-2.176,10.359,10.359,0,0,0-.134-1.175,15.631,15.631,0,0,1,.759-7.21,12.359,12.359,0,0,0,.325-4.5,8.18,8.18,0,0,1-.02-1.472,2.584,2.584,0,0,1,.536-1.377,2.042,2.042,0,0,1,.254-.06h0c.06,0,.117-.017.174-.02h.083a1.239,1.239,0,0,1,.285.031,5.179,5.179,0,0,1,.57.222h.034a2.253,2.253,0,0,0,.759.108c.376,0,.764-.06,1.141-.086a2.122,2.122,0,0,1,1.338.254,8.58,8.58,0,0,1,.753.69,3.37,3.37,0,0,0,.958.508,10.093,10.093,0,0,0,7.592-.16,1.488,1.488,0,0,1,.762-.194,1.47,1.47,0,0,1,.548.231c.171.1.339.2.513.285a2.178,2.178,0,0,1,.325.83A4.941,4.941,0,0,1,683.34,496.526Z" transform="translate(-411.985 -219.264)" opacity="0.1"/>
    <path id="Path_845" data-name="Path 845" d="M679.651,493.259a15.073,15.073,0,0,1-3.251-1.426,1.427,1.427,0,0,0-.547-.234,1.5,1.5,0,0,0-.764.194,10.088,10.088,0,0,1-7.589.16,3.3,3.3,0,0,1-.95-.516,8.553,8.553,0,0,0-.753-.69c-.938-.608-2.236.108-3.285-.285a5.118,5.118,0,0,0-.57-.217c-.83-.208-1.674.616-2.49.368a13.881,13.881,0,0,0-.67,2.544,27.722,27.722,0,0,0-.185,3c0,.6-.029,1.2,0,1.8a.75.75,0,0,1,.5.325.724.724,0,0,1-.046.61,23.4,23.4,0,0,1-2.1,4.455A9.553,9.553,0,0,1,658.7,504.7c1,1.055,1.489,2.533,2.567,3.508a8.244,8.244,0,0,0,4.563,1.586l4.07.545a6.955,6.955,0,0,0,2.091.068,4.4,4.4,0,0,0,1.115-.362,2,2,0,0,0,.622-.408,2.333,2.333,0,0,0,.368-.57c.322-.645.616-1.3.887-1.971.094-.237.237-.516.493-.533,1.512-1.363,2.938-2.761,4.449-4.124a10.066,10.066,0,0,0,1.623-1.711c.75-1.109.068-2.684,0-4.021a5.132,5.132,0,0,0-.128-1.021A3.279,3.279,0,0,0,679.651,493.259Z" transform="translate(-405.811 -217.885)" fill="#16efff"/>
    <path id="Path_846" data-name="Path 846" d="M641.907,477.917c-.228.456-.776.676-1.2.964l-1.446.992a.987.987,0,0,1-.716.245.942.942,0,0,1-.533-.5v-.205a1.9,1.9,0,0,1,.091-.682,2.125,2.125,0,0,1,.639-.821,5.189,5.189,0,0,1,1.874-1.141.643.643,0,0,1,.342-.034.45.45,0,0,1,.126.054,1.658,1.658,0,0,1,.257.371C641.457,477.392,642.024,477.683,641.907,477.917Z" transform="translate(-392.281 -208.247)" opacity="0.1"/>
    <path id="Path_847" data-name="Path 847" d="M646.2,481.372a2.092,2.092,0,0,1-1.235-.707l-1.081-1.024a.924.924,0,0,1-.188-.208,1.524,1.524,0,0,1-.131-.351,4.024,4.024,0,0,0-1.05-1.506.684.684,0,0,0-.311-.222.624.624,0,0,0-.345.034,5.176,5.176,0,0,0-1.874,1.141,2.109,2.109,0,0,0-.639.821,1.9,1.9,0,0,0-.091.682,5.234,5.234,0,0,0,.5,2.19c.048.105.1.211.16.314a9.881,9.881,0,0,0,1.341,1.743l.679.759c.667.745,1.335,1.492,2.059,2.182a2.72,2.72,0,0,0,.924.645,1.026,1.026,0,0,0,1.061-.174,1.5,1.5,0,0,0,.3-.539,10.669,10.669,0,0,0,.881-3.556,13.453,13.453,0,0,0-.063-1.474C647.051,481.6,646.684,481.4,646.2,481.372Z" transform="translate(-393.168 -208.688)" fill="#16efff"/>
    <path id="Path_848" data-name="Path 848" d="M638.405,598.553a65.89,65.89,0,0,1-.61,8.576c-.057.459-.12.916-.151,1.378-.094,1.332.06,2.67-.066,3.993-.066.713-.214,1.426-.339,2.125a37.767,37.767,0,0,0-.485,9.452c.394,5.256-.813,10.515-.265,15.757a12.721,12.721,0,0,1-.168,3.049,12.867,12.867,0,0,1-.442,1.845q-.625,2.142-1.255,4.278a1.454,1.454,0,0,1-.285.59,1.343,1.343,0,0,1-1.069.319,12.291,12.291,0,0,1-4.689-1.457,1.567,1.567,0,0,1-.471-.285c-.311-.322-.285-.83-.422-1.255a12.289,12.289,0,0,0-.719-1.263,4.1,4.1,0,0,1-.311-1.295c-.183-1.46-.311-2.929-.388-4.4-.108-2.07,1.261-3.976,1.711-5.989.856-3.959.131-8.2,1.651-11.961.479-1.184-.217-2.621-.285-3.9a12.361,12.361,0,0,0-.319-2.447,15.171,15.171,0,0,1-.93-3.194,11.791,11.791,0,0,1,.362-2.384,10.687,10.687,0,0,0-.049-3.514c-.151-.958-.382-1.917-.613-2.852l-.051.105a32.225,32.225,0,0,0-1.788,4.207c-.228.7-.428,1.409-.713,2.091-.234.57-.522,1.092-.8,1.626a47,47,0,0,0-2.638,5.858c-.354.987-.664,2-.972,2.986l-2.113,6.845c-.57,1.8-1.2,3.539-1.754,5.336-.79,2.567-1.58,5.111-2.5,7.618-.856,2.384-1.874,4.848-1.569,7.367a5.417,5.417,0,0,1-2.518.511,14.826,14.826,0,0,1-4.278-1.038,3.3,3.3,0,0,1-1.477-.881,3.489,3.489,0,0,1-.285-2.886,6.924,6.924,0,0,1,.342-1.3c.217-.528.57-.99.793-1.509a12.681,12.681,0,0,0,.653-3.2,3.958,3.958,0,0,1,1.494-2.809,40.458,40.458,0,0,1,1.369-5.63c.325-1.406.433-2.852.69-4.278a9.268,9.268,0,0,1,1.532-3.993,6.369,6.369,0,0,1,.776-3.422,3.708,3.708,0,0,0,.339-.724,4.17,4.17,0,0,0,.091-.756,4.452,4.452,0,0,1,1.2-2.641,5.361,5.361,0,0,1,.468-3.137,10.909,10.909,0,0,0,.6-4.013,3.511,3.511,0,0,1,.054-1.141c.08-.285.237-.528.328-.8a4.529,4.529,0,0,0,.128-1.021,11.843,11.843,0,0,1,1.426-4.375c.411-.8.063-1.9.148-2.792a10.807,10.807,0,0,1,1.049-4.329c.137-.242.285-.476.408-.73a3.187,3.187,0,0,0,.237-1.141,4.19,4.19,0,0,0-.117-1.8,9.224,9.224,0,0,1,5.593-1.711,34.867,34.867,0,0,0,5.935-.328c.57-.128,1.141-.308,1.742-.394a11.275,11.275,0,0,1,4.1.422,4.885,4.885,0,0,0,.57,2.473A26.545,26.545,0,0,1,638.405,598.553Z" transform="translate(-368.091 -285.94)" fill="#33313f"/>
    <path id="Path_849" data-name="Path 849" d="M690.781,633.73,687.5,641.1c-.151-.958-.382-1.917-.613-2.852l-.051.106V638.2l1.785-3.927Z" transform="translate(-427.184 -320.472)" opacity="0.1"/>
    <path id="Path_850" data-name="Path 850" d="M723.768,575.1a1.258,1.258,0,0,1-.65.242,3.238,3.238,0,0,1-1.067-.145l-2.567-.645a1.078,1.078,0,0,1-.234-.08c.043-.451.128-.967.371-1.141.362-.242,1.446.083,1.857.14.707.1,1.426.211,2.116.345A5.644,5.644,0,0,1,723.768,575.1Z" transform="translate(-450.35 -277.233)" opacity="0.1"/>
    <path id="Path_851" data-name="Path 851" d="M725.272,517.968c.054.237.131.471.177.71a5.392,5.392,0,0,1-.06,1.763l-.234,1.631-.234,1.643-.9,6.311-.222,1.563-.314,2.182a1.587,1.587,0,0,1-.137.525,1.1,1.1,0,0,1-.893.528,3.233,3.233,0,0,1-1.067-.146l-2.567-.645a.8.8,0,0,1-.314-.128.622.622,0,0,1-.165-.6c.037-.217.131-.419.163-.636.063-.422-.114-.856-.051-1.275a3.142,3.142,0,0,1,.285-.767c.856-1.891.359-4.1.65-6.152a9.337,9.337,0,0,1,1.979-4.406,12.523,12.523,0,0,1,2.185-2.142,4.338,4.338,0,0,1,1.229-.856C725.295,516.961,725.186,517.612,725.272,517.968Z" transform="translate(-449.684 -237.075)" fill="#16efff"/>
    <path id="Path_852" data-name="Path 852" d="M667.921,430.492c-.188.6.106,1.255-.029,1.868-.145.673-.779,1.141-.958,1.817-.285,1.03.588,1.968,1.226,2.823,2.367,3.174,2.056,7.572,1.246,11.451a59.128,59.128,0,0,1-2.7,9.126,7.016,7.016,0,0,1-1.452,2.547,7.508,7.508,0,0,1,4.021-.391c1.666.462,3.1,2.079,4.791,1.711,1.015-.228,1.728-1.141,2.641-1.626,1.711-.921,3.773-.342,5.681-.048a2.18,2.18,0,0,0,1.241-.063,2.031,2.031,0,0,0,.753-.69,7.032,7.032,0,0,0,1.466-3.793,4.866,4.866,0,0,0-1.4-3.745,8.009,8.009,0,0,1-1.2-1.141,3.526,3.526,0,0,1-.471-1.728c-.225-3.137.539-6.337-.248-9.372a23.138,23.138,0,0,1-.876-3.223c-.157-1.378.217-2.852-.331-4.113a4.033,4.033,0,0,0-2.4-2.076,12.018,12.018,0,0,0-3.206-.57C674.155,429.123,668.574,428.464,667.921,430.492Z" transform="translate(-411.758 -174.166)" fill="#33313f"/>
    <g id="Group_43" data-name="Group 43" transform="translate(253.502 255.67)" opacity="0.1">
      <path id="Path_853" data-name="Path 853" d="M673.081,459.1a59,59,0,0,1-2.681,9.1c.2-.391.362-.8.519-1.209a58.751,58.751,0,0,0,2.7-9.126c.813-3.876,1.124-8.271-1.243-11.451a4.457,4.457,0,0,1-1.278-2.47,3.06,3.06,0,0,0-.485.9c-.285,1.03.588,1.968,1.226,2.823C674.2,450.826,673.891,455.224,673.081,459.1Z" transform="translate(-668.934 -440.488)"/>
      <path id="Path_854" data-name="Path 854" d="M674.422,434.043a2.766,2.766,0,0,0,.5-.958,4.91,4.91,0,0,0-.034-1.275,1.392,1.392,0,0,0-.474.656A5.623,5.623,0,0,0,674.422,434.043Z" transform="translate(-671.755 -431.81)"/>
      <path id="Path_855" data-name="Path 855" d="M684.925,527.228a2.079,2.079,0,0,1-.753.69,2.178,2.178,0,0,1-1.241.063c-1.908-.285-3.993-.875-5.681.049-.915.5-1.626,1.4-2.644,1.626-1.685.376-3.123-1.241-4.788-1.711a6.686,6.686,0,0,0-3.614.285,5,5,0,0,1-.944,1.366,7.507,7.507,0,0,1,4.021-.391c1.666.462,3.1,2.079,4.791,1.711,1.015-.228,1.728-1.141,2.641-1.626,1.711-.921,3.773-.342,5.681-.049a2.178,2.178,0,0,0,1.241-.063,2.03,2.03,0,0,0,.753-.69,7.667,7.667,0,0,0,1.181-2.259A8.286,8.286,0,0,1,684.925,527.228Z" transform="translate(-665.26 -499.301)"/>
    </g>
    <ellipse id="Ellipse_123" data-name="Ellipse 123" cx="11.468" cy="1.939" rx="11.468" ry="1.939" transform="translate(273.956 359.061)" fill="#fff"/>
    <path id="Path_856" data-name="Path 856" d="M767.24,776.752a3.32,3.32,0,0,0,1.092-1.651,1.463,1.463,0,0,0-.764-1.68,2.141,2.141,0,0,0-2.019.71,2.7,2.7,0,0,1-1.962.947,2.994,2.994,0,0,0,.924-2.8,1.164,1.164,0,0,0-.257-.57c-.391-.416-1.1-.24-1.563.088-1.483,1.044-1.9,3.057-1.905,4.871a9.149,9.149,0,0,1-.026-2A2.057,2.057,0,0,0,760,772.9a2.256,2.256,0,0,0-1.141-.268,2.367,2.367,0,0,0-1.862.528,1.838,1.838,0,0,0,.071,2.282A7.383,7.383,0,0,0,759,776.983a4.28,4.28,0,0,1,1.378,1.315,1.234,1.234,0,0,1,.1.234h4.181A11.607,11.607,0,0,0,767.24,776.752Z" transform="translate(-477.073 -418.926)" fill="#fff"/>
    <ellipse id="Ellipse_125" data-name="Ellipse 125" cx="28.031" cy="3.779" rx="28.031" ry="3.779" transform="translate(223.053 359.486)" fill="#0f2337" opacity="0.1"/>
    <ellipse id="Ellipse_126" data-name="Ellipse 126" cx="21.531" cy="3.779" rx="21.531" ry="3.779" transform="translate(106.053 356.486)" fill="#0f2337" opacity="0.1"/>
    <path id="Path_857" data-name="Path 857" d="M946.783-945.582s-12.9-.328-13.886,10.934,6.561,14.87,8.747,15.089,17.276.547,17.276.547,3.28.984,9.622,5.8,12.574,4.155,18.807,0,8.529-5.8,10.169-5.8,12.793.328,14.542-8.529-4.264-13.668-6.67-14.214-14.761-.328-20.009-5.576c-5.107-5.107-13.422-11.766-22.335-10.376A20,20,0,0,0,954-954.22c-4.066,3.031-7.217,8.638-7.217,8.638" transform="translate(-714.22 986.544)" fill="#fff" opacity="0.16"/>
    <path id="Path_858" data-name="Path 858" d="M994.029-971.481s-14.044,1.109-12.381,14.783c.554,6.468,4.065,10.533,10.163,11.457s60.8,0,60.8,0,8.315-1.109,8.87-11.457c-.554-8.5-7.391-11.457-8.87-11.272s-13.859-.37-19.957-6.652-16.631-10.533-20.142-8.87-11.087-.37-15.337,7.576C995.277-973.133,994.029-971.481,994.029-971.481Z" transform="translate(-742.194 1002.437)" fill="#fff" opacity="0.16"/>
    <text id="_Muscateer" data-name="#Muscateer" transform="translate(178.322 212.901) rotate(-8)" fill="#22b473" font-size="14" font-family="SegoeUI, Segoe UI"><tspan x="-36.275" y="0">#Muscateer</tspan></text>
  </g>
</svg>
