<?xml version="1.0" standalone="no"?>
<!DOCTYPE svg PUBLIC "-//W3C//DTD SVG 1.1//EN" "http://www.w3.org/Graphics/SVG/1.1/DTD/svg11.dtd">
<svg xmlns="http://www.w3.org/2000/svg">
<metadata>Generated by Fontastic.me</metadata>
<defs>
<font id="omasouq-app" horiz-adv-x="512">
<font-face font-family="omasouq-app" units-per-em="512" ascent="480" descent="-32"/>
<missing-glyph horiz-adv-x="512" />

<glyph glyph-name="automobile" unicode="&#97;" d="M376 249c-3 0-6 3-7 6l-19 122-188 0-19-122c-1-4-4-7-8-6-3 1-6 4-5 8l20 127c1 4 4 6 7 6l200 0c3 0 6-3 7-6l20-127c1-4-2-8-5-8-2 0-2 0-3 0z m-120 0c-2 0-3 1-5 2-3 3-3 7 0 10l61 61c3 2 7 2 10 0 2-3 2-7 0-10l-61-61c-2-1-3-2-5-2z m161 0c-3 0-6 2-7 6l-23 145c-1 10-10 17-20 17l-223 0c-10 0-18-7-19-17l-23-145c-1-4-4-7-8-6-3 1-6 4-5 8l23 145c3 17 16 29 33 29l223 0c16 0 31-13 33-29l23-145c1-4-2-8-6-8 0 0 0 0-1 0z m-282-168l-54 0c-4 0-7 3-7 7l0 47c0 4 3 7 7 7 4 0 7-3 7-7l0-40 40 0 0 40c0 4 3 7 7 7 4 0 7-3 7-7l0-47c0-4-3-7-7-7z m296 0l-54 0c-4 0-7 3-7 7l0 47c0 4 3 7 7 7 4 0 7-3 7-7l0-40 40 0 0 40c0 4 3 7 7 7 4 0 7-3 7-7l0-47c0-4-4-7-7-7z m26 47l-402 0c-4 0-7 3-7 7l0 80c0 11 6 22 15 28l28 18c1 1 3 2 4 2l322 0c1 0 3-1 4-2l28-19c9-6 15-17 15-28l0-80c0-3-3-6-7-6z m-396 14l390 0 0 73c0 6-4 13-9 16l-27 18-318 0-27-18c-5-3-9-10-9-16z m61 20c-19 0-34 15-34 33 0 19 15 34 34 34 18 0 33-15 33-34 0-18-15-33-33-33z m0 54c-11 0-20-9-20-20 0-11 9-20 20-20 10 0 19 9 19 20 0 11-9 20-19 20z m268-54c-18 0-33 15-33 33 0 19 15 34 33 34 19 0 34-15 34-34 0-18-15-33-34-33z m0 54c-10 0-19-9-19-20 0-11 9-20 19-20 11 0 20 9 20 20 0 11-9 20-20 20z m-80-41l-107 0c-4 0-7 3-7 7l0 27c0 4 3 7 7 7l107 0c4 0 7-3 7-7l0-27c0-4-4-7-7-7z m-101 14l93 0 0 13-93 0z"/>
<glyph glyph-name="electronics-gadgets" unicode="&#98;" d="M198 167c-4 0-7 3-7 7l0 49c0 4 3 6 7 6 4 0 7-2 7-6l0-49c0-4-3-7-7-7z m-58 0c-4 0-7 3-7 7l0 49c0 4 3 6 7 6 4 0 7-2 7-6l0-49c0-4-3-7-7-7z m97 0l-135 0c-4 0-7 3-7 7 0 4 3 7 7 7l135 0c4 0 7-3 7-7 0-4-4-7-7-7z m-58 232l-19 0c-4 0-7 3-7 7 0 4 3 7 7 7l19 0c4 0 7-3 7-7 0-4-4-7-7-7z m116-184l-251 0c-15 0-26 12-26 26l0 184c0 14 11 26 26 26l251 0c14 0 26-12 26-26l0-184c0-14-12-26-26-26z m-252 223c-7 0-12-6-12-13l0-183c0-7 5-13 12-13l251 0c7 0 13 6 13 13l0 183c0 7-6 13-13 13z m271-165l-290 0c-4 0-7 3-7 7 0 4 3 7 7 7l290 0c4 0 7-3 7-7 0-4-3-7-7-7z m29-77c-4 0-7 3-7 7l0 77c0 4 3 7 7 7 4 0 7-3 7-7l0-77c0-4-3-7-7-7z m80-135c-28 0-52 15-65 39l-30 0c-12-24-36-39-64-39-40 0-72 33-72 74 0 41 33 75 72 75l159 0c40 0 72-34 72-75 0-41-33-74-72-74z m-99 52l38 0c3 0 6-2 7-4 9-22 30-35 54-35 32 0 58 27 58 60 0 34-26 61-58 61l-159 0c-33 0-59-27-59-61 0-33 27-60 59-60 24 0 45 13 54 35 1 2 3 4 6 4z m-58-14c-5 0-7 3-7 7l0 58c0 4 2 7 7 7 4 0 6-3 6-7l0-58c0-4-2-7-6-7z m29 29l-58 0c-4 0-7 3-7 7 0 4 3 7 7 7l58 0c4 0 7-3 7-7 0-4-4-7-7-7z m116 10c-2 0-3 1-5 2-3 3-3 7 0 10l19 19c3 2 7 2 10 0 3-3 3-7 0-10l-19-19c-2-1-4-2-5-2z m10-39c-3 0-4 1-5 2-3 3-3 7 0 10l19 19c3 2 7 2 9 0 3-3 3-7 0-10l-19-19c-1-1-3-2-4-2z"/>
<glyph glyph-name="jobs" unicode="&#99;" d="M313 365c-4 0-6 2-6 6l0 40-102 0 0-40c0-4-3-6-7-6-4 0-7 2-7 6l0 47c0 4 3 7 7 7l115 0c4 0 7-3 7-7l0-47c0-4-3-6-7-6z m116-185l-139 0c-4 0-7 3-7 7 0 4 3 7 7 7l132 0 0 171-333 0 0-171 132 0c4 0 7-3 7-7 0-4-3-7-7-7l-138 0c-4 0-7 3-7 7l0 184c0 4 3 7 7 7l346 0c4 0 7-3 7-7l0-184c0-4-3-7-7-7z m-23-93l-300 0c-4 0-6 3-6 7l0 92c0 4 2 7 6 7 5 0 7-3 7-7l0-85 286 0 0 85c0 4 3 7 7 7 4 0 7-3 7-7l0-92c0-3-3-7-7-7z m-115 70l-69 0c-4 0-7 3-7 7l0 57c0 4 3 7 7 7l69 0c4 0 7-3 7-7l0-57c0-4-4-7-7-7z m-63 14l55 0 0 43-55 0z"/>
<glyph glyph-name="lifestyle" unicode="&#100;" d="M256 71c-4 0-7 3-7 7l0 273c0 4 3 7 7 7 4 0 7-3 7-7l0-273c0-4-3-7-7-7z m119 143l-60 0c-4 0-6 2-6 6 0 5 2 7 6 7l60 0c4 0 7-2 7-7 0-4-4-6-7-6z m59-143l-356 0c-4 0-7 3-7 7l0 308c0 4 3 7 7 7l83 0c4 0 7-3 7-7 0-4-3-6-7-6l-76 0 0-295 342 0 0 295-76 0c-4 0-7 2-7 6 0 4 3 7 7 7l83 0c4 0 7-3 7-7l0-308c0-4-3-7-7-7z m-83 214c-1 0-3 0-4 1l-91 57-91-57c-3-1-5-1-7 0-2 1-4 3-4 6l0 143c0 0 0 1 0 1 0 0 0 0 0 1 0 1 1 1 1 1 0 0 0 1 1 1 0 1 1 1 2 1 0 1 2 1 2 1l190 0c1 0 2 0 3-1 1 0 1 0 2-1 0 0 0 0 1-1 0 0 0-1 0-2 0 0 0 0 0-1 0 0 0-1 0-1l0-143c0-2-1-4-3-6 0 0-1 0-2 0z m-183 134l0-115 76 48z m100-67l76-48 0 115z m-88 75l76-67 76 67z"/>
<glyph glyph-name="pets" unicode="&#101;" d="M100 295c-1 0-2 0-2 0-39 9-66 44-66 84 0 48 39 87 87 87 42 0 79-33 86-74 0-4-2-8-6-8-3 0-7 2-7 6-6 35-36 62-73 62-40 0-73-33-73-73 0-34 24-63 56-71 4-1 7-5 5-8-2-3-5-5-7-5z m312 0c-2 0-6 2-6 5-1 4 1 8 4 9 33 8 56 37 56 71 0 40-33 73-73 73-35 0-67-27-72-63-1-3-4-6-8-5-3 1-6 4-5 8 6 42 43 73 86 73 48 0 87-39 87-86 0-40-28-75-67-84 0-1-1-1-2-1z m-156-249c-100 0-181 82-181 181 0 100 81 181 181 181 100 0 181-81 181-181 0-99-81-181-181-181z m0 348c-92 0-167-75-167-167 0-93 75-168 167-168 92 0 167 75 167 168 0 92-75 167-167 167z m0-232c-2 0-4 2-5 3l-29 44c-1 2-1 5 0 7 1 2 3 3 6 3l58 0c3 0 5-1 6-3 2-2 2-5 0-7l-28-44c-4-2-6-3-8-3z m-16 43l16-24 16 24z m16-86c-4 0-7 3-7 7l0 43c0 4 3 7 7 7 4 0 7-3 7-7l0-43c0-4-3-7-7-7z m44 0l-87 0c-4 0-7 3-7 7 0 4 3 6 7 6l87 0c4 0 7-2 7-6 0-4-4-7-7-7z m-102 145c-12 0-21 9-21 21 0 11 9 21 21 21 12 0 21-10 21-21 0-12-9-21-21-21z m0 29c-4 0-8-4-8-8 0-4 4-7 8-7 4 0 7 3 7 7 0 4-3 8-7 8z m116-29c-12 0-21 9-21 21 0 11 9 21 21 21 12 0 21-10 21-21 0-12-9-21-21-21z m0 29c-4 0-7-4-7-8 0-4 3-7 7-7 4 0 8 3 8 7 0 4-4 8-8 8z"/>
<glyph glyph-name="properties" unicode="&#102;" d="M390 61l-94 0c-4 0-7 2-7 7l0 87-66 0 0-87c0-5-3-7-7-7l-94 0c-5 0-7 2-7 7l0 190c0 4 2 7 7 7 4 0 6-3 6-7l0-184 81 0 0 88c0 4 3 7 7 7l80 0c4 0 7-3 7-7l0-88 81 0 0 184c0 4 2 7 6 7 5 0 7-3 7-7l0-190c0-4-3-7-7-7z m-255 268c-4 0-7 3-7 7l0 95c0 4 3 7 7 7l40 0c5 0 7-3 7-7l0-60c0-4-2-6-7-6-4 0-6 2-6 6l0 53-27 0 0-88c0-4-3-7-7-7z m161-120l-80 0c-4 0-7 3-7 7l0 54c0 4 3 6 7 6l80 0c4 0 7-2 7-6l0-54c0-4-3-7-7-7z m-73 14l66 0 0 40-66 0z m192 6c-1 0-3 0-5 2l-154 140-154-140c-2-2-4-2-5-2-2 0-3 0-5 2l-32 35c-1 2-2 4-2 5 0 2 1 3 2 5l191 173c3 2 7 2 9 0l191-173c2-2 2-3 2-5 0-2 0-3-2-5l-32-35c0-1-2-2-4-2 1 0 0 0 0 0z m-341 42l24-25 154 140c3 2 7 2 9 0l154-140 23 25-181 164z"/>
<glyph glyph-name="search" unicode="&#103;" d="M318 422c-63 63-165 63-228 0-63-63-63-165 0-228 57-57 147-62 210-15 1-1 1-2 2-2l131-132c5-5 17-2 26 8 10 9 13 21 8 26l-132 131c0 1-1 1-2 2 47 63 42 153-15 210z m-18-210c-53-54-139-54-193 0-53 53-53 139 1 193 53 53 139 53 192 0 54-54 54-140 0-193z"/>
<glyph glyph-name="heart" unicode="&#104;" d="M256 37c-5 0-9 1-13 5l-178 172c-2 1-4 4-8 7-3 4-8 10-16 19-7 9-13 18-19 28-6 9-11 21-15 34-5 14-7 27-7 40 0 42 12 74 36 98 24 24 58 35 101 35 11 0 23-2 36-6 12-4 23-9 34-16 11-7 20-14 27-20 8-6 15-12 22-19 7 7 14 13 22 19 7 6 16 13 27 20 11 7 22 12 34 16 13 4 25 6 36 6 43 0 77-11 101-35 24-24 36-56 36-98 0-42-22-85-65-129l-178-171c-4-4-8-5-13-5z"/>
<glyph glyph-name="heart-o" unicode="&#105;" d="M475 342c0 15-2 29-6 41-4 11-9 21-15 28-7 7-15 12-24 17-9 4-18 7-27 9-8 1-18 2-28 2-9 0-20-3-32-7-11-5-22-11-31-19-10-7-18-14-25-20-7-7-12-13-17-18-3-4-8-6-14-6-6 0-11 2-14 6-5 5-10 11-17 18-7 6-15 13-25 20-9 8-20 14-31 19-12 4-23 7-32 7-10 0-20-1-28-2-9-2-18-5-27-9-9-5-17-10-24-17-6-7-11-17-15-28-4-12-6-26-6-41 0-32 17-66 53-102l166-160 166 160c36 36 53 70 53 102z m37 0c0-42-22-85-65-129l-178-171c-4-4-8-5-13-5-5 0-9 1-13 5l-178 172c-2 1-4 4-8 7-3 4-8 10-16 19-7 9-13 18-19 28-6 9-11 21-15 34-5 14-7 27-7 40 0 42 12 74 36 98 24 24 58 35 101 35 11 0 23-2 36-6 12-4 23-9 34-16 11-7 20-14 27-20 8-6 15-12 22-19 7 7 14 13 22 19 7 6 16 13 27 20 11 7 22 12 34 16 13 4 25 6 36 6 43 0 77-11 101-35 24-24 36-56 36-98z"/>
<glyph glyph-name="user-1" unicode="&#107;" d="M365 343c0-60-49-109-109-109-60 0-109 49-109 109 0 60 49 109 109 109 60 0 109-49 109-109z m-49-130l-120 0c-85 0-153-69-153-153l426 0c0 84-68 153-153 153z"/>
<glyph glyph-name="circle-true" unicode="&#106;" d="M256 469c-118 0-213-96-213-213 0-118 96-213 213-213 118 0 213 96 213 213 0 118-96 213-213 213z m0-391c-98 0-178 80-178 178 0 98 80 178 178 178 98 0 178-80 178-178 0-98-80-178-178-178z m92 260l-126-127-58 58c-7 7-18 7-25 0-7-7-7-18 0-25l70-70c4-3 8-5 13-5 4 0 9 2 12 5l139 139c7 7 7 18 0 25-7 7-18 7-25 0z"/>
<glyph glyph-name="select" unicode="&#108;" d="M256 67c-104 0-189 85-189 189 0 104 85 189 189 189 104 0 189-85 189-189 0-104-85-189-189-189z m0 370c-100 0-181-81-181-181 0-100 81-181 181-181 100 0 181 81 181 181 0 100-81 181-181 181z"/>
<glyph glyph-name="selected" unicode="&#109;" d="M256 67c-104 0-189 85-189 189 0 104 85 189 189 189 104 0 189-85 189-189 0-104-85-189-189-189z m0 370c-100 0-181-81-181-181 0-100 81-181 181-181 100 0 181 81 181 181 0 100-81 181-181 181z m115-181c0-64-52-115-115-115-63 0-115 51-115 115 0 64 52 115 115 115 63 0 115-51 115-115z"/>
<glyph glyph-name="arrow-1-up" unicode="&#111;" d="M88 109l168 196 168-196 48 42-216 252-216-252z"/>
<glyph glyph-name="arrow-1-down" unicode="&#113;" d="M256 109l216 252-48 42-168-196-168 196-48-42z"/>
<glyph glyph-name="back" unicode="&#112;" d="M466 229l-409 0c-15 0-27 12-27 27 0 15 12 27 27 27l409 0c15 0 27-12 27-27 0-15-12-27-27-27z m-258-151c-7 0-14 3-19 8l-170 170 170 170c10 10 27 10 38 0 10-11 10-28 0-38l-132-132 132-132c10-10 10-27 0-38-5-5-12-8-19-8z"/>
<glyph glyph-name="chevron-left" unicode="&#115;" d="M214 256l167 174c4 4 4 11 0 16l-30 30c-4 5-11 5-16 1l-204-213c-2-2-3-5-3-8 0-3 1-6 3-8l204-213c5-4 12-4 16 0l30 31c4 4 4 11 0 16z"/>
<glyph glyph-name="chevron-right" unicode="&#116;" d="M298 256l-167 174c-4 4-4 11 0 16l30 30c5 5 12 5 16 1l204-213c2-2 3-5 3-8 0-3-1-6-3-8l-204-213c-4-4-11-4-16 0l-30 31c-4 4-4 11 0 16z"/>
<glyph glyph-name="ellipsis-v" unicode="&#110;" d="M311 155l0-54c0-8-3-15-8-20-5-5-12-8-20-8l-54 0c-8 0-15 3-20 8-5 5-8 12-8 20l0 54c0 8 3 15 8 20 5 5 12 8 20 8l54 0c8 0 15-3 20-8 5-5 8-12 8-20z m0 147l0-55c0-8-3-14-8-20-5-5-12-8-20-8l-54 0c-8 0-15 3-20 8-5 6-8 12-8 20l0 55c0 7 3 14 8 19 5 5 12 8 20 8l54 0c8 0 15-3 20-8 5-5 8-12 8-19z m0 146l0-55c0-7-3-14-8-19-5-6-12-8-20-8l-54 0c-8 0-15 2-20 8-5 5-8 12-8 19l0 55c0 8 3 14 8 19 5 6 12 8 20 8l54 0c8 0 15-2 20-8 5-5 8-11 8-19z"/>
<glyph glyph-name="comment" unicode="&#114;" d="M382 52l-64 65-209 0c-43 0-77 38-77 84l0 171c0 46 34 84 77 84l294 0c21 0 40-9 55-25 14-16 22-37 22-59l0-171c0-46-34-84-77-84l-9 0z m-273 395c-38 0-69-34-69-75l0-171c0-42 31-76 69-76l213 0 54-56 11 56 16 0c38 0 69 34 69 76l0 171c0 20-7 39-20 53-13 14-31 22-49 22z m275-404l-67 70-208 0c-45 0-82 39-82 88l0 171c0 48 37 88 82 88l294 0c22 0 42-9 58-26 15-17 24-39 24-62l0-171c0-49-37-88-82-88l-6 0z m-64 78l59-61 0 0z m83 322l-294 0c-36 0-65-32-65-71l0-171c0-39 29-71 65-71l215 0 50-52 9 52 20 0c36 0 65 32 65 71l0 171c0 19-7 37-20 50-12 14-28 21-45 21z m-294 8c-40 0-73-35-73-79l0-171 0 171c0 44 33 79 73 79z m275-408l-67 70-208 0c-45 0-82 39-82 88l0 171c0 48 37 88 82 88l294 0c22 0 42-9 58-26 15-17 24-39 24-62l0-171c0-49-37-88-82-88l-6 0z m-64 78l59-61z m83 322l-294 0c-36 0-65-32-65-71l0-171c0-39 29-71 65-71l215 0 50-52 9 52 20 0c36 0 65 32 65 71l0 171c0 19-7 37-20 50-12 14-28 21-45 21z m-294 8c-40 0-73-35-73-79l0-171 0 171c0 44 33 79 73 79z m278-417l-72 74-206 0c-47 0-86 42-86 93l0 171c0 51 39 92 86 92l294 0c23 0 45-9 61-27 16-18 25-41 25-65l0-171c0-51-39-93-86-93l-2 0z m-11 24l6-6 12 65 9 0c43 0 77 38 77 84l0 171c0 22-8 43-22 59-15 16-34 25-55 25l-294 0c-43 0-77-38-77-84l0-171 0 171c0 46 34 84 77 84l0-9 294 0c18 0 36-8 49-22 13-14 20-33 20-53l0-171c0-42-31-76-69-76l-16 0-11-56-54 56-213 0c-38 0-69 34-69 76l-8 0c0-46 34-84 77-84l209 0-1 1 6 6 59-61z m27 381l-294 0c-33 0-60-30-60-67l0-171c0-37 27-67 60-67l217 0 45-47 9 47 23 0c33 0 60 30 60 67l0 171c0 18-6 35-18 47-11 13-26 20-42 20z m-19-396l-67 70-208 0c-45 0-82 39-82 88l0 171c0 48 37 88 82 88l294 0c22 0 42-9 58-26 15-17 24-39 24-62l0-171c0-49-37-88-82-88l-6 0z m-64 78l59-61z m-211 322c-36 0-65-32-65-71l0-171c0-39 29-71 65-71l215 0 50-52 9 52 20 0c36 0 65 32 65 71l0 171c0 19-7 37-20 50-12 14-28 21-45 21z m0 8c-40 0-73-35-73-79l0-171 0 171c0 44 33 79 73 79z m278-417l-72 74-206 0c-47 0-86 42-86 93l0 171c0 51 39 92 86 92l294 0c23 0 45-9 61-27 16-18 25-41 25-65l0-171c0-51-39-93-86-93l-2 0z m-11 24l6-6 12 65 9 0c43 0 77 38 77 84l0 171c0 22-8 43-22 59-15 16-34 25-55 25l-294 0c-43 0-77-38-77-84l0-171 0 171c0 46 34 84 77 84l0-9 294 0c18 0 36-8 49-22 13-14 20-33 20-53l0-171c0-42-31-76-69-76l-16 0-11-56-54 56-213 0c-38 0-69 34-69 76l-8 0c0-46 34-84 77-84l209 0-1 1 6 6 59-61z m27 381l-294 0c-33 0-60-30-60-67l0-171c0-37 27-67 60-67l217 0 45-47 9 47 23 0c33 0 60 30 60 67l0 171c0 18-6 35-18 47-11 13-26 20-42 20z m-339-11c-15-13-24-34-24-56 0 22 9 43 24 56z m323-394l-72 74-206 0c-47 0-86 42-86 93l0 171c0 51 39 92 86 92l294 0c23 0 45-9 61-27 16-18 25-41 25-65l0-171c0-51-39-93-86-93l-2 0z m-11 24l6-6 12 65 9 0c43 0 77 38 77 84l0 171c0 22-8 43-22 59-15 16-34 25-55 25l-294 0c-43 0-77-38-77-84l0-171 0 171c0 46 34 84 77 84l0-9 294 0c18 0 36-8 49-22 13-14 20-33 20-53l0-171c0-42-31-76-69-76l-16 0-11-56-54 56-213 0c-38 0-69 34-69 76l-8 0c0-46 34-84 77-84l209 0-1 1 6 6 59-61z m-267 381c-33 0-60-30-60-67l0-171c0-37 27-67 60-67l217 0 45-47 9 47 23 0c33 0 60 30 60 67l0 171c0 18-6 35-18 47-11 13-26 20-42 20z m-45-11c-15-13-24-34-24-56 0 22 9 43 24 56z m326-403l-77 79-204 0c-50 0-90 44-90 97l0 171c0 53 40 97 90 97l294 0c24 0 47-11 64-29 17-19 26-43 26-68l0-171c0-53-39-96-88-97z m-73 88l63-66-10 11 6 6-50 51 2-2z m35-12l22-23z m-243 333c-31 0-56-28-56-62l0-171c0-35 25-63 56-63l218 0 41-42 8 42 27 0c31 0 56 28 56 63l0 171c0 17-6 33-17 45-10 11-24 17-39 17z m274-304l-4-23z m-347 67c2-42 34-76 73-76l205 0-205 0c-39 0-71 34-73 76z m0 8l8 0 0-4 0 171-8 0c0 0 0 0 0 0 0 0 0 0 0 0z m-9 167c0 0 0 0 0 0l0-171 0 171c0 0 0 0 0 0z m434 30c5-9 7-19 7-30 0 11-2 21-7 30z m-418 5c-4-10-7-22-7-35 0 12 3 24 7 35z m65 53c-45-1-81-40-81-88 0 48 36 87 81 88z m354-42c6-8 10-18 12-29-2 11-6 21-12 29z m-1 16c0 0 0 0 0 0 3-3 5-6 7-9-2 3-4 6-7 9 0 0 0 0 0 0z m-400-2l6-7c11 11 26 18 42 18l294 0c0 0 0 0 0 0 0 0 0 0 0 0l-298 0 0 8c-17-1-32-8-44-19z m52 28l290 0z"/>
<glyph glyph-name="star" unicode="&#117;" d="M494 327c0-4-3-9-8-14l-103-101 24-143c0-1 0-3 0-5 0-4-1-8-3-10-2-3-4-5-8-5-4 0-8 2-12 4l-128 67-128-67c-4-2-8-4-12-4-4 0-7 2-9 5-2 2-3 6-3 10 0 1 0 3 1 5l24 143-104 101c-4 6-7 10-7 14 0 7 6 12 16 13l144 21 64 130c4 8 8 12 14 12 6 0 10-4 14-12l64-130 144-21c10-1 16-6 16-13z"/>
<glyph glyph-name="star-o" unicode="&#118;" d="M343 225l88 85-121 18-54 109-54-109-121-18 88-85-21-120 108 57 108-57z m151 102c0-4-3-9-8-14l-103-101 24-143c0-1 0-3 0-5 0-10-3-15-11-15-4 0-8 2-12 4l-128 67-128-67c-4-2-8-4-12-4-4 0-7 2-9 5-2 2-3 6-3 10 0 1 0 3 1 5l24 143-104 101c-4 6-7 10-7 14 0 7 6 12 16 13l144 21 64 130c4 8 8 12 14 12 6 0 10-4 14-12l64-130 144-21c10-1 16-6 16-13z"/>
<glyph glyph-name="menu" unicode="&#119;" d="M43 423l426 0 0-45-426 0z m0-143l426 0 0-45-426 0z m0-146l426 0 0-45-426 0z"/>
<glyph glyph-name="arrow-right-c" unicode="&#122;" d="M323 384l100-105c6-6 9-14 9-23 0-9-3-16-9-22l-100-106c-12-12-32-12-43 0-12 13-12 33 0 46l48 50-217 0c-17 0-31 14-31 32 0 18 14 32 31 32l217 0-49 50c-11 13-11 33 0 46 12 12 32 12 44 0z"/>
<glyph glyph-name="arrow-right" unicode="&#65;" d="M352 288l-352 0 0-64 352 0 0-96 160 128-160 128z"/>
<glyph glyph-name="arrow-left-c" unicode="&#120;" d="M189 384l-100-105c-6-6-9-14-9-23 0-9 3-16 9-22l100-106c12-12 32-12 44 0 11 13 11 33 0 46l-49 50 217 0c17 0 31 14 31 32 0 18-14 32-31 32l-217 0 49 50c12 13 12 33 0 46-12 12-32 12-44 0z"/>
<glyph glyph-name="share-icon" unicode="&#66;" d="M68 246c0 7 0 14 0 20 1 1 1 1 1 2 1 8 4 16 8 24 6 11 15 20 27 27 15 9 31 12 48 9 12-2 23-6 32-14 2-2 4-1 5 0 36 17 71 35 106 53 3 1 4 2 4 6 0 10 2 21 7 31 4 8 10 16 17 22 8 7 17 12 27 15 4 1 8 2 11 3 7 0 14 0 20 0 2-1 3 0 5-1 19-4 35-14 46-31 11-17 14-35 11-55-3-17-12-31-26-42-16-13-36-18-57-15-12 2-23 6-32 14-2 1-4 1-6 0-35-18-71-35-107-53-2-1-3-3-3-5 0-2 1-4 3-5 36-17 72-35 107-53 2-1 4-1 6 0 10 9 22 13 35 15 12 1 23 0 34-5 15-5 27-15 36-28 10-16 13-35 10-54-3-17-13-32-27-43-17-13-37-18-59-14-17 3-31 12-42 26-11 13-17 29-16 46 0 2-1 3-2 4-37 18-73 36-109 54-1 1-2 1-3 0-12-9-25-14-39-15-13-2-26 1-37 7-20 9-32 24-39 45-1 3-1 7-2 10z"/>
<glyph glyph-name="sort-desc" unicode="&#68;" d="M402 201c0-5-2-9-5-13l-128-128c-4-3-8-5-13-5-5 0-9 2-13 5l-128 128c-3 4-5 8-5 13 0 5 2 9 5 13 4 4 8 5 13 5l256 0c5 0 9-1 13-5 3-4 5-8 5-13z"/>
<glyph glyph-name="up-open" unicode="&#69;" d="M396 220c6-5 8-12 8-21 0-8-2-15-8-21-13-13-26-13-40 0 0 0-100 96-100 96 0 0-100-96-100-96-14-13-27-13-40 0-6 6-8 13-8 21 0 9 2 16 8 21 0 0 120 115 120 115 5 5 12 8 20 8 8 0 15-3 20-8 0 0 120-115 120-115"/>
<glyph glyph-name="sort-asc" unicode="&#67;" d="M402 311c0-5-2-9-5-13-4-4-8-5-13-5l-256 0c-5 0-9 1-13 5-3 4-5 8-5 13 0 5 2 9 5 13l128 128c4 3 8 5 13 5 5 0 9-2 13-5l128-128c3-4 5-8 5-13z"/>
<glyph glyph-name="service" unicode="&#121;" d="M68 357c14-14 29-28 43-43 5-6 10-7 16-4 12 4 24 7 35 11 3 1 7 4 8 8 5 13 10 27 15 41 1 4 1 8-3 11-15 15-30 29-45 44 6 7 12 13 18 19 1 1 4 2 7 2 38-2 81-37 90-74 2-9 2-18 2-27 1-12 1-24 2-36 1-11 6-19 14-27 47-47 94-94 141-140 11-11 12-19 6-32-8-17-21-29-38-37-12-6-21-4-30 6-49 51-98 101-147 153-5 5-10 8-18 8-8-1-16-1-24-2-53-6-93 19-110 69-3 10-4 20-6 30-1 5 1 8 5 10 6 3 12 7 19 10z m91 71c3-3 4-5 5-6 11-11 21-22 32-33 6-5 8-12 5-20-6-16-11-33-16-49-3-7-7-12-14-14-15-4-30-8-45-13-9-3-16-1-23 6-10 11-22 22-33 33-2 2-5 3-8 4 0-3-1-6-1-8 2-16 9-31 19-44 17-22 39-34 68-31 12 2 24 2 35 2 13 0 23-4 32-13 47-51 96-100 143-150 6-7 12-8 18-3 9 8 17 16 25 25 5 6 4 12-2 18-48 47-96 95-144 142-8 7-12 16-13 26-2 16-3 32-3 48-1 14-3 27-10 38-14 22-34 36-60 42-3 1-5 0-10 0z m145-157c-5 4-8 8-10 10 15 16 30 32 45 47 9 8 20 10 31 4 11-6 18-15 17-28 0-7 3-11 7-16 5-5 10-10 15-14 14 14 28 27 43 42-6 6-13 13-21 19-2 1-5 2-8 2-19 0-31 11-33 30-2 16-19 31-34 34-8 2-16 6-23 11-19 16-40 21-65 14 6-4 11-6 15-9 10-9 21-17 28-27 14-17 11-36-4-51-10-11-21-21-31-32-1 0-1 0-2 0-6 13-5 16 4 26 6 5 12 11 17 16 11 11 12 22 2 34-10 14-24 23-40 29-6 3-12 5-12 13 0 8 6 11 13 14 31 12 60 7 86-15 4-4 10-7 16-7 10-1 18-4 24-12 3-3 6-6 9-9 8-6 12-14 13-25 0-12 7-20 15-17 14 5 19-5 26-12 6-5 11-11 16-16 7-8 7-16 0-23-13-14-28-28-42-42-7-7-15-6-22 0-9 9-18 18-27 28-2 2-2 6-2 8 3 9 1 15-6 20-7 5-13 2-18-3-14-14-27-28-42-43z m-86-80c6-5 9-9 13-13-2-2-4-4-6-6-33-32-65-64-98-97-10-10-18-12-32-5-18 8-32 22-40 40-6 13-4 22 6 32 24 22 49 45 73 68 7 7 14 12 25 13 3 0 7 1 10 1 1 0 2-1 3-2-3-2-6-3-8-5-30-29-61-58-91-86-6-6-6-10-3-17 7-12 17-22 30-29 6-4 11-3 16 2 32 32 64 63 96 95 2 2 4 6 6 9z"/>
</font>
</defs>
</svg>
