<?xml version="1.0" encoding="iso-8859-1"?>
<!-- Generator: Adobe Illustrator 19.0.0, SVG Export Plug-In . SVG Version: 6.00 Build 0)  -->
<svg xmlns="http://www.w3.org/2000/svg" xmlns:xlink="http://www.w3.org/1999/xlink" version="1.1" id="Layer_1" x="0px" y="0px" viewBox="0 0 512 512" style="enable-background:new 0 0 512 512;" xml:space="preserve" width="512" height="512">
<g>
	<circle style="fill:#61729B;" cx="256" cy="256" r="256"/>
	<path style="fill:#47568C;" d="M511.785,245.939l-149.78-149.78l-62.011,62.01l-40.76-40.76L100.312,276.332l92.168,92.168   l-48.838,48.838l94,94C243.706,511.768,249.826,512,256,512c141.385,0,256-114.615,256-256   C512,252.629,511.914,249.278,511.785,245.939z"/>
	<g>
		<path style="fill:#FDE4E4;" d="M430.333,232.785c0,33.708-28.26,61.289-61.97,61.289H143.637c-33.71,0-61.97-27.581-61.97-61.289    c0-26.355,17.638-49.644,41.949-58.021c3.882-36.569,34.322-65.238,71.095-65.238c7.968,0,15.731,1.43,23.29,4.086    c9.194-15.322,22.472-27.376,37.999-35.14c12.462-6.333,26.354-9.806,40.859-9.806c50.665,0,91.934,41.948,91.934,92.615    c0,4.494-0.409,8.785-1.226,13.483C412.288,182.937,430.333,206.227,430.333,232.785z"/>
		<path style="fill:#FCCED3;" d="M430.333,232.785c0,33.708-28.26,61.289-61.97,61.289H256V78.473    c12.462-6.333,26.354-9.806,40.859-9.806c50.665,0,91.934,41.948,91.934,92.615c0,4.494-0.409,8.785-1.226,13.483    C412.288,182.937,430.333,206.227,430.333,232.785z"/>
		<rect x="184.496" y="171.496" style="fill:#FFD396;" width="143.008" height="61.289"/>
		<rect x="256" y="171.496" style="fill:#FF9100;" width="71.504" height="61.289"/>
		<rect x="164.066" y="212.355" style="fill:#FF641A;" width="183.867" height="61.289"/>
		<rect x="256" y="212.355" style="fill:#F03800;" width="91.934" height="61.289"/>
		<path style="fill:#E0F4FF;" d="M143.637,253.215v164.119h224.727V253.215H143.637z"/>
		<rect x="256" y="253.215" style="fill:#BBDCFF;" width="112.363" height="164.118"/>
		<polygon style="fill:#61729B;" points="347.934,273.645 347.934,340.858 296.859,392.613 256,384.442 194.711,371.502     164.066,340.858 164.066,273.645   "/>
		<polygon style="fill:#47568C;" points="347.934,273.645 347.934,340.858 296.859,392.613 256,384.442 256,273.645   "/>
		<polygon style="fill:#9CDD05;" points="347.934,340.858 347.934,396.904 164.066,396.904 164.066,340.858 194.711,310.213     235.57,351.073 296.859,289.784   "/>
		<polygon style="fill:#66BB00;" points="347.934,340.858 347.934,396.904 256,396.904 256,330.643 296.859,289.784   "/>
	</g>
</g>















</svg>
